<svg width="35" height="34" viewBox="0 0 35 34" xmlns="http://www.w3.org/2000/svg">
<rect x="0.5" y="0.5" width="34" height="33" rx="12.5" />
<path d="M7.5 17C7.5 12.5217 7.5 10.2825 8.89124 8.89124C10.2825 7.5 12.5217 7.5 17 7.5C21.4783 7.5 23.7175 7.5 25.1088 8.89124C26.5 10.2825 26.5 12.5217 26.5 17C26.5 21.4783 26.5 23.7175 25.1088 25.1088C23.7175 26.5 21.4783 26.5 17 26.5C12.5217 26.5 10.2825 26.5 8.89124 25.1088C7.5 23.7175 7.5 21.4783 7.5 17Z" stroke-width="1.5"/>
<path d="M11 18.5L12.5 14L14.375 18.5M11 18.5L10.5 20M11 18.5H14.375M14.375 18.5L15 20" stroke-width="1.5" stroke-linecap="round" stroke-linejoin="round"/>
<path d="M17.5 17V14.7C17.5 14.5139 17.5 14.4208 17.5245 14.3455C17.5739 14.1933 17.6933 14.0739 17.8455 14.0245C17.9208 14 18.0139 14 18.2 14H19.5C20.3284 14 21 14.6716 21 15.5C21 16.3284 20.3284 17 19.5 17H17.5ZM17.5 17V20" stroke-width="1.5" stroke-linecap="round" stroke-linejoin="round"/>
<path d="M23.5 14V20" stroke-width="1.5" stroke-linecap="round" stroke-linejoin="round"/>
</svg>
