<svg width="120" height="120" viewBox="0 0 120 120" fill="none" xmlns="http://www.w3.org/2000/svg">
<rect width="120" height="120" rx="24" fill="#027354"/>
<path fill-rule="evenodd" clip-rule="evenodd" d="M12.303 46.9814C13.4187 46.9814 14.5345 46.9814 15.6502 46.9814C21.2365 48.5066 25.3507 51.8932 27.993 57.1415C28.5758 59.0865 28.7152 61.0621 28.4114 63.0681C27.4727 64.8662 26.2175 66.4185 24.6458 67.7248C25.1228 69.6385 24.9136 71.473 24.0182 73.2281C23.0419 73.2281 22.0656 73.2281 21.0894 73.2281C21.536 71.754 21.4663 70.3429 20.8802 68.9948C16.6912 69.8126 13.2742 68.4015 10.6294 64.7615C10.6294 60.2459 10.6294 55.7304 10.6294 51.2148C11.2606 49.8695 11.8185 48.4584 12.303 46.9814Z" fill="#016341"/>
<path fill-rule="evenodd" clip-rule="evenodd" d="M21.9257 65.6082C22.2442 65.231 22.6626 64.9488 23.1809 64.7615C23.5947 63.2344 23.7342 61.6822 23.5993 60.1048C23.0414 60.1048 22.4835 60.1048 21.9257 60.1048C22.0554 61.465 21.9159 62.735 21.5073 63.9148C21.0879 62.0774 20.5997 60.243 20.0429 58.4115C19.7025 57.2783 19.0749 56.4317 18.1601 55.8715C19.7377 55.4031 21.2718 55.6853 22.7625 56.7181C23.1809 56.577 23.4598 56.2948 23.5993 55.8715C22.9704 55.058 22.1336 54.5641 21.0889 54.3898C19.9818 54.1792 18.866 54.1087 17.7417 54.1781C16.8002 52.1347 15.545 50.3003 13.9761 48.6748C19.816 49.1372 24.0697 52.1005 26.7373 57.5648C27.9654 61.8554 26.6404 65.101 22.7625 67.3015C22.2583 66.8456 21.9793 66.2812 21.9257 65.6082Z" fill="#20D5A9"/>
<path fill-rule="evenodd" clip-rule="evenodd" d="M17.7406 54.1782C18.865 54.1087 19.9807 54.1793 21.0878 54.3899C22.1325 54.5641 22.9693 55.058 23.5982 55.8715C23.4588 56.2949 23.1798 56.5771 22.7614 56.7182C21.2707 55.6853 19.7366 55.4031 18.159 55.8715C15.6134 56.7853 14.5674 58.6198 15.021 61.3749C16.4263 64.2445 18.588 65.0911 21.5062 63.9149C21.9149 62.7351 22.0543 61.4651 21.9246 60.1049C22.4825 60.1049 23.0404 60.1049 23.5982 60.1049C23.7332 61.6822 23.5937 63.2344 23.1798 64.7615C22.6615 64.9488 22.2431 65.2311 21.9246 65.6082C15.5622 66.7203 12.8426 64.0392 13.7658 57.5649C14.6491 55.8942 15.974 54.7654 17.7406 54.1782Z" fill="#EFFAF8"/>
<path opacity="0.854" fill-rule="evenodd" clip-rule="evenodd" d="M37.4079 56.7178C41.6454 56.1536 43.8769 57.9175 44.1022 62.0094C41.7313 62.1505 39.3604 62.2917 36.9895 62.4328C37.3381 63.35 37.9657 63.985 38.8723 64.3378C40.0649 63.993 41.3898 63.7813 42.847 63.7028C43.3087 64.4141 43.1693 65.0491 42.4286 65.6078C36.7885 67.1651 34.3478 65.0484 35.1067 59.2578C35.6756 58.1899 36.4426 57.3432 37.4079 56.7178ZM38.6631 58.4111C39.824 58.3689 40.8002 58.9334 41.5919 60.1044C40.0577 60.6689 38.5236 60.6689 36.9895 60.1044C37.5612 59.5372 38.1191 58.9727 38.6631 58.4111Z" fill="white"/>
<path opacity="0.863" fill-rule="evenodd" clip-rule="evenodd" d="M47.4479 56.7182C51.7353 56.057 53.8273 57.8209 53.7239 62.0099C51.4925 62.151 49.261 62.2922 47.0295 62.4333C48.6984 64.634 50.4417 64.8457 52.2595 63.0683C53.4946 63.7849 53.5641 64.561 52.4687 65.3966C49.9131 66.5013 47.6119 66.1486 45.5651 64.3383C44.3084 61.2627 44.936 58.7227 47.4479 56.7182ZM48.7031 58.4116C49.8641 58.3694 50.8403 58.9338 51.6319 60.1049C50.0978 60.6693 48.5637 60.6693 47.0295 60.1049C47.4683 59.3786 48.0262 58.8142 48.7031 58.4116Z" fill="white"/>
<path opacity="0.845" fill-rule="evenodd" clip-rule="evenodd" d="M65.021 57.1412C65.6632 56.596 66.3603 56.596 67.113 57.1412C67.9209 59.1 68.6883 61.0756 69.4142 63.0679C70.1246 60.9963 70.8916 58.9502 71.7154 56.9295C72.3899 56.6246 73.0175 56.6952 73.5982 57.1412C74.3672 58.9793 75.1346 60.8138 75.8994 62.6445C76.6642 60.8138 77.4316 58.9793 78.2006 57.1412C78.7679 56.7686 79.3955 56.6275 80.0834 56.7179C79.2792 59.7588 78.2332 62.7221 76.9454 65.6079C76.2345 65.9915 75.4672 66.1326 74.6442 66.0312C74.2957 64.0567 73.5982 62.2223 72.5522 60.5279C71.856 62.2171 71.1585 63.9104 70.4602 65.6079C69.7627 66.1723 69.0657 66.1723 68.3682 65.6079C67.1594 62.7772 66.0436 59.9549 65.021 57.1412Z" fill="white"/>
<path fill-rule="evenodd" clip-rule="evenodd" d="M18.1589 55.8711C19.0737 56.4313 19.7013 57.278 20.0417 58.4111C20.5985 60.2426 21.0867 62.077 21.5061 63.9144C18.5878 65.0907 16.4261 64.244 15.0209 61.3744C14.5673 58.6193 15.6133 56.7849 18.1589 55.8711Z" fill="#15B791"/>
<path opacity="0.873" fill-rule="evenodd" clip-rule="evenodd" d="M109.371 53.3311C109.371 57.1411 109.371 60.9511 109.371 64.7611C107.613 65.9722 105.66 66.3249 103.513 65.8194C100.96 64.0816 100.332 61.7532 101.63 58.8344C103.24 56.8568 105.262 56.2924 107.697 57.1411C108.109 55.9015 108.248 54.6315 108.115 53.3311C108.534 53.3311 108.952 53.3311 109.371 53.3311ZM104.35 58.8344C105.446 58.7208 106.492 58.8619 107.488 59.2577C108.889 61.6535 108.261 63.3469 105.605 64.3377C103.892 64.1195 103.055 63.1317 103.095 61.3744C103.081 60.2731 103.499 59.4264 104.35 58.8344Z" fill="white"/>
<path opacity="0.799" fill-rule="evenodd" clip-rule="evenodd" d="M57.9085 56.7178C60.3712 56.2282 62.3933 56.9338 63.9753 58.8345C64.6054 61.0551 64.7447 63.3128 64.3937 65.6078C63.6828 65.9914 62.9155 66.1325 62.0925 66.0311C62.1619 63.769 62.0921 61.5112 61.8833 59.2578C60.4749 58.0671 59.2197 58.2082 58.1177 59.6811C57.9784 61.6567 57.8386 63.6322 57.6993 65.6078C56.9884 65.9914 56.2211 66.1325 55.3981 66.0311C55.247 63.4516 55.4562 60.9116 56.0257 58.4111C56.6102 57.7464 57.2378 57.1819 57.9085 56.7178Z" fill="white"/>
<path opacity="0.745" fill-rule="evenodd" clip-rule="evenodd" d="M31.5496 56.7178C32.5258 56.7178 33.5021 56.7178 34.4784 56.7178C34.5439 57.2992 34.4742 57.8637 34.2692 58.4111C33.5899 58.4407 32.8228 58.6524 31.968 59.0461C31.7061 59.3638 31.4969 59.7166 31.3404 60.1044C31.1315 62.075 31.0618 64.0505 31.1312 66.0311C30.4338 66.0311 29.7365 66.0311 29.0392 66.0311C28.9697 63.7689 29.0394 61.5111 29.2484 59.2578C29.8173 58.1899 30.5843 57.3432 31.5496 56.7178Z" fill="white"/>
<path opacity="0.921" fill-rule="evenodd" clip-rule="evenodd" d="M83.4294 56.7183C88.5163 56.5716 90.3991 58.9705 89.0778 63.9149C86.2883 66.7372 83.4993 66.7372 80.7098 63.9149C79.535 60.656 80.4412 58.2571 83.4294 56.7183ZM85.103 58.4116C88.1728 60.1038 88.382 62.0794 85.7306 64.3383C82.8098 64.1858 81.8336 62.6335 82.8018 59.6816C83.5867 59.2122 84.3537 58.7889 85.103 58.4116Z" fill="white"/>
<path opacity="0.962" fill-rule="evenodd" clip-rule="evenodd" d="M93.4719 56.7182C98.5475 56.2768 100.57 58.5346 99.5387 63.4915C98.2082 65.9188 96.1861 66.6949 93.4719 65.8199C90.5762 64.2754 89.8093 61.9471 91.1707 58.8349C91.8946 58.0297 92.6615 57.3242 93.4719 56.7182ZM93.8903 58.8349C96.2003 58.2294 97.5948 59.0761 98.0743 61.3749C96.8894 64.4827 95.146 64.9061 92.8443 62.6449C92.3954 61.121 92.7439 59.851 93.8903 58.8349Z" fill="white"/>
</svg>
