<svg width="429" height="424" viewBox="0 0 429 424" fill="none" xmlns="http://www.w3.org/2000/svg">
<rect width="429" height="424" rx="40" fill="#027354"/>
<path fill-rule="evenodd" clip-rule="evenodd" d="M43.9831 166C47.9719 166 51.9606 166 55.9494 166C75.9204 171.389 90.6288 183.355 100.075 201.899C102.158 208.771 102.657 215.752 101.571 222.84C98.2148 229.193 93.7275 234.678 88.1086 239.293C89.8138 246.055 89.0659 252.537 85.8649 258.738C82.3748 258.738 78.8846 258.738 75.3945 258.738C76.9912 253.53 76.742 248.544 74.6466 243.781C59.6708 246.67 47.4553 241.684 38 228.823C38 212.868 38 196.913 38 180.958C40.2566 176.205 42.2509 171.219 43.9831 166Z" fill="#016341"/>
<path fill-rule="evenodd" clip-rule="evenodd" d="M78.3846 231.815C79.5234 230.482 81.0192 229.485 82.872 228.823C84.3516 223.427 84.8503 217.943 84.3678 212.369C82.3734 212.369 80.379 212.369 78.3846 212.369C78.8483 217.176 78.3498 221.663 76.8889 225.831C75.3895 219.339 73.6444 212.858 71.6536 206.386C70.4367 202.383 68.193 199.391 64.9226 197.412C70.5626 195.757 76.047 196.754 81.3762 200.403C82.872 199.905 83.8692 198.907 84.3678 197.412C82.1195 194.537 79.1279 192.792 75.3931 192.176C71.4353 191.432 67.4465 191.183 63.4269 191.429C60.0612 184.208 55.5739 177.727 49.9648 171.983C70.8425 173.617 86.0496 184.088 95.5861 203.395C99.9767 218.555 95.24 230.023 81.3762 237.798C79.5736 236.187 78.5764 234.193 78.3846 231.815Z" fill="#20D5A9"/>
<path fill-rule="evenodd" clip-rule="evenodd" d="M63.4232 191.428C67.4428 191.183 71.4316 191.432 75.3894 192.176C79.1243 192.792 82.1158 194.537 84.3641 197.411C83.8656 198.907 82.8683 199.904 81.3726 200.403C76.0434 196.753 70.559 195.756 64.919 197.411C55.8185 200.64 52.0791 207.122 53.7006 216.856C58.7244 226.996 66.4525 229.987 76.8852 225.831C78.3461 221.663 78.8447 217.175 78.381 212.369C80.3753 212.369 82.3698 212.369 84.3641 212.369C84.8467 217.942 84.348 223.427 82.8683 228.823C81.0155 229.484 79.5197 230.482 78.381 231.814C55.6353 235.744 45.9127 226.27 49.2133 203.394C52.3711 197.492 57.1077 193.503 63.4232 191.428Z" fill="#EFFAF8"/>
<path opacity="0.854" fill-rule="evenodd" clip-rule="evenodd" d="M133.733 200.403C148.882 198.41 156.859 204.642 157.665 219.101C149.189 219.599 140.713 220.098 132.237 220.596C133.483 223.837 135.727 226.081 138.968 227.327C143.232 226.109 147.968 225.361 153.178 225.084C154.828 227.597 154.33 229.841 151.682 231.815C131.519 237.317 122.793 229.838 125.506 209.378C127.54 205.605 130.282 202.613 133.733 200.403ZM138.22 206.386C142.37 206.237 145.861 208.232 148.691 212.37C143.206 214.364 137.722 214.364 132.237 212.37C134.281 210.365 136.275 208.371 138.22 206.386Z" fill="white"/>
<path opacity="0.863" fill-rule="evenodd" clip-rule="evenodd" d="M169.626 200.403C184.953 198.067 192.432 204.299 192.062 219.1C184.085 219.599 176.107 220.098 168.13 220.596C174.096 228.372 180.329 229.12 186.827 222.84C191.243 225.372 191.491 228.114 187.575 231.067C178.439 234.97 170.212 233.724 162.895 227.327C158.402 216.46 160.646 207.486 169.626 200.403ZM174.113 206.386C178.263 206.237 181.753 208.232 184.584 212.369C179.099 214.364 173.615 214.364 168.13 212.369C169.699 209.803 171.693 207.809 174.113 206.386Z" fill="white"/>
<path opacity="0.845" fill-rule="evenodd" clip-rule="evenodd" d="M232.45 201.899C234.746 199.972 237.238 199.972 239.929 201.899C242.817 208.82 245.561 215.8 248.156 222.84C250.696 215.52 253.437 208.291 256.383 201.151C258.794 200.074 261.038 200.323 263.114 201.899C265.863 208.394 268.606 214.875 271.34 221.344C274.075 214.875 276.818 208.394 279.567 201.899C281.596 200.582 283.839 200.084 286.298 200.403C283.423 211.148 279.684 221.618 275.08 231.814C272.539 233.17 269.795 233.668 266.853 233.31C265.607 226.334 263.114 219.852 259.374 213.865C256.885 219.834 254.392 225.817 251.895 231.814C249.402 233.809 246.91 233.809 244.416 231.814C240.095 221.813 236.106 211.841 232.45 201.899Z" fill="white"/>
<path fill-rule="evenodd" clip-rule="evenodd" d="M64.9182 197.411C68.1886 199.39 70.4323 202.382 71.6492 206.386C73.64 212.857 75.3851 219.339 76.8845 225.831C66.4517 229.987 58.7236 226.996 53.6999 216.856C52.0784 207.122 55.8178 200.64 64.9182 197.411Z" fill="#15B791"/>
<path opacity="0.873" fill-rule="evenodd" clip-rule="evenodd" d="M391 188.437C391 201.899 391 215.361 391 228.823C384.715 233.102 377.734 234.348 370.059 232.562C360.932 226.422 358.688 218.195 363.328 207.882C369.082 200.894 376.311 198.9 385.017 201.899C386.489 197.519 386.987 193.031 386.513 188.437C388.008 188.437 389.504 188.437 391 188.437ZM373.051 207.882C376.968 207.48 380.708 207.979 384.269 209.377C389.277 217.843 387.033 223.826 377.538 227.327C371.414 226.556 368.423 223.065 368.563 216.856C368.514 212.965 370.01 209.973 373.051 207.882Z" fill="white"/>
<path opacity="0.799" fill-rule="evenodd" clip-rule="evenodd" d="M207.023 200.403C215.828 198.673 223.057 201.166 228.712 207.882C230.965 215.728 231.463 223.705 230.208 231.814C227.667 233.17 224.923 233.668 221.981 233.31C222.229 225.317 221.98 217.34 221.233 209.378C216.198 205.171 211.711 205.669 207.771 210.874C207.273 217.854 206.774 224.834 206.275 231.814C203.734 233.17 200.991 233.668 198.049 233.31C197.509 224.196 198.257 215.221 200.292 206.386C202.382 204.037 204.626 202.043 207.023 200.403Z" fill="white"/>
<path opacity="0.745" fill-rule="evenodd" clip-rule="evenodd" d="M112.789 200.403C116.279 200.403 119.77 200.403 123.26 200.403C123.494 202.457 123.245 204.452 122.512 206.386C120.083 206.491 117.341 207.238 114.285 208.63C113.349 209.752 112.601 210.999 112.041 212.369C111.295 219.332 111.046 226.312 111.294 233.31C108.8 233.31 106.308 233.31 103.815 233.31C103.566 225.317 103.816 217.339 104.563 209.378C106.596 205.604 109.339 202.613 112.789 200.403Z" fill="white"/>
<path opacity="0.921" fill-rule="evenodd" clip-rule="evenodd" d="M298.261 200.403C316.446 199.885 323.177 208.361 318.454 225.832C308.481 235.803 298.51 235.803 288.538 225.832C284.338 214.317 287.578 205.841 298.261 200.403ZM304.244 206.386C315.218 212.366 315.966 219.346 306.487 227.327C296.045 226.789 292.556 221.304 296.017 210.874C298.823 209.215 301.565 207.72 304.244 206.386Z" fill="white"/>
<path opacity="0.962" fill-rule="evenodd" clip-rule="evenodd" d="M334.161 200.403C352.307 198.843 359.536 206.821 355.85 224.335C351.094 232.911 343.865 235.654 334.161 232.562C323.809 227.105 321.067 218.878 325.935 207.882C328.522 205.037 331.264 202.544 334.161 200.403ZM335.657 207.882C343.915 205.742 348.901 208.734 350.615 216.856C346.379 227.837 340.146 229.333 331.918 221.344C330.313 215.959 331.559 211.472 335.657 207.882Z" fill="white"/>
</svg>
