<svg width="184" height="184" viewBox="0 0 184 184" fill="none" xmlns="http://www.w3.org/2000/svg">
<path d="M105.506 51.2818C104.161 52.2401 102.813 53.1922 101.437 54.1101C100.713 54.6049 99.9807 55.0938 99.2932 55.6354C95.6265 58.5298 91.9921 61.4698 88.2547 64.2757C85.9457 65.9923 83.6189 67.685 81.2741 69.3538L77.7497 71.8462L74.1976 74.299C73.4659 74.7766 72.6971 75.1949 71.8985 75.5498C71.578 75.7098 71.2241 75.7913 70.8659 75.7875C70.5078 75.7837 70.1556 75.6948 69.8386 75.5281C68.9503 75.0856 68.819 74.0461 69.6442 73.1995C70.1943 72.662 70.8095 72.1954 71.4755 71.8106C72.9756 70.905 74.4312 69.9391 75.8422 68.9129C77.257 67.8917 78.6298 66.8128 79.9606 65.6762C80.6957 65.0496 81.4273 64.3516 82.2598 63.9064C84.9177 62.4811 87.2141 60.5185 89.7337 58.8894C91.6056 57.6772 93.3882 56.3222 95.2251 55.0527L100.136 51.6521C101.766 50.5095 103.427 49.4063 105.062 48.2679C105.711 47.8425 106.388 47.4603 107.087 47.1238C107.757 46.822 108.442 46.5576 109.141 46.3317C109.758 46.1305 109.986 46.4932 109.549 47.0934C108.92 47.953 108.232 48.7678 107.49 49.5316C107.186 49.8456 106.861 50.1435 106.525 50.4276C106.178 50.6974 105.829 50.9682 105.483 51.2373L105.506 51.2818Z" fill="#C3DDBA"/>
<path d="M122.411 96.0116L120.321 96.3213L118.221 96.5807C117.479 96.6743 116.733 96.768 116.002 96.9242C115.026 97.1302 114.053 97.3482 113.081 97.5702L110.161 98.2187L104.329 99.5279L97.1428 101.122L89.9649 102.756C89.2333 102.901 88.4922 102.994 87.7473 103.033C87.4426 103.062 87.1354 103.019 86.8503 102.908C86.5651 102.797 86.3099 102.621 86.105 102.394C85.5259 101.779 85.7342 100.917 86.6568 100.482C87.2625 100.212 87.9005 100.021 88.5551 99.9133C91.5173 99.3674 94.4421 98.6349 97.312 97.7202C98.0926 97.4183 98.905 97.2062 99.7336 97.0882C102.324 96.8689 104.818 96.1239 107.379 95.7527C109.28 95.4785 111.166 95.0678 113.069 94.7841C116.464 94.291 119.862 93.8316 123.276 93.4963C124.571 93.3551 125.88 93.429 127.151 93.715C127.701 93.8376 127.73 94.2706 127.155 94.5354C126.327 94.9083 125.477 95.2266 124.608 95.4884C123.885 95.6912 123.152 95.851 122.411 95.967L122.411 96.0116Z" fill="#C3DDBA"/>
<path d="M112.005 139.793C110.899 139.277 109.794 138.757 108.691 138.231C108.118 137.926 107.527 137.656 106.921 137.422C105.296 136.833 103.657 136.281 102.019 135.728C100.382 135.174 98.7497 134.609 97.128 134.019C95.1292 133.297 93.1389 132.554 91.1468 131.815L85.183 129.566C84.5818 129.312 84.0138 128.985 83.4917 128.594C82.9761 128.236 82.7946 127.581 82.8103 126.815C82.833 125.699 83.5516 124.757 84.4584 124.8C85.0357 124.846 85.5971 125.011 86.1072 125.285C88.4543 126.443 90.9296 127.321 93.482 127.9C94.1894 128.063 94.9474 128.179 95.5456 128.573C97.4586 129.82 99.6532 130.381 101.658 131.397C103.149 132.147 104.706 132.754 106.211 133.475C107.553 134.117 108.89 134.77 110.221 135.433L114.176 137.505C115.21 138.039 116.102 138.814 116.778 139.763C116.852 139.854 116.896 139.966 116.906 140.084C116.916 140.201 116.891 140.319 116.834 140.422C116.776 140.525 116.69 140.608 116.584 140.661C116.479 140.715 116.361 140.735 116.244 140.721C115.446 140.661 114.652 140.554 113.867 140.4C113.24 140.227 112.627 140.007 112.032 139.744L112.005 139.793Z" fill="#C3DDBA"/>
<path d="M79.9725 157.335C79.7627 157.084 79.5437 156.84 79.3489 156.575L78.7668 155.778C78.5683 155.491 78.346 155.222 78.1023 154.972C77.4286 154.33 76.7282 153.711 76.067 153.057C75.3978 152.411 74.7325 151.761 74.0928 151.089C73.3038 150.262 72.5298 149.422 71.7843 148.557L69.5473 145.961C69.3324 145.673 69.1732 145.347 69.0779 145C68.9647 144.667 69.173 144.205 69.5411 143.71C70.0775 142.99 70.911 142.517 71.3822 142.72C71.666 142.854 71.8997 143.075 72.0496 143.351C72.7798 144.551 73.7405 145.594 74.8763 146.419C75.1916 146.653 75.5655 146.856 75.713 147.222C76.1943 148.383 77.159 149.133 77.8183 150.141C78.3035 150.894 78.9322 151.529 79.4383 152.267C80.3466 153.578 81.2831 154.863 82.151 156.208C82.5186 156.759 82.7057 157.411 82.6865 158.073C82.6826 158.155 82.6611 158.234 82.6234 158.306C82.5856 158.378 82.5326 158.441 82.4681 158.49C82.4035 158.54 82.3289 158.574 82.2495 158.592C82.1702 158.609 82.0879 158.609 82.0086 158.591C81.7956 158.512 81.5845 158.424 81.3781 158.329C81.1736 158.24 80.9772 158.134 80.7908 158.011C80.509 157.801 80.2471 157.566 80.0083 157.308L79.9725 157.335Z" fill="#C3DDBA"/>
<path d="M56.7683 39.978C56.5629 40.7347 56.3499 41.488 56.1295 42.2377C56.0029 42.6319 55.9002 43.0333 55.8219 43.4397C55.6605 44.5293 55.4868 45.619 55.2922 46.7067C55.0931 47.7934 54.8526 48.8716 54.5708 49.9413C54.2102 51.2533 53.8099 52.5555 53.355 53.8388C52.9006 55.1222 52.4115 56.3925 51.8875 57.6499C51.7073 58.0317 51.4639 58.3803 51.1676 58.6811C50.8964 58.9868 50.3915 59.0404 49.8002 58.9484C48.9391 58.8136 48.2012 58.243 48.2122 57.675C48.2343 57.3206 48.3477 56.978 48.5413 56.6804C49.3603 55.3045 49.8976 53.7795 50.1218 52.1941C50.1894 51.7548 50.2012 51.2814 50.4423 50.9139C51.2202 49.7371 51.3785 48.3513 51.8732 47.0766C52.0545 46.6011 52.2098 46.116 52.3385 45.6237C52.4779 45.1342 52.6021 44.6404 52.7473 44.152C53.2632 42.4096 53.766 40.6546 54.1877 38.8751C54.3888 38.1323 54.8231 37.4737 55.4266 36.9963C55.697 36.7453 56.076 36.8096 56.3459 37.1807L56.5719 37.572C56.61 37.631 56.6362 37.697 56.6489 37.7662L56.6954 37.9578C56.7547 38.2112 56.7986 38.4678 56.8269 38.7265C56.8477 38.9344 56.8463 39.144 56.8227 39.3516C56.79 39.5568 56.7483 39.7612 56.7192 39.9664L56.7683 39.978Z" fill="#C3DDBA"/>
</svg>
