<svg width="158" height="158" viewBox="0 0 158 158" fill="none" xmlns="http://www.w3.org/2000/svg">
<path d="M100.942 42.4123C99.4269 43.0701 97.9098 43.721 96.373 44.3328C95.5626 44.6665 94.7443 44.9923 93.9592 45.3792C89.7709 47.4482 85.6048 49.5685 81.3658 51.5362C78.7504 52.7353 76.1225 53.9074 73.4821 55.0523L69.5165 56.7576L65.5322 58.4184C64.7171 58.7336 63.8781 58.9829 63.0233 59.1641C62.6765 59.2539 62.3134 59.26 61.9639 59.1819C61.6143 59.1037 61.2883 58.9436 61.0129 58.7146C60.2359 58.0971 60.3236 57.0531 61.3067 56.3965C61.9566 55.985 62.6553 55.6565 63.3867 55.4186C65.0423 54.8446 66.6669 54.2023 68.2604 53.4918C69.8566 52.7871 71.4237 52.0172 72.9617 51.182C73.811 50.7218 74.6717 50.1912 75.5786 49.9288C78.4747 49.0872 81.1289 47.6447 83.9321 46.575C86.0151 45.7784 88.0404 44.8235 90.1011 43.9636L95.6117 41.6582C97.4439 40.8794 99.2973 40.1455 101.133 39.3718C101.857 39.0907 102.598 38.8575 103.352 38.6737C104.07 38.5177 104.795 38.4015 105.526 38.3258C106.172 38.2573 106.319 38.6595 105.767 39.1557C104.973 39.8659 104.131 40.5198 103.246 41.1126C102.883 41.3565 102.504 41.5805 102.116 41.7885C101.72 41.9802 101.323 42.1726 100.928 42.3638L100.942 42.4123Z" fill="#C3DDBA"/>
<path d="M108.179 89.6789L106.07 89.5475L103.962 89.3646C103.217 89.3018 102.467 89.2384 101.72 89.2392C100.723 89.2379 99.7254 89.2489 98.7283 89.2639L95.7382 89.2915L89.7605 89.3596L82.4003 89.4252L75.0396 89.5311C74.2938 89.5214 73.5496 89.4581 72.8128 89.3418C72.5088 89.3065 72.2172 89.2007 71.9614 89.0328C71.7056 88.8648 71.4925 88.6394 71.3393 88.3745C70.9007 87.6527 71.2835 86.8535 72.2765 86.6192C72.9252 86.4808 73.589 86.4265 74.2515 86.4577C77.2625 86.5395 80.2757 86.431 83.273 86.1328C84.0993 85.9998 84.9381 85.9612 85.7731 86.018C88.3527 86.342 90.9471 86.1317 93.5287 86.3008C95.4459 86.4279 97.3753 86.4181 99.2957 86.5362C102.72 86.7598 106.139 87.0167 109.548 87.3984C110.844 87.5295 112.109 87.8739 113.292 88.4177C113.805 88.652 113.744 89.0817 113.126 89.221C112.239 89.4138 111.341 89.5483 110.436 89.6237C109.688 89.672 108.937 89.6758 108.188 89.6352L108.179 89.6789Z" fill="#C3DDBA"/>
<path d="M88.8993 130.34C87.9243 129.606 86.952 128.867 85.9826 128.124C85.4849 127.707 84.9629 127.32 84.4194 126.965C82.9519 126.051 81.4637 125.17 79.9763 124.289C78.4902 123.406 77.0111 122.515 75.5476 121.601C73.7427 120.478 71.9503 119.338 70.1553 118.201L64.7892 114.761C64.2539 114.388 63.7662 113.951 63.3369 113.459C62.907 113.002 62.8656 112.323 63.0402 111.577C63.2944 110.49 64.1931 109.718 65.0711 109.949C65.6262 110.114 66.1411 110.392 66.583 110.767C68.6382 112.387 70.877 113.76 73.2532 114.857C73.9112 115.164 74.6286 115.434 75.1319 115.944C76.7437 117.562 78.7738 118.567 80.5235 119.978C81.8261 121.021 83.2232 121.938 84.5454 122.956C85.7244 123.863 86.8961 124.78 88.0604 125.705L91.4985 128.554C92.3993 129.292 93.1109 130.234 93.574 131.303C93.6273 131.408 93.6479 131.527 93.6333 131.644C93.6187 131.761 93.5695 131.871 93.492 131.959C93.4145 132.048 93.3122 132.112 93.1983 132.142C93.0844 132.172 92.9641 132.168 92.8528 132.129C92.0847 131.905 91.3307 131.635 90.5946 131.321C90.0173 131.022 89.4628 130.68 88.9359 130.298L88.8993 130.34Z" fill="#C3DDBA"/>
<path d="M53.92 140.842C53.7671 140.552 53.6036 140.268 53.468 139.969L53.0643 139.068C52.9298 138.746 52.7684 138.436 52.582 138.141C52.0565 137.373 51.5001 136.622 50.9892 135.845C50.4689 135.074 49.9532 134.3 49.4672 133.509C48.8674 132.536 48.2849 131.554 47.7356 130.553L46.0868 127.549C45.9366 127.222 45.8486 126.87 45.8275 126.512C45.7861 126.162 46.0859 125.753 46.5488 125.346C47.2233 124.752 48.1368 124.464 48.5555 124.76C48.8052 124.95 48.9878 125.215 49.0771 125.516C49.542 126.841 50.265 128.061 51.2043 129.105C51.4642 129.399 51.7877 129.675 51.8558 130.064C52.0852 131.3 52.8731 132.233 53.3084 133.357C53.6264 134.194 54.1094 134.946 54.4511 135.773C55.0671 137.244 55.716 138.696 56.2852 140.192C56.5302 140.808 56.5777 141.484 56.4213 142.128C56.4006 142.206 56.3631 142.28 56.3112 142.342C56.2594 142.405 56.1944 142.455 56.121 142.49C56.0476 142.525 55.9674 142.543 55.8862 142.544C55.8049 142.545 55.7245 142.527 55.6505 142.494C55.4587 142.371 55.2706 142.241 55.0884 142.106C54.9069 141.976 54.7368 141.832 54.5799 141.673C54.3479 141.409 54.1406 141.124 53.9606 140.823L53.92 140.842Z" fill="#C3DDBA"/>
<path d="M55.6179 21.224C55.2597 21.9215 54.8948 22.614 54.5234 23.3016C54.3176 23.6608 54.1337 24.0321 53.9726 24.4134C53.5883 25.4456 53.1918 26.4754 52.7753 27.4989C52.3547 28.5204 51.8954 29.5251 51.3973 30.5129C50.7718 31.7212 50.1097 32.9117 49.3979 34.0725C48.6867 35.2334 47.9441 36.3743 47.1702 37.4953C46.9146 37.8313 46.604 38.1217 46.2517 38.3543C45.9229 38.597 45.4179 38.5444 44.8586 38.3316C44.0444 38.0207 43.4412 37.3092 43.57 36.7558C43.6653 36.4138 43.8474 36.1022 44.0987 35.8513C45.1858 34.6758 46.0284 33.2958 46.5772 31.7916C46.7346 31.376 46.8446 30.9154 47.1569 30.606C48.1623 29.6166 48.6053 28.294 49.3542 27.15C49.6303 26.7225 49.8831 26.2804 50.1113 25.8255C50.3495 25.3757 50.5735 24.9185 50.8172 24.4709C51.684 22.8739 52.5405 21.2617 53.3229 19.6087C53.6741 18.924 54.2358 18.3701 54.9253 18.0285C55.242 17.8392 55.5993 17.9809 55.7862 18.4L55.9259 18.8297C55.951 18.8954 55.9629 18.9654 55.9609 19.0357L55.9666 19.2328C55.9719 19.4929 55.9615 19.7531 55.9354 20.012C55.9125 20.2197 55.8676 20.4244 55.8014 20.6226C55.7267 20.8165 55.6434 21.0077 55.5723 21.2024L55.6179 21.224Z" fill="#C3DDBA"/>
</svg>
