<svg width="112" height="113" viewBox="0 0 112 113" fill="none" xmlns="http://www.w3.org/2000/svg">
<path fill-rule="evenodd" clip-rule="evenodd" d="M55.995 1.88354C26.1061 1.88354 1.8667 26.3362 1.8667 56.502C1.8667 80.6293 17.3761 101.102 38.8872 108.327C41.5956 108.827 42.5826 107.14 42.5826 105.692C42.5826 104.394 42.5361 100.961 42.5095 96.4045C27.4521 99.7037 24.2751 89.0819 24.2751 89.0819C21.8126 82.7718 18.2634 81.0919 18.2634 81.0919C13.3484 77.7056 18.6356 77.7726 18.6356 77.7726C24.069 78.1582 26.927 83.4021 26.927 83.4021C31.7556 91.7474 39.5984 89.3366 42.6823 87.9385C43.1741 84.4113 44.5732 82.0039 46.1185 80.6393C34.0985 79.2579 21.4603 74.574 21.4603 53.6454C21.4603 47.6806 23.5706 42.8089 27.0334 38.99C26.4751 37.6086 24.6174 32.0561 27.5651 24.5356C27.5651 24.5356 32.1079 23.067 42.4497 30.1315C46.7665 28.9211 51.3991 28.3176 56.0017 28.2942C60.601 28.3176 65.2302 28.9211 69.5537 30.1315C79.8889 23.067 84.4251 24.5356 84.4251 24.5356C87.3794 32.0561 85.5217 37.6086 84.9668 38.99C88.4362 42.8089 90.5298 47.6806 90.5298 53.6454C90.5298 74.6277 77.8717 79.2445 65.8151 80.5957C67.7559 82.2822 69.4873 85.615 69.4873 90.7113C69.4873 98.0105 69.4208 103.902 69.4208 105.692C69.4208 107.154 70.3978 108.854 73.1428 108.321C94.6373 101.082 110.133 80.626 110.133 56.502C110.133 26.3362 85.8939 1.88354 55.995 1.88354Z" fill="#121212"/>
</svg>
