<svg width="127" height="34" viewBox="0 0 127 34" fill="none" xmlns="http://www.w3.org/2000/svg">
<path fill-rule="evenodd" clip-rule="evenodd" d="M2.15254 0C3.58757 0 5.0226 0 6.45763 0C13.6426 1.9387 18.9343 6.24377 22.3326 12.9153C23.0822 15.3878 23.2616 17.8991 22.8708 20.4492C21.6635 22.7349 20.0491 24.7081 18.0275 26.3687C18.641 28.8013 18.372 31.1332 17.2203 33.3644C15.9647 33.3644 14.709 33.3644 13.4534 33.3644C14.0279 31.4906 13.9382 29.6968 13.1843 27.9831C7.79651 29.0226 3.40174 27.2288 0 22.6017C0 16.8616 0 11.1215 0 5.38136C0.811842 3.6713 1.52936 1.87751 2.15254 0Z" fill="#016341"/>
<path fill-rule="evenodd" clip-rule="evenodd" d="M14.5297 23.678C14.9393 23.1985 15.4775 22.8398 16.1441 22.6017C16.6764 20.6605 16.8558 18.6873 16.6822 16.6822C15.9647 16.6822 15.2472 16.6822 14.5297 16.6822C14.6965 18.4113 14.5171 20.0257 13.9915 21.5254C13.4521 19.1898 12.8243 16.8579 12.1081 14.5297C11.6702 13.0892 10.863 12.013 9.68644 11.3008C11.7155 10.7054 13.6887 11.0641 15.6059 12.3771C16.1441 12.1978 16.5028 11.839 16.6822 11.3008C15.8733 10.2668 14.7971 9.63892 13.4534 9.41737C12.0295 9.14971 10.5944 9.06 9.14831 9.14831C7.93745 6.55072 6.32304 4.21879 4.30508 2.15254C11.8162 2.74028 17.2873 6.50724 20.7182 13.4534C22.2978 18.9076 20.5937 23.0333 15.6059 25.8305C14.9574 25.251 14.5987 24.5335 14.5297 23.678Z" fill="#20D5A9"/>
<path fill-rule="evenodd" clip-rule="evenodd" d="M9.1483 9.14832C10.5944 9.06001 12.0295 9.14972 13.4534 9.41739C14.7971 9.63894 15.8733 10.2668 16.6822 11.3009C16.5028 11.839 16.1441 12.1978 15.6059 12.3771C13.6887 11.0641 11.7155 10.7054 9.68644 11.3009C6.41236 12.4624 5.06704 14.7944 5.65042 18.2966C7.4578 21.9444 10.2381 23.0207 13.9915 21.5254C14.5171 20.0257 14.6965 18.4113 14.5297 16.6822C15.2472 16.6822 15.9647 16.6822 16.6822 16.6822C16.8558 18.6873 16.6764 20.6605 16.1441 22.6017C15.4775 22.8398 14.9393 23.1986 14.5297 23.678C6.34644 25.0916 2.84857 21.6834 4.03601 13.4534C5.17209 11.3297 6.87618 9.89471 9.1483 9.14832Z" fill="#EFFAF8"/>
<path opacity="0.854" fill-rule="evenodd" clip-rule="evenodd" d="M34.4407 12.3771C39.8909 11.66 42.7609 13.9022 43.0508 19.1038C40.0014 19.2832 36.952 19.4626 33.9025 19.642C34.351 20.8079 35.1582 21.6151 36.3241 22.0636C37.858 21.6253 39.5621 21.3562 41.4364 21.2564C42.0302 22.1607 41.8508 22.9679 40.8983 23.678C33.6441 25.6576 30.5049 22.9669 31.4809 15.6059C32.2126 14.2484 33.1992 13.1722 34.4407 12.3771ZM36.0551 14.5297C37.5482 14.4761 38.8039 15.1936 39.822 16.6822C37.8488 17.3997 35.8757 17.3997 33.9025 16.6822C34.6379 15.9611 35.3554 15.2436 36.0551 14.5297Z" fill="#016341"/>
<path opacity="0.863" fill-rule="evenodd" clip-rule="evenodd" d="M47.3559 12.3772C52.8702 11.5366 55.5609 13.7788 55.428 19.1039C52.5579 19.2832 49.6878 19.4627 46.8178 19.642C48.9643 22.4396 51.2065 22.7086 53.5445 20.4492C55.1331 21.3602 55.2224 22.3468 53.8136 23.409C50.5266 24.8133 47.5668 24.3649 44.9343 22.0636C43.318 18.1541 44.1252 14.9253 47.3559 12.3772ZM48.9703 14.5297C50.4635 14.4761 51.7191 15.1936 52.7373 16.6823C50.7641 17.3998 48.791 17.3998 46.8178 16.6823C47.3821 15.759 48.0996 15.0416 48.9703 14.5297Z" fill="#016341"/>
<path opacity="0.845" fill-rule="evenodd" clip-rule="evenodd" d="M69.9576 12.9153C70.7837 12.2222 71.6802 12.2222 72.6483 12.9153C73.6875 15.4053 74.6744 17.9166 75.6081 20.4492C76.5218 17.8159 77.5082 15.2148 78.5678 12.6462C79.4353 12.2586 80.2425 12.3483 80.9894 12.9153C81.9785 15.2519 82.9655 17.5838 83.9492 19.911C84.9329 17.5838 85.9198 15.2519 86.9089 12.9153C87.6386 12.4416 88.4458 12.2622 89.3305 12.3771C88.2962 16.2427 86.9509 20.0096 85.2945 23.678C84.3802 24.1656 83.3933 24.345 82.3348 24.2161C81.8865 21.7062 80.9894 19.3743 79.6441 17.2204C78.7486 19.3677 77.8516 21.5202 76.9534 23.678C76.0563 24.3955 75.1598 24.3955 74.2627 23.678C72.7081 20.0796 71.2728 16.492 69.9576 12.9153Z" fill="#016341"/>
<path fill-rule="evenodd" clip-rule="evenodd" d="M9.68642 11.3008C10.863 12.013 11.6702 13.0892 12.108 14.5297C12.8242 16.8578 13.4521 19.1898 13.9915 21.5254C10.2381 23.0207 7.45779 21.9444 5.65041 18.2966C5.06703 14.7944 6.41235 12.4624 9.68642 11.3008Z" fill="#15B791"/>
<path opacity="0.873" fill-rule="evenodd" clip-rule="evenodd" d="M127 8.07204C127 12.9153 127 17.7585 127 22.6017C124.739 24.1413 122.227 24.5897 119.466 23.947C116.182 21.7379 115.375 18.7782 117.044 15.0678C119.115 12.554 121.716 11.8365 124.847 12.9153C125.377 11.3395 125.556 9.72514 125.386 8.07204C125.924 8.07204 126.462 8.07204 127 8.07204ZM120.542 15.0678C121.952 14.9234 123.297 15.1028 124.578 15.6059C126.38 18.6515 125.573 20.804 122.157 22.0636C119.954 21.7862 118.877 20.5305 118.928 18.2966C118.91 16.8966 119.448 15.8203 120.542 15.0678Z" fill="#016341"/>
<path opacity="0.799" fill-rule="evenodd" clip-rule="evenodd" d="M60.8093 12.3772C63.9768 11.7548 66.5776 12.6517 68.6123 15.0678C69.4227 17.8906 69.6019 20.7607 69.1504 23.678C68.2362 24.1656 67.2492 24.345 66.1907 24.2162C66.28 21.3405 66.1902 18.4704 65.9216 15.606C64.1103 14.0924 62.4959 14.2718 61.0784 16.1441C60.8992 18.6554 60.7195 21.1667 60.5403 23.678C59.626 24.1656 58.639 24.345 57.5805 24.2162C57.3863 20.9371 57.6553 17.7083 58.3877 14.5297C59.1395 13.6847 59.9467 12.9672 60.8093 12.3772Z" fill="#016341"/>
<path opacity="0.745" fill-rule="evenodd" clip-rule="evenodd" d="M26.9068 12.3771C28.1624 12.3771 29.4181 12.3771 30.6737 12.3771C30.7581 13.1162 30.6684 13.8337 30.4047 14.5297C29.5309 14.5673 28.5444 14.8363 27.4449 15.3369C27.1082 15.7407 26.8391 16.1892 26.6377 16.6822C26.3691 19.1871 26.2794 21.6984 26.3686 24.2161C25.4717 24.2161 24.5749 24.2161 23.678 24.2161C23.5886 21.3405 23.6783 18.4704 23.947 15.6059C24.6787 14.2484 25.6653 13.1722 26.9068 12.3771Z" fill="#016341"/>
<path opacity="0.921" fill-rule="evenodd" clip-rule="evenodd" d="M93.6356 12.3772C100.178 12.1907 102.6 15.2402 100.9 21.5255C97.3127 25.1131 93.7255 25.1131 90.1378 21.5255C88.6267 17.3827 89.7923 14.3333 93.6356 12.3772ZM95.7882 14.5297C99.7365 16.6809 100.006 19.1922 96.5954 22.0636C92.8387 21.8698 91.5832 19.8966 92.8284 16.1441C93.838 15.5475 94.8244 15.0094 95.7882 14.5297Z" fill="#016341"/>
<path opacity="0.962" fill-rule="evenodd" clip-rule="evenodd" d="M106.551 12.3771C113.079 11.816 115.68 14.6861 114.354 20.9873C112.643 24.0728 110.042 25.0593 106.551 23.947C102.826 21.9837 101.84 19.024 103.591 15.0678C104.522 14.0443 105.509 13.1474 106.551 12.3771ZM107.089 15.0678C110.06 14.2981 111.854 15.3744 112.47 18.2966C110.946 22.2472 108.704 22.7854 105.744 19.911C105.166 17.9739 105.615 16.3594 107.089 15.0678Z" fill="#016341"/>
</svg>
