<svg width="100%" height="100%" viewBox="0 0 692.33 178.9" class="greenwood-logo-full">
  <defs>
    <style>
      .shading-dark {
        fill: #00b68f;
      }

      .shading-light {
        fill: #1ad6a9;
      }

      .capital {
        fill: #efefef;
      }
    </style>
  </defs>
  <g>
    <g>
      <g>
        <path class="shading-dark" d="M81.32,142.25c-1.07.63-1.58,1.9-1.26,3.09,5.15,19.17-7.94,33.56,4.33,33.56,10.15,0,16.65-.48,16.65-14.91,0-10.63-2.06-25.06-5.08-27.12-2.32-1.59-10.84,3.12-14.64,5.38Z"/>
        <path class="shading-light" d="M87.57,172.18c-.87.02-1.52-.8-1.32-1.64.13-.53.26-1.06.38-1.54,1.35-5.44,1.62-16.56-.67-25.59,2.65-1.11,6.78-2.61,8.45-3.15,1.43,4.2,2.65,15.98,2.65,23.73,0,4.62-1.04,6.8-2.01,7.29-1.29.65-4.43.84-7.47.9Z"/>
      </g>
      <path class="shading-dark" d="M20.78.05c.35-2.48-43.96,89.96-4.22,131.69,38.68,40.62,107.46,7.08,110.82-31.56C130.45,64.79,101.48,11.12,20.78.05Z"/>
      <path class="shading-light" d="M119.87,99.53c-.9,10.31-9.73,30.5-34.22,40.27C76.61,67.13,38.01,20.47,26.37,8.54c39.28,6.82,61.55,23.92,73.47,37.44,14.07,15.96,21.56,35.98,20.03,53.55Z"/>
      <g class="letters">
        <g>
          <path d="M219.26,71.98c-4.43-2.55-9.54-3.83-15.33-3.83s-10.84,1.3-15.38,3.89c-4.55,2.59-8.11,6.18-10.71,10.76-2.59,4.58-3.89,9.84-3.89,15.78s1.33,11.2,4,15.78c2.67,4.58,6.42,8.19,11.27,10.82,4.85,2.63,10.46,3.94,16.85,3.94,4.96,0,9.45-.83,13.47-2.48,4.02-1.65,7.38-4.06,10.09-7.21l-5.97-6.99c-2.18,2.41-4.72,4.21-7.61,5.41-2.89,1.2-6.11,1.8-9.64,1.8-4.28,0-8.08-.86-11.38-2.59-3.31-1.73-5.88-4.15-7.72-7.27-1.36-2.3-2.21-4.84-2.57-7.61h48.49c.07-.52.13-1.09.17-1.69.04-.6.06-1.13.06-1.58,0-6.16-1.26-11.55-3.78-16.17-2.52-4.62-5.99-8.21-10.42-10.76ZM193.9,79.81c2.93-1.69,6.27-2.54,10.03-2.54s7.19.85,10.09,2.54c2.89,1.69,5.16,4.04,6.82,7.04,1.25,2.28,2.01,4.8,2.27,7.55h-38.39c.32-2.74,1.09-5.24,2.31-7.49,1.65-3.04,3.94-5.41,6.87-7.1Z"/>
          <path d="M298.66,82.74c-2.52-4.62-5.99-8.21-10.42-10.76-4.43-2.55-9.54-3.83-15.33-3.83s-10.84,1.3-15.38,3.89c-4.55,2.59-8.11,6.18-10.71,10.76-2.59,4.58-3.89,9.84-3.89,15.78s1.33,11.2,4,15.78c2.67,4.58,6.42,8.19,11.27,10.82,4.85,2.63,10.46,3.94,16.85,3.94,4.96,0,9.45-.83,13.47-2.48,4.02-1.65,7.38-4.06,10.09-7.21l-5.97-6.99c-2.18,2.41-4.72,4.21-7.61,5.41-2.89,1.2-6.11,1.8-9.64,1.8-4.28,0-8.08-.86-11.38-2.59-3.31-1.73-5.88-4.15-7.72-7.27-1.36-2.3-2.21-4.84-2.57-7.61h48.49c.07-.52.13-1.09.17-1.69.04-.6.06-1.13.06-1.58,0-6.16-1.26-11.55-3.78-16.17ZM262.87,79.81c2.93-1.69,6.27-2.54,10.03-2.54s7.19.85,10.09,2.54c2.89,1.69,5.16,4.04,6.82,7.04,1.25,2.28,2.01,4.8,2.27,7.55h-38.39c.32-2.74,1.09-5.24,2.31-7.49,1.65-3.04,3.94-5.41,6.87-7.1Z"/>
        </g>
        <polygon points="473.74 68.71 455.94 116.44 438.24 68.71 429.11 68.71 411.07 116.29 393.72 68.71 383.46 68.71 405.67 128.44 416.03 128.44 433.49 83.19 450.75 128.44 461.12 128.44 483.43 68.71 473.74 68.71"/>
        <path d="M518.25,129.12c-5.94,0-11.25-1.31-15.95-3.94-4.7-2.63-8.4-6.25-11.1-10.88-2.71-4.62-4.06-9.86-4.06-15.72s1.35-11.18,4.06-15.72c2.71-4.55,6.38-8.13,11.04-10.76,4.66-2.63,9.99-3.94,16-3.94s11.25,1.3,15.95,3.89c4.7,2.59,8.38,6.18,11.05,10.76,2.67,4.58,4,9.84,4,15.78s-1.33,11.2-4,15.78c-2.67,4.58-6.35,8.19-11.05,10.82-4.7,2.63-10.01,3.94-15.95,3.94ZM518.25,119.65c3.83,0,7.27-.86,10.31-2.59,3.04-1.73,5.43-4.19,7.16-7.38,1.73-3.19,2.59-6.89,2.59-11.1s-.86-7.98-2.59-11.1c-1.73-3.12-4.11-5.54-7.16-7.27-3.04-1.73-6.48-2.59-10.31-2.59s-7.25.86-10.26,2.59c-3.01,1.73-5.41,4.15-7.21,7.27-1.8,3.12-2.71,6.82-2.71,11.1s.9,7.91,2.71,11.1c1.8,3.19,4.21,5.65,7.21,7.38,3,1.73,6.42,2.59,10.26,2.59Z"/>
        <path d="M589.82,129.12c-5.94,0-11.25-1.31-15.95-3.94-4.7-2.63-8.4-6.25-11.1-10.88-2.71-4.62-4.06-9.86-4.06-15.72s1.35-11.18,4.06-15.72c2.71-4.55,6.38-8.13,11.04-10.76,4.66-2.63,9.99-3.94,16-3.94s11.25,1.3,15.95,3.89c4.7,2.59,8.38,6.18,11.05,10.76,2.67,4.58,4,9.84,4,15.78s-1.33,11.2-4,15.78c-2.67,4.58-6.35,8.19-11.05,10.82-4.7,2.63-10.01,3.94-15.95,3.94ZM589.82,119.65c3.83,0,7.27-.86,10.31-2.59,3.04-1.73,5.43-4.19,7.16-7.38,1.73-3.19,2.59-6.89,2.59-11.1s-.86-7.98-2.59-11.1c-1.73-3.12-4.11-5.54-7.16-7.27-3.04-1.73-6.48-2.59-10.31-2.59s-7.25.86-10.26,2.59c-3.01,1.73-5.41,4.15-7.21,7.27-1.8,3.12-2.71,6.82-2.71,11.1s.9,7.91,2.71,11.1c1.8,3.19,4.21,5.65,7.21,7.38,3,1.73,6.42,2.59,10.26,2.59Z"/>
        <path d="M681.51,44.82v30.06c-1.31-1.05-2.71-2-4.23-2.84-4.7-2.59-10.01-3.89-15.95-3.89s-11.35,1.32-16,3.94c-4.66,2.63-8.34,6.22-11.04,10.76-2.71,4.55-4.06,9.79-4.06,15.72s1.35,11.1,4.06,15.72c2.71,4.62,6.4,8.25,11.1,10.88,4.69,2.63,10.01,3.94,15.95,3.94s11.25-1.31,15.95-3.94c4.7-2.63,8.38-6.24,11.05-10.82,2.54-4.37,3.86-9.36,3.98-14.96h.02v-54.58h-10.82ZM678.81,109.68c-1.73,3.19-4.11,5.65-7.16,7.38-3.04,1.73-6.48,2.59-10.31,2.59s-7.25-.86-10.26-2.59c-3.01-1.73-5.41-4.19-7.21-7.38-1.8-3.19-2.71-6.89-2.71-11.1s.9-7.98,2.71-11.1c1.8-3.12,4.21-5.54,7.21-7.27,3-1.73,6.42-2.59,10.26-2.59s7.27.86,10.31,2.59c3.04,1.73,5.43,4.15,7.16,7.27,1.73,3.12,2.59,6.82,2.59,11.1s-.86,7.91-2.59,11.1Z"/>
        <path d="M365.53,73.83c-1.17-.9-2.43-1.72-3.77-2.46-4.7-2.59-10.01-3.89-15.95-3.89s-11.34,1.32-16,3.95c-1.29.73-2.51,1.53-3.65,2.41-.5.38-1.06.92-1.66,1.54-4.63,4.88-7.11,11.41-7.11,18.14v17.49s0,17.41,0,17.41h10.82v-36.14c0-5.25,2.79-10.1,7.33-12.74h0c3.01-1.73,6.43-2.59,10.26-2.59s7.27.86,10.31,2.59c.03.02.06.03.09.05,4.44,2.55,7.05,7.41,7.05,12.53v36.29h10.82v-35.32c0-6.57-2.41-12.96-6.92-17.74-.58-.62-1.14-1.15-1.63-1.52Z"/>
        <path d="M166.8,67.67v9.59c-1.22-.22-2.47-.31-3.79-.31-3.83,0-7.25.86-10.26,2.59-4.55,2.63-7.33,7.48-7.33,12.74v36.13h-10.82v-34.91c0-6.72,2.48-13.25,7.11-18.13.59-.63,1.15-1.16,1.66-1.55,1.14-.88,2.36-1.68,3.65-2.41,4.66-2.62,9.99-3.95,16-3.95,1.29,0,2.55.06,3.79.19Z"/>
      </g>
      <path class="capital" d="M65.72,129.29c-6.07,0-11.65-.99-16.75-2.98-5.1-1.98-9.52-4.79-13.26-8.43-3.75-3.63-6.67-7.89-8.77-12.76-2.1-4.87-3.15-10.23-3.15-16.07s1.05-11.2,3.15-16.07c2.1-4.87,5.04-9.12,8.82-12.76,3.78-3.63,8.22-6.44,13.32-8.43,5.1-1.98,10.71-2.98,16.86-2.98s11.91,1.01,17.08,3.03c5.17,2.02,9.55,5.06,13.15,9.1l-6.97,6.97c-3.22-3.15-6.73-5.45-10.51-6.91-3.78-1.46-7.89-2.19-12.31-2.19s-8.67.75-12.53,2.25c-3.86,1.5-7.19,3.6-10,6.29s-4.98,5.9-6.52,9.61c-1.54,3.71-2.3,7.74-2.3,12.08s.77,8.26,2.3,11.97c1.53,3.71,3.71,6.93,6.52,9.67,2.81,2.74,6.13,4.85,9.95,6.35,3.82,1.5,7.98,2.25,12.48,2.25,4.2,0,8.22-.66,12.08-1.97,3.86-1.31,7.44-3.5,10.73-6.57l6.41,8.54c-3.9,3.3-8.45,5.79-13.66,7.47-5.21,1.69-10.58,2.53-16.13,2.53ZM84.72,117.83v-29.22h10.79v30.68l-10.79-1.46Z"/>
    </g>
  </g>
</svg>