<svg width="100%" height="100%" viewBox="0 0 150 180" fill="#00b68f">
  <defs>
    <style>
      .shading {
        fill: #1ad6a9;
      }

      .text {
        fill: #fff;
      }
    </style>
  </defs>
  <g>
    <g>
      <g>
        <path d="M81.32,142.25c-1.07.63-1.58,1.9-1.26,3.09,5.15,19.17-7.94,33.56,4.33,33.56,10.15,0,16.65-.48,16.65-14.91,0-10.63-2.06-25.06-5.08-27.12-2.32-1.59-10.84,3.12-14.64,5.38Z"/>
        <path class="shading" d="M87.57,172.18c-.87.02-1.52-.8-1.32-1.64.13-.53.26-1.06.38-1.54,1.35-5.44,1.62-16.56-.67-25.59,2.65-1.11,6.78-2.61,8.45-3.15,1.43,4.2,2.65,15.98,2.65,23.73,0,4.62-1.04,6.8-2.01,7.29-1.29.65-4.43.84-7.47.9Z"/>
      </g>
      <path d="M20.78.05c.35-2.48-43.96,89.96-4.22,131.69,38.68,40.62,107.46,7.08,110.82-31.56C130.45,64.79,101.48,11.12,20.78.05Z"/>
      <path class="shading" d="M119.87,99.53c-.9,10.31-9.73,30.5-34.22,40.27C76.61,67.13,38.01,20.47,26.37,8.54c39.28,6.82,61.55,23.92,73.47,37.44,14.07,15.96,21.56,35.98,20.03,53.55Z"/>
      <path class="text" d="M65.72,129.29c-6.07,0-11.65-.99-16.75-2.98-5.1-1.98-9.52-4.79-13.26-8.43-3.75-3.63-6.67-7.89-8.77-12.76-2.1-4.87-3.15-10.23-3.15-16.07s1.05-11.2,3.15-16.07c2.1-4.87,5.04-9.12,8.82-12.76,3.78-3.63,8.22-6.44,13.32-8.43,5.1-1.98,10.71-2.98,16.86-2.98s11.91,1.01,17.08,3.03c5.17,2.02,9.55,5.06,13.15,9.1l-6.97,6.97c-3.22-3.15-6.73-5.45-10.51-6.91-3.78-1.46-7.89-2.19-12.31-2.19s-8.67.75-12.53,2.25c-3.86,1.5-7.19,3.6-10,6.29-2.81,2.7-4.98,5.9-6.52,9.61-1.54,3.71-2.3,7.74-2.3,12.08s.77,8.26,2.3,11.97c1.53,3.71,3.71,6.93,6.52,9.67,2.81,2.74,6.13,4.85,9.95,6.35,3.82,1.5,7.98,2.25,12.48,2.25,4.2,0,8.22-.66,12.08-1.97,3.86-1.31,7.44-3.5,10.73-6.57l6.41,8.54c-3.9,3.3-8.45,5.79-13.66,7.47-5.21,1.69-10.58,2.53-16.13,2.53ZM84.72,117.83v-29.22h10.79v30.68l-10.79-1.46Z"/>
    </g>
  </g>
</svg>