<svg width="723" height="564" viewBox="0 0 723 564" fill="none" xmlns="http://www.w3.org/2000/svg">
<g opacity="0.3">
<mask id="mask0_1419_1155" style="mask-type:alpha" maskUnits="userSpaceOnUse" x="56" y="-76" width="679" height="490">
<path d="M734.635 160.104C734.732 162.072 734.797 164.046 734.83 166.026L734.33 166.034C734.346 167.021 734.354 168.01 734.354 169C734.354 169.99 734.346 170.978 734.33 171.965L734.83 171.974C734.797 173.954 734.732 175.928 734.635 177.896L734.135 177.871C734.038 179.84 733.908 181.803 733.747 183.76L734.245 183.801C734.082 185.773 733.887 187.74 733.66 189.699L733.163 189.642C732.936 191.598 732.678 193.548 732.387 195.492L732.882 195.566C732.59 197.521 732.266 199.47 731.91 201.412L731.418 201.322C731.064 203.259 730.678 205.188 730.26 207.111L730.749 207.217C730.33 209.147 729.88 211.07 729.399 212.985L728.914 212.863C728.435 214.773 727.924 216.675 727.383 218.569L727.864 218.707C727.323 220.604 726.751 222.493 726.149 224.373L725.672 224.221C725.072 226.096 724.442 227.964 723.782 229.823L724.253 229.99C723.594 231.847 722.906 233.695 722.188 235.535L721.722 235.353C721.007 237.187 720.263 239.013 719.49 240.83L719.95 241.026C719.179 242.837 718.38 244.64 717.552 246.434L717.098 246.224C716.274 248.012 715.422 249.79 714.542 251.559L714.99 251.781C714.114 253.544 713.21 255.297 712.28 257.04L711.839 256.805C710.912 258.54 709.96 260.266 708.981 261.982L709.415 262.23C708.439 263.94 707.438 265.64 706.41 267.331L705.983 267.071C704.962 268.751 703.916 270.42 702.845 272.08L703.265 272.351C702.197 274.006 701.103 275.651 699.985 277.286L699.573 277.004C698.465 278.625 697.332 280.235 696.176 281.835L696.582 282.128C695.427 283.727 694.248 285.315 693.046 286.893L692.648 286.59C691.46 288.149 690.249 289.698 689.015 291.237L689.405 291.55C688.169 293.091 686.911 294.622 685.63 296.141L685.248 295.819C683.986 297.316 682.703 298.802 681.399 300.278L681.773 300.609C680.466 302.088 679.138 303.555 677.788 305.012L677.422 304.672C676.089 306.11 674.737 307.538 673.364 308.954L673.723 309.302C672.351 310.716 670.96 312.12 669.548 313.513L669.197 313.157C667.799 314.536 666.381 315.905 664.943 317.263L665.286 317.626C663.857 318.977 662.408 320.316 660.941 321.644L660.606 321.273C659.145 322.595 657.666 323.906 656.168 325.205L656.496 325.583C655.014 326.869 653.514 328.144 651.996 329.407L651.676 329.023C650.161 330.285 648.628 331.535 647.078 332.774L647.391 333.164C645.857 334.389 644.307 335.603 642.741 336.806L642.436 336.409C640.876 337.607 639.299 338.793 637.706 339.968L638.002 340.371C636.418 341.539 634.817 342.696 633.2 343.842L632.911 343.434C631.31 344.569 629.693 345.692 628.061 346.804L628.342 347.217C626.709 348.329 625.06 349.43 623.397 350.52L623.123 350.101C621.485 351.174 619.833 352.235 618.166 353.284L618.432 353.707C616.763 354.758 615.079 355.797 613.381 356.825L613.122 356.397C611.442 357.414 609.748 358.419 608.04 359.413L608.291 359.845C606.591 360.835 604.877 361.812 603.15 362.778L602.906 362.342C601.185 363.305 599.45 364.256 597.702 365.196L597.938 365.636C596.211 366.565 594.47 367.482 592.717 368.387L592.488 367.943C590.737 368.847 588.974 369.739 587.199 370.62L587.421 371.067C585.658 371.942 583.884 372.804 582.097 373.655L581.882 373.204C580.109 374.048 578.323 374.881 576.527 375.702L576.735 376.157C574.936 376.978 573.126 377.788 571.305 378.586L571.104 378.128C569.311 378.914 567.506 379.689 565.69 380.451L565.884 380.912C564.066 381.676 562.237 382.427 560.398 383.167L560.212 382.703C558.386 383.437 556.549 384.16 554.703 384.871L554.882 385.337C553.048 386.043 551.203 386.737 549.349 387.419L549.177 386.95C547.325 387.631 545.463 388.301 543.591 388.958L543.757 389.43C541.903 390.081 540.04 390.72 538.168 391.348L538.009 390.874C536.144 391.498 534.27 392.111 532.386 392.712L532.538 393.189C530.656 393.789 528.765 394.378 526.864 394.955L526.719 394.476C524.843 395.045 522.959 395.603 521.066 396.148L521.204 396.629C519.309 397.175 517.405 397.709 515.493 398.231L515.361 397.749C513.462 398.267 511.554 398.774 509.639 399.268L509.764 399.753C507.86 400.244 505.949 400.723 504.03 401.191L503.912 400.705C501.995 401.172 500.071 401.627 498.139 402.07L498.25 402.557C496.333 402.996 494.408 403.424 492.476 403.839L492.37 403.351C490.448 403.764 488.519 404.165 486.583 404.554L486.681 405.044C484.743 405.434 482.798 405.811 480.846 406.177L480.754 405.685C478.825 406.046 476.89 406.395 474.949 406.732L475.034 407.224C473.093 407.561 471.145 407.886 469.191 408.198L469.112 407.705C467.163 408.017 465.206 408.316 463.244 408.604L463.317 409.099C461.374 409.383 459.425 409.656 457.471 409.916L457.405 409.421C455.453 409.681 453.494 409.929 451.53 410.165L451.59 410.662C449.63 410.897 447.664 411.121 445.692 411.332L445.639 410.835C443.688 411.044 441.731 411.241 439.769 411.426L439.816 411.924C437.851 412.109 435.882 412.282 433.907 412.443L433.866 411.945C431.902 412.105 429.933 412.252 427.959 412.388L427.994 412.887C426.032 413.022 424.066 413.144 422.096 413.255L422.068 412.756C420.099 412.866 418.126 412.964 416.148 413.051L416.169 413.55C414.2 413.636 412.226 413.709 410.247 413.771L410.232 413.271C408.269 413.332 406.301 413.381 404.329 413.417L404.338 413.917C402.364 413.954 400.386 413.978 398.404 413.991L398.4 413.491C397.41 413.497 396.419 413.5 395.427 413.5C394.435 413.5 393.444 413.497 392.454 413.491L392.451 413.991C390.469 413.978 388.49 413.954 386.516 413.917L386.526 413.417C384.554 413.381 382.586 413.332 380.622 413.271L380.607 413.771C378.628 413.709 376.654 413.636 374.685 413.55L374.707 413.051C372.729 412.964 370.755 412.866 368.787 412.756L368.759 413.255C366.788 413.144 364.822 413.022 362.861 412.887L362.895 412.388C360.921 412.252 358.952 412.105 356.988 411.945L356.947 412.443C354.973 412.282 353.003 412.109 351.039 411.924L351.086 411.426C349.124 411.241 347.167 411.044 345.215 410.835L345.162 411.332C343.19 411.121 341.224 410.897 339.264 410.662L339.324 410.165C337.36 409.929 335.402 409.681 333.449 409.421L333.383 409.916C331.429 409.656 329.48 409.383 327.538 409.099L327.61 408.604C325.648 408.316 323.692 408.017 321.742 407.705L321.663 408.198C319.709 407.886 317.761 407.561 315.82 407.224L315.906 406.732C313.964 406.395 312.029 406.046 310.101 405.685L310.009 406.177C308.057 405.811 306.111 405.434 304.173 405.044L304.271 404.554C302.335 404.165 300.406 403.764 298.484 403.351L298.379 403.839C296.447 403.424 294.522 402.996 292.604 402.557L292.716 402.07C290.784 401.627 288.859 401.172 286.943 400.705L286.824 401.191C284.905 400.724 282.994 400.244 281.091 399.753L281.216 399.268C279.3 398.774 277.393 398.267 275.493 397.749L275.361 398.231C273.449 397.709 271.546 397.175 269.65 396.629L269.789 396.148C267.896 395.603 266.011 395.045 264.135 394.476L263.99 394.955C262.09 394.378 260.198 393.789 258.316 393.189L258.468 392.712C256.585 392.111 254.711 391.498 252.846 390.874L252.687 391.348C250.814 390.72 248.951 390.081 247.097 389.43L247.263 388.958C245.391 388.301 243.53 387.632 241.678 386.95L241.505 387.419C239.651 386.737 237.807 386.043 235.972 385.337L236.152 384.871C234.305 384.16 232.469 383.438 230.643 382.703L230.456 383.167C228.617 382.427 226.788 381.676 224.97 380.912L225.164 380.451C223.349 379.689 221.544 378.914 219.75 378.128L219.549 378.586C217.728 377.788 215.918 376.979 214.12 376.157L214.328 375.702C212.531 374.881 210.746 374.048 208.972 373.204L208.757 373.655C206.971 372.804 205.196 371.942 203.433 371.068L203.655 370.62C201.88 369.739 200.117 368.847 198.367 367.943L198.137 368.387C196.384 367.482 194.644 366.565 192.916 365.636L193.153 365.196C191.405 364.256 189.67 363.305 187.948 362.342L187.704 362.778C185.977 361.812 184.263 360.835 182.563 359.845L182.814 359.413C181.106 358.419 179.412 357.414 177.732 356.397L177.473 356.825C175.775 355.797 174.091 354.758 172.422 353.707L172.689 353.284C171.022 352.235 169.369 351.174 167.732 350.101L167.458 350.52C165.794 349.43 164.145 348.329 162.512 347.217L162.793 346.804C161.161 345.692 159.545 344.569 157.943 343.434L157.654 343.842C156.038 342.696 154.437 341.539 152.852 340.371L153.149 339.968C151.555 338.793 149.978 337.607 148.418 336.409L148.114 336.806C146.547 335.603 144.997 334.389 143.464 333.164L143.776 332.774C142.226 331.535 140.693 330.285 139.178 329.023L138.858 329.408C137.341 328.144 135.84 326.869 134.358 325.583L134.686 325.205C133.188 323.906 131.709 322.595 130.249 321.273L129.913 321.644C128.446 320.316 126.997 318.977 125.568 317.627L125.911 317.263C124.474 315.905 123.056 314.536 121.657 313.157L121.306 313.513C119.895 312.12 118.503 310.717 117.132 309.302L117.491 308.954C116.118 307.538 114.765 306.11 113.433 304.672L113.066 305.012C111.716 303.555 110.388 302.088 109.081 300.609L109.456 300.278C108.151 298.802 106.868 297.316 105.607 295.819L105.224 296.141C103.944 294.622 102.685 293.091 101.449 291.55L101.839 291.237C100.606 289.698 99.3945 288.149 98.2064 286.59L97.8087 286.893C96.6065 285.315 95.4277 283.727 94.2726 282.128L94.6778 281.835C93.5218 280.235 92.3896 278.625 91.2816 277.004L90.8689 277.286C89.751 275.651 88.6577 274.006 87.5893 272.351L88.0093 272.08C86.9381 270.42 85.892 268.751 84.8713 267.071L84.4441 267.331C83.4167 265.641 82.415 263.94 81.4394 262.23L81.8737 261.982C80.8946 260.266 79.9419 258.541 79.0158 256.805L78.5747 257.041C77.6442 255.297 76.7406 253.544 75.8642 251.781L76.3118 251.559C75.4323 249.79 74.5802 248.012 73.7559 246.224L73.3018 246.434C72.4747 244.64 71.6755 242.837 70.9047 241.026L71.3648 240.83C70.5918 239.013 69.8473 237.188 69.1318 235.353L68.666 235.535C67.9485 233.695 67.2601 231.847 66.601 229.99L67.0722 229.823C66.4124 227.964 65.7821 226.097 65.1817 224.221L64.7055 224.373C64.1036 222.493 63.5316 220.604 62.99 218.707L63.4708 218.57C62.9301 216.675 62.4197 214.773 61.9401 212.864L61.4551 212.985C60.9742 211.07 60.524 209.147 60.1051 207.217L60.5938 207.111C60.1766 205.189 59.7905 203.259 59.4359 201.322L58.944 201.412C58.5885 199.47 58.2644 197.522 57.9723 195.566L58.4668 195.492C58.1765 193.549 57.9178 191.599 57.691 189.642L57.1943 189.699C56.9672 187.74 56.7721 185.774 56.6092 183.801L57.1075 183.76C56.946 181.803 56.8164 179.84 56.719 177.872L56.2196 177.896C56.1223 175.928 56.0571 173.954 56.0245 171.974L56.5244 171.966C56.5082 170.979 56.5 169.99 56.5 169C56.5 168.01 56.5082 167.022 56.5244 166.035L56.0245 166.026C56.0571 164.046 56.1223 162.072 56.2196 160.104L56.719 160.129C56.8163 158.16 56.946 156.197 57.1075 154.24L56.6092 154.199C56.772 152.227 56.9672 150.26 57.1943 148.301L57.691 148.358C57.9178 146.402 58.1765 144.452 58.4668 142.508L57.9723 142.434C58.2644 140.479 58.5885 138.53 58.944 136.588L59.4358 136.678C59.7905 134.741 60.1766 132.812 60.5937 130.889L60.1051 130.783C60.524 128.853 60.9741 126.93 61.4551 125.015L61.94 125.137C62.4196 123.227 62.93 121.325 63.4708 119.431L62.99 119.293C63.5316 117.396 64.1035 115.507 64.7055 113.627L65.1817 113.779C65.782 111.904 66.4123 110.036 67.0721 108.177L66.6009 108.01C67.26 106.153 67.9485 104.305 68.6659 102.465L69.1317 102.647C69.8472 100.813 70.5917 98.9869 71.3647 97.1702L70.9046 96.9744C71.6755 95.1627 72.4746 93.3599 73.3018 91.5664L73.7558 91.7758C74.5801 89.9884 75.4322 88.2102 76.3118 86.4414L75.8641 86.2188C76.7405 84.4563 77.6441 82.7031 78.5746 80.9596L79.0157 81.195C79.9418 79.4596 80.8946 77.7338 81.8736 76.0177L81.4393 75.77C82.4149 74.0599 83.4166 72.3596 84.4439 70.6692L84.8712 70.9289C85.8919 69.2495 86.938 67.5798 88.0092 65.9203L87.5892 65.6492C88.6576 63.9939 89.7509 62.3487 90.8688 60.7138L91.2815 60.996C92.3895 59.3755 93.5217 57.7651 94.6777 56.165L94.2724 55.8722C95.4275 54.2734 96.6064 52.685 97.8086 51.1071L98.2063 51.4102C99.3944 49.8507 100.606 48.3017 101.839 46.7631L101.449 46.4504C102.685 44.9091 103.943 43.3784 105.224 41.8587L105.607 42.1809C106.868 40.684 108.151 39.1977 109.455 37.7221L109.081 37.3909C110.388 35.9124 111.716 34.4447 113.066 32.988L113.433 33.3278C114.765 31.8897 116.118 30.4624 117.491 29.0461L117.132 28.6981C118.503 27.2835 119.894 25.8799 121.306 24.4875L121.657 24.8434C123.056 23.4636 124.474 22.0948 125.911 20.7371L125.568 20.3736C126.997 19.0233 128.446 17.6841 129.913 16.3561L130.249 16.7268C131.709 15.4049 133.188 14.0942 134.686 12.7948L134.358 12.4172C135.84 11.1311 137.34 9.85616 138.858 8.59252L139.178 8.97677C140.693 7.71529 142.226 6.4651 143.776 5.22639L143.464 4.83579C144.997 3.61065 146.547 2.39674 148.113 1.19425L148.418 1.59088C149.978 0.393135 151.555 -0.793282 153.149 -1.96816L152.852 -2.37058C154.437 -3.53916 156.038 -4.69634 157.654 -5.84193L157.943 -5.43397C159.544 -6.5686 161.161 -7.69186 162.793 -8.80356L162.512 -9.2168C164.145 -10.3294 165.794 -11.4304 167.458 -12.5196L167.731 -12.1013C169.369 -13.1736 171.022 -14.2345 172.688 -15.2838L172.422 -15.707C174.091 -16.7579 175.775 -17.7972 177.473 -18.8247L177.732 -18.397C179.412 -19.414 181.106 -20.4194 182.814 -21.4132L182.563 -21.8453C184.263 -22.8346 185.977 -23.8123 187.704 -24.7782L187.948 -24.3418C189.67 -25.3048 191.405 -26.2561 193.153 -27.1956L192.916 -27.636C194.644 -28.5646 196.384 -29.4817 198.137 -30.3869L198.367 -29.9427C200.117 -30.8467 201.88 -31.7391 203.655 -32.6195L203.433 -33.0674C205.196 -33.9417 206.971 -34.8043 208.757 -35.655L208.972 -35.2036C210.746 -36.0481 212.531 -36.8809 214.327 -37.7019L214.12 -38.1567C215.918 -38.9785 217.728 -39.7884 219.549 -40.5863L219.75 -40.1283C221.544 -40.9143 223.348 -41.6886 225.164 -42.4511L224.97 -42.9121C226.788 -43.6756 228.617 -44.4273 230.456 -45.1669L230.642 -44.703C232.469 -45.4374 234.305 -46.16 236.152 -46.8706L235.972 -47.3373C237.806 -48.0432 239.651 -48.7372 241.505 -49.4194L241.678 -48.9501C243.53 -49.6314 245.391 -50.3008 247.263 -50.9581L247.097 -51.4299C248.951 -52.081 250.814 -52.7203 252.687 -53.3477L252.845 -52.8736C254.71 -53.4984 256.585 -54.1113 258.468 -54.7123L258.316 -55.1886C260.198 -55.7893 262.09 -56.378 263.99 -56.9546L264.135 -56.4761C266.011 -57.0454 267.896 -57.6028 269.789 -58.1482L269.65 -58.6287C271.546 -59.1748 273.449 -59.7089 275.361 -60.2309L275.493 -59.7486C277.392 -60.2672 279.3 -60.7739 281.216 -61.2684L281.091 -61.7526C282.994 -62.244 284.905 -62.7235 286.824 -63.1909L286.942 -62.7051C288.859 -63.172 290.784 -63.6269 292.715 -64.0696L292.604 -64.557C294.521 -64.9965 296.446 -65.4239 298.379 -65.8394L298.484 -65.3505C300.406 -65.7637 302.335 -66.165 304.271 -66.5542L304.173 -67.0444C306.111 -67.434 308.056 -67.8114 310.009 -68.1767L310.101 -67.6852C312.029 -68.046 313.964 -68.3949 315.905 -68.7317L315.82 -69.2243C317.761 -69.5611 319.709 -69.8858 321.663 -70.1984L321.742 -69.7046C323.692 -70.0165 325.648 -70.3163 327.61 -70.6038L327.538 -71.0985C329.48 -71.3831 331.429 -71.6558 333.383 -71.9164L333.449 -71.4208C335.402 -71.6811 337.36 -71.9293 339.324 -72.1653L339.264 -72.6618C341.224 -72.8974 343.19 -73.1209 345.162 -73.3321L345.215 -72.8349C347.167 -73.044 349.123 -73.2411 351.086 -73.4261L351.039 -73.9239C353.003 -74.1091 354.972 -74.2821 356.947 -74.443L356.988 -73.9446C358.952 -74.1046 360.921 -74.2524 362.895 -74.3881L362.861 -74.8869C364.822 -75.0216 366.788 -75.1444 368.758 -75.2549L368.786 -74.7557C370.755 -74.8661 372.728 -74.9644 374.706 -75.0505L374.685 -75.55C376.654 -75.6357 378.628 -75.7093 380.607 -75.7707L380.622 -75.2709C382.586 -75.3318 384.553 -75.3806 386.525 -75.4173L386.516 -75.9172C388.49 -75.9539 390.468 -75.9785 392.451 -75.9908L392.454 -75.4908C393.444 -75.4969 394.435 -75.5 395.427 -75.5C396.419 -75.5 397.41 -75.4969 398.4 -75.4908L398.403 -75.9908C400.386 -75.9785 402.364 -75.9539 404.338 -75.9172L404.329 -75.4173C406.301 -75.3806 408.268 -75.3318 410.232 -75.2709L410.247 -75.7707C412.226 -75.7093 414.2 -75.6357 416.169 -75.55L416.148 -75.0505C418.126 -74.9644 420.099 -74.8661 422.068 -74.7557L422.096 -75.2549C424.066 -75.1444 426.032 -75.0217 427.993 -74.8869L427.959 -74.3881C429.933 -74.2525 431.902 -74.1046 433.866 -73.9446L433.907 -74.443C435.882 -74.2822 437.851 -74.1091 439.815 -73.9239L439.768 -73.4261C441.731 -73.2411 443.688 -73.044 445.639 -72.835L445.692 -73.3321C447.664 -73.1209 449.63 -72.8974 451.59 -72.6618L451.53 -72.1654C453.494 -71.9293 455.452 -71.6811 457.405 -71.4208L457.471 -71.9164C459.425 -71.6558 461.374 -71.3832 463.317 -71.0985L463.244 -70.6038C465.206 -70.3163 467.162 -70.0165 469.112 -69.7047L469.191 -70.1984C471.145 -69.8858 473.093 -69.5611 475.034 -69.2244L474.949 -68.7317C476.89 -68.3949 478.825 -68.0461 480.753 -67.6853L480.845 -68.1767C482.798 -67.8115 484.743 -67.434 486.681 -67.0444L486.583 -66.5542C488.519 -66.165 490.448 -65.7638 492.37 -65.3506L492.475 -65.8394C494.408 -65.424 496.333 -64.9965 498.25 -64.557L498.139 -64.0697C500.07 -63.6269 501.995 -63.1721 503.912 -62.7052L504.03 -63.191C505.949 -62.7235 507.86 -62.244 509.763 -61.7526L509.638 -61.2685C511.554 -60.7739 513.462 -60.2672 515.361 -59.7486L515.493 -60.231C517.405 -59.709 519.309 -59.1748 521.204 -58.6287L521.065 -58.1483C522.958 -57.6028 524.843 -57.0454 526.719 -56.4762L526.864 -56.9546C528.764 -56.378 530.656 -55.7893 532.538 -55.1886L532.386 -54.7123C534.269 -54.1114 536.144 -53.4984 538.009 -52.8736L538.167 -53.3477C540.04 -52.7204 541.903 -52.0811 543.757 -51.4299L543.591 -50.9582C545.463 -50.3009 547.324 -49.6315 549.176 -48.9502L549.349 -49.4194C551.203 -48.7373 553.048 -48.0432 554.882 -47.3373L554.702 -46.8707C556.549 -46.1601 558.385 -45.4375 560.212 -44.7031L560.398 -45.167C562.237 -44.4273 564.066 -43.6757 565.884 -42.9122L565.69 -42.4512C567.506 -41.6887 569.31 -40.9144 571.104 -40.1284L571.305 -40.5864C573.126 -39.7885 574.936 -38.9785 576.734 -38.1568L576.527 -37.702C578.323 -36.881 580.108 -36.0482 581.882 -35.2037L582.097 -35.6551C583.884 -34.8044 585.658 -33.9418 587.421 -33.0675L587.199 -32.6196C588.974 -31.7391 590.737 -30.8468 592.488 -29.9428L592.717 -30.387C594.47 -29.4817 596.21 -28.5647 597.938 -27.6361L597.702 -27.1957C599.45 -26.2562 601.185 -25.3049 602.906 -24.3419L603.15 -24.7783C604.877 -23.8124 606.591 -22.8347 608.291 -21.8454L608.04 -21.4132C609.748 -20.4195 611.442 -19.414 613.122 -18.397L613.381 -18.8248C615.079 -17.7973 616.763 -16.758 618.432 -15.7071L618.166 -15.2839C619.832 -14.2346 621.485 -13.1737 623.123 -12.1014L623.396 -12.5197C625.06 -11.4305 626.709 -10.3295 628.342 -9.2169L628.061 -8.80365C629.693 -7.69194 631.31 -6.56868 632.911 -5.43404L633.2 -5.842C634.817 -4.69642 636.417 -3.53925 638.002 -2.37067L637.705 -1.96825C639.299 -0.793373 640.876 0.393036 642.436 1.59078L642.741 1.19415C644.307 2.39664 645.857 3.61054 647.39 4.83569L647.078 5.22629C648.628 6.465 650.161 7.71519 651.676 8.97666L651.996 8.59241C653.514 9.85605 655.014 11.131 656.496 12.4171L656.168 12.7947C657.666 14.0941 659.145 15.4048 660.605 16.7267L660.941 16.356C662.408 17.684 663.857 19.0232 665.286 20.3735L664.943 20.737C666.38 22.0947 667.799 23.4635 669.197 24.8433L669.548 24.4874C670.96 25.8798 672.351 27.2834 673.722 28.698L673.364 29.046C674.737 30.4623 676.089 31.8896 677.422 33.3276L677.788 32.9878C679.138 34.4445 680.466 35.9123 681.773 37.3908L681.399 37.7219C682.703 39.1975 683.986 40.6839 685.248 42.1807L685.63 41.8585C686.911 43.3783 688.169 44.909 689.405 46.4502L689.015 46.763C690.249 48.3015 691.46 49.8506 692.648 51.41L693.046 51.107C694.248 52.6848 695.427 54.2733 696.582 55.8721L696.176 56.1649C697.332 57.7649 698.465 59.3754 699.573 60.9959L699.985 60.7137C701.103 62.3486 702.196 63.9938 703.265 65.649L702.845 65.9202C703.916 67.5797 704.962 69.2493 705.983 70.9287L706.41 70.669C707.438 72.3594 708.439 74.0597 709.415 75.7698L708.98 76.0176C709.96 77.7336 710.912 79.4595 711.838 81.1948L712.28 80.9594C713.21 82.7029 714.114 84.4561 714.99 86.2186L714.542 86.4412C715.422 88.21 716.274 89.9882 717.098 91.7756L717.552 91.5662C718.379 93.3597 719.179 95.1625 719.95 96.9742L719.489 97.17C720.262 98.9867 721.007 100.812 721.722 102.647L722.188 102.465C722.906 104.305 723.594 106.153 724.253 108.01L723.782 108.177C724.442 110.036 725.072 111.903 725.672 113.779L726.149 113.627C726.751 115.507 727.323 117.396 727.864 119.293L727.383 119.43C727.924 121.325 728.435 123.227 728.914 125.136L729.399 125.015C729.88 126.93 730.33 128.853 730.749 130.783L730.26 130.889C730.678 132.811 731.064 134.741 731.418 136.678L731.91 136.588C732.266 138.53 732.59 140.478 732.882 142.434L732.387 142.508C732.678 144.451 732.936 146.402 733.163 148.358L733.66 148.301C733.887 150.26 734.082 152.226 734.245 154.199L733.747 154.24C733.908 156.197 734.038 158.16 734.135 160.128L734.635 160.104Z" fill="#888888" fill-opacity="0.56" stroke="url(#paint0_linear_1419_1155)" stroke-dasharray="6 6"/>
</mask>
<g mask="url(#mask0_1419_1155)">
<line x1="722.684" y1="563.925" x2="722.684" y2="41" stroke="#949494" stroke-opacity="0.64" stroke-dasharray="6 6"/>
<line x1="690.799" y1="563.925" x2="690.799" y2="41" stroke="#949494" stroke-opacity="0.64" stroke-dasharray="6 6"/>
<line x1="658.914" y1="563.925" x2="658.914" y2="41" stroke="#949494" stroke-opacity="0.64" stroke-dasharray="6 6"/>
<line x1="627.027" y1="563.925" x2="627.027" y2="41" stroke="#949494" stroke-opacity="0.64" stroke-dasharray="6 6"/>
<line x1="595.143" y1="563.925" x2="595.143" y2="41" stroke="#949494" stroke-opacity="0.64" stroke-dasharray="6 6"/>
<line x1="563.258" y1="563.925" x2="563.258" y2="41" stroke="#949494" stroke-opacity="0.64" stroke-dasharray="6 6"/>
<line x1="531.371" y1="563.925" x2="531.371" y2="41" stroke="#949494" stroke-opacity="0.64" stroke-dasharray="6 6"/>
<line x1="499.482" y1="563.925" x2="499.482" y2="41" stroke="#949494" stroke-opacity="0.64" stroke-dasharray="6 6"/>
<line x1="467.582" y1="563.932" x2="467.582" y2="41.0078" stroke="#949494" stroke-opacity="0.64" stroke-dasharray="6 6"/>
<line x1="435.697" y1="563.932" x2="435.697" y2="41.0078" stroke="#949494" stroke-opacity="0.64" stroke-dasharray="6 6"/>
<line x1="403.81" y1="563.932" x2="403.81" y2="41.0078" stroke="#949494" stroke-opacity="0.64" stroke-dasharray="6 6"/>
<line x1="371.926" y1="563.932" x2="371.926" y2="41.0078" stroke="#949494" stroke-opacity="0.64" stroke-dasharray="6 6"/>
<line x1="340.04" y1="563.932" x2="340.04" y2="41.0078" stroke="#949494" stroke-opacity="0.64" stroke-dasharray="6 6"/>
<line x1="308.153" y1="563.932" x2="308.153" y2="41.0078" stroke="#949494" stroke-opacity="0.64" stroke-dasharray="6 6"/>
<line x1="276.269" y1="563.932" x2="276.269" y2="41.0078" stroke="#949494" stroke-opacity="0.64" stroke-dasharray="6 6"/>
<line x1="244.38" y1="563.932" x2="244.38" y2="41.0078" stroke="#949494" stroke-opacity="0.64" stroke-dasharray="6 6"/>
<line x1="212.497" y1="563.932" x2="212.497" y2="41.0078" stroke="#949494" stroke-opacity="0.64" stroke-dasharray="6 6"/>
<line x1="180.615" y1="563.932" x2="180.615" y2="41.0078" stroke="#949494" stroke-opacity="0.64" stroke-dasharray="6 6"/>
<line x1="148.724" y1="563.932" x2="148.724" y2="41.0078" stroke="#949494" stroke-opacity="0.64" stroke-dasharray="6 6"/>
<line x1="116.836" y1="563.932" x2="116.836" y2="41.0078" stroke="#949494" stroke-opacity="0.64" stroke-dasharray="6 6"/>
<line x1="84.9521" y1="563.932" x2="84.9522" y2="41.0078" stroke="#949494" stroke-opacity="0.64" stroke-dasharray="6 6"/>
<line x1="0.00097669" y1="413.569" x2="1000.57" y2="413.57" stroke="#949494" stroke-opacity="0.64" stroke-dasharray="6 6"/>
<line x1="0.00097669" y1="381.685" x2="1000.57" y2="381.685" stroke="#949494" stroke-opacity="0.64" stroke-dasharray="6 6"/>
<line x1="0.00097669" y1="349.798" x2="1000.57" y2="349.798" stroke="#949494" stroke-opacity="0.64" stroke-dasharray="6 6"/>
<line x1="0.00097669" y1="317.912" x2="1000.57" y2="317.912" stroke="#949494" stroke-opacity="0.64" stroke-dasharray="6 6"/>
<line x1="0.00097669" y1="286.027" x2="1000.57" y2="286.027" stroke="#949494" stroke-opacity="0.64" stroke-dasharray="6 6"/>
<line x1="0.00097669" y1="254.141" x2="1000.57" y2="254.141" stroke="#949494" stroke-opacity="0.64" stroke-dasharray="6 6"/>
<line x1="0.00097669" y1="222.255" x2="1000.57" y2="222.255" stroke="#949494" stroke-opacity="0.64" stroke-dasharray="6 6"/>
<line x1="1.27349e-07" y1="190.371" x2="1000.57" y2="190.371" stroke="#949494" stroke-opacity="0.64" stroke-dasharray="6 6"/>
<line x1="1.27349e-07" y1="158.485" x2="1000.57" y2="158.485" stroke="#949494" stroke-opacity="0.64" stroke-dasharray="6 6"/>
<line x1="1.27349e-07" y1="126.599" x2="1000.57" y2="126.599" stroke="#949494" stroke-opacity="0.64" stroke-dasharray="6 6"/>
<line x1="1.27349e-07" y1="94.7127" x2="1000.57" y2="94.7128" stroke="#949494" stroke-opacity="0.64" stroke-dasharray="6 6"/>
<line x1="1.27349e-07" y1="62.8281" x2="1000.57" y2="62.8283" stroke="#949494" stroke-opacity="0.64" stroke-dasharray="6 6"/>
</g>
</g>
<defs>
<linearGradient id="paint0_linear_1419_1155" x1="395.427" y1="-76" x2="395.427" y2="414" gradientUnits="userSpaceOnUse">
<stop stop-color="#A3A3A3"/>
<stop offset="1" stop-color="#727272" stop-opacity="0"/>
</linearGradient>
</defs>
</svg>
