<svg width="976" height="613" viewBox="0 0 976 613" fill="none" xmlns="http://www.w3.org/2000/svg">
<g opacity="0.3">
<mask id="mask0_1705_2683" style="mask-type:alpha" maskUnits="userSpaceOnUse" x="65" y="-106" width="775" height="719">
<path d="M839.881 262.509C839.934 260.513 839.969 258.513 839.987 256.509L839.487 256.504C839.496 255.504 839.5 254.502 839.5 253.5C839.5 252.498 839.496 251.497 839.487 250.496L839.987 250.492C839.969 248.488 839.934 246.488 839.881 244.492L839.381 244.505C839.328 242.512 839.258 240.523 839.17 238.538L839.669 238.516C839.581 236.519 839.476 234.527 839.352 232.54L838.853 232.571C838.73 230.574 838.588 228.581 838.429 226.594L838.928 226.554C838.769 224.563 838.592 222.577 838.399 220.595L837.901 220.644C837.707 218.659 837.495 216.679 837.266 214.703L837.763 214.646C837.533 212.656 837.285 210.672 837.019 208.692L836.524 208.758C836.259 206.782 835.977 204.81 835.677 202.843L836.172 202.768C835.871 200.794 835.553 198.825 835.218 196.862L834.725 196.946C834.389 194.975 834.036 193.01 833.665 191.051L834.157 190.958C833.786 188.995 833.397 187.038 832.992 185.087L832.503 185.189C832.097 183.237 831.675 181.29 831.235 179.349L831.723 179.239C831.281 177.288 830.823 175.342 830.347 173.402L829.861 173.522C829.386 171.585 828.894 169.654 828.386 167.729L828.869 167.602C828.359 165.671 827.832 163.747 827.288 161.829L826.807 161.965C826.263 160.044 825.702 158.129 825.124 156.221L825.602 156.076C825.024 154.165 824.429 152.26 823.817 150.362L823.341 150.515C822.729 148.617 822.101 146.726 821.457 144.842L821.93 144.68C821.284 142.789 820.62 140.904 819.941 139.027L819.471 139.197C818.793 137.322 818.098 135.454 817.387 133.593L817.854 133.415C817.142 131.55 816.414 129.691 815.669 127.84L815.205 128.027C814.461 126.176 813.701 124.332 812.924 122.496L813.385 122.301C812.607 120.462 811.814 118.63 811.005 116.806L810.548 117.009C809.74 115.186 808.916 113.372 808.077 111.564L808.53 111.354C807.689 109.542 806.832 107.739 805.959 105.943L805.51 106.161C804.638 104.368 803.752 102.583 802.85 100.805L803.296 100.579C802.393 98.7985 801.474 97.0261 800.54 95.2618L800.099 95.4957C799.166 93.7335 798.218 91.9794 797.255 90.2336L797.693 89.9922C796.729 88.2439 795.75 86.5038 794.756 84.7723L794.323 85.0212C793.33 83.2924 792.323 81.5719 791.302 79.86L791.731 79.6038C790.708 77.8898 789.67 76.1843 788.618 74.4876L788.193 74.7511C787.142 73.0568 786.077 71.3711 784.998 69.6943L785.418 69.4236C784.338 67.7454 783.243 66.0761 782.134 64.4157L781.718 64.6934C780.611 63.0361 779.49 61.3878 778.356 59.7486L778.767 59.464C777.63 57.8225 776.479 56.1902 775.315 54.5671L774.909 54.8586C773.747 53.2393 772.572 51.6293 771.383 50.0287L771.784 49.7305C770.594 48.1288 769.39 46.5364 768.173 44.9537L767.777 45.2585C766.562 43.6779 765.333 42.1068 764.091 40.5453L764.482 40.2341C763.24 38.6726 761.984 37.1208 760.716 35.5788L760.329 35.8965C759.064 34.3579 757.785 32.8291 756.493 31.3102L756.874 30.9863C755.58 29.4653 754.273 27.9543 752.954 26.4533L752.579 26.7834C751.263 25.2871 749.935 23.8008 748.594 22.3246L748.965 21.9885C747.623 20.5118 746.27 19.0452 744.903 17.5889L744.539 17.931C743.174 16.4768 741.798 15.0328 740.409 13.5992L740.768 13.2513C739.38 11.8187 737.979 10.3966 736.567 8.98505L736.214 9.33868C734.805 7.93054 733.384 6.5329 731.951 5.14587L732.299 4.78662C730.864 3.39777 729.417 2.01953 727.959 0.652161L727.617 1.01691C726.164 -0.345459 724.699 -1.69702 723.223 -3.03778L723.559 -3.4079C722.083 -4.74884 720.595 -6.07892 719.096 -7.39795L718.765 -7.02252C717.268 -8.33984 715.759 -9.64612 714.24 -10.9413L714.564 -11.3219C713.046 -12.6154 711.517 -13.8977 709.977 -15.1689L709.659 -14.7833C708.123 -16.0511 706.576 -17.3078 705.018 -18.5532L705.331 -18.9437C703.771 -20.1906 702.2 -21.4263 700.619 -22.6505L700.313 -22.2551C698.738 -23.4742 697.153 -24.6819 695.557 -25.8781L695.857 -26.2782C694.261 -27.4742 692.656 -28.6586 691.039 -29.8315L690.746 -29.4268C689.132 -30.5981 687.507 -31.7578 685.873 -32.9057L686.16 -33.3149C684.528 -34.4609 682.886 -35.5952 681.234 -36.7177L680.953 -36.3041C679.306 -37.4232 677.65 -38.5305 675.983 -39.6259L676.258 -40.0436C674.589 -41.1404 672.911 -42.2253 671.223 -43.298L670.954 -42.876C669.274 -43.9443 667.583 -45.0005 665.883 -46.0446L666.145 -46.4706C664.447 -47.5139 662.739 -48.5452 661.022 -49.5641L660.766 -49.1342C659.051 -50.1519 657.327 -51.1573 655.594 -52.1505L655.843 -52.5844C654.112 -53.5759 652.373 -54.5552 650.624 -55.522L650.383 -55.0845C648.641 -56.0477 646.89 -56.9986 645.131 -57.9371L645.366 -58.3782C643.605 -59.3179 641.834 -60.245 640.055 -61.1595L639.827 -60.7149C638.055 -61.6258 636.275 -62.5242 634.486 -63.41L634.708 -63.8581C632.922 -64.7422 631.129 -65.6138 629.327 -66.4726L629.112 -66.0212C627.312 -66.879 625.504 -67.7241 623.688 -68.5563L623.896 -69.0109C622.082 -69.8422 620.26 -70.6608 618.43 -71.4664L618.229 -71.0087C616.408 -71.8102 614.58 -72.599 612.744 -73.3748L612.938 -73.8354C611.1 -74.6122 609.254 -75.376 607.4 -76.1268L607.213 -75.6634C605.365 -76.4119 603.509 -77.1474 601.646 -77.8698L601.827 -78.3359C599.971 -79.0557 598.107 -79.7625 596.237 -80.4562L596.063 -79.9874C594.194 -80.6801 592.319 -81.3598 590.436 -82.0262L590.603 -82.4976C588.72 -83.1641 586.83 -83.8174 584.933 -84.4574L584.773 -83.9836C582.89 -84.619 581 -85.2411 579.103 -85.8499L579.256 -86.3259C577.357 -86.9355 575.451 -87.5318 573.539 -88.1146L573.393 -87.6364C571.483 -88.2184 569.567 -88.7871 567.644 -89.3423L567.782 -89.8226C565.872 -90.3743 563.954 -90.9126 562.031 -91.4374L561.9 -90.9551C559.979 -91.4792 558.052 -91.9899 556.118 -92.487L556.243 -92.9713C554.308 -93.469 552.366 -93.9531 550.418 -94.4236L550.301 -93.9376C548.369 -94.4043 546.431 -94.8575 544.487 -95.2972L544.597 -95.7849C542.654 -96.2244 540.705 -96.6502 538.75 -97.0624L538.647 -96.5732C536.695 -96.9849 534.737 -97.3828 532.774 -97.767L532.87 -98.2577C530.915 -98.6403 528.954 -99.0092 526.988 -99.3643L526.899 -98.8723C524.943 -99.2257 522.98 -99.5656 521.013 -99.8915L521.095 -100.385C519.125 -100.711 517.151 -101.024 515.171 -101.323L515.096 -100.828C513.126 -101.125 511.151 -101.409 509.171 -101.678L509.238 -102.174C507.267 -102.442 505.292 -102.696 503.311 -102.937L503.251 -102.441C501.273 -102.681 499.29 -102.908 497.303 -103.12L497.356 -103.617C495.369 -103.83 493.377 -104.028 491.381 -104.213L491.335 -103.715C489.359 -103.898 487.379 -104.066 485.394 -104.221L485.433 -104.72C483.446 -104.875 481.454 -105.016 479.459 -105.144L479.427 -104.645C477.434 -104.772 475.437 -104.885 473.435 -104.984L473.46 -105.483C471.475 -105.581 469.485 -105.666 467.492 -105.736L467.474 -105.236C465.487 -105.306 463.496 -105.363 461.501 -105.405L461.512 -105.905C459.515 -105.947 457.514 -105.975 455.509 -105.989L455.506 -105.489C454.505 -105.496 453.503 -105.5 452.5 -105.5C451.497 -105.5 450.495 -105.496 449.494 -105.489L449.49 -105.989C447.486 -105.975 445.485 -105.947 443.488 -105.905L443.498 -105.405C441.503 -105.363 439.512 -105.306 437.525 -105.236L437.508 -105.736C435.514 -105.666 433.525 -105.581 431.539 -105.483L431.564 -104.984C429.563 -104.885 427.566 -104.772 425.572 -104.645L425.541 -105.143C423.545 -105.016 421.554 -104.875 419.567 -104.72L419.606 -104.221C417.621 -104.066 415.641 -103.898 413.664 -103.715L413.618 -104.213C411.622 -104.028 409.63 -103.83 407.643 -103.617L407.696 -103.12C405.709 -102.908 403.726 -102.681 401.748 -102.441L401.688 -102.937C399.708 -102.696 397.732 -102.442 395.761 -102.174L395.829 -101.678C393.848 -101.409 391.873 -101.125 389.903 -100.828L389.828 -101.322C387.849 -101.024 385.874 -100.711 383.904 -100.385L383.986 -99.8914C382.019 -99.5654 380.057 -99.2256 378.1 -98.8721L378.011 -99.3642C376.045 -99.0091 374.085 -98.6401 372.13 -98.2576L372.226 -97.7669C370.262 -97.3827 368.305 -96.9847 366.352 -96.5731L366.249 -97.0623C364.294 -96.6501 362.345 -96.2242 360.402 -95.7847L360.513 -95.297C358.569 -94.8574 356.631 -94.4042 354.698 -93.9374L354.581 -94.4235C352.634 -93.953 350.692 -93.4689 348.756 -92.9711L348.881 -92.4869C346.948 -91.9897 345.021 -91.4791 343.1 -90.9549L342.968 -91.4373C341.045 -90.9124 339.128 -90.3741 337.217 -89.8225L337.356 -89.3421C335.433 -88.787 333.516 -88.2183 331.606 -87.6362L331.461 -88.1144C329.548 -87.5316 327.643 -86.9354 325.744 -86.3258L325.897 -85.8497C324 -85.2409 322.11 -84.6188 320.227 -83.9835L320.067 -84.4573C318.17 -83.8173 316.28 -83.1639 314.397 -82.4974L314.564 -82.0261C312.681 -81.3596 310.805 -80.68 308.937 -79.9872L308.763 -80.456C306.892 -79.7623 305.029 -79.0556 303.173 -78.3358L303.353 -77.8696C301.49 -77.1472 299.635 -76.4117 297.787 -75.6632L297.599 -76.1266C295.746 -75.3759 293.9 -74.612 292.061 -73.8352L292.256 -73.3746C290.42 -72.5989 288.591 -71.8101 286.771 -71.0086L286.569 -71.4662C284.739 -70.6605 282.917 -69.842 281.103 -69.0107L281.312 -68.5562C279.496 -67.7239 277.688 -66.8788 275.888 -66.0211L275.673 -66.4725C273.871 -65.6136 272.077 -64.7421 270.292 -63.8579L270.514 -63.4099C268.725 -62.5241 266.945 -61.6257 265.173 -60.7147L264.944 -61.1594C263.165 -60.2449 261.395 -59.3177 259.634 -58.3781L259.869 -57.9369C258.11 -56.9985 256.359 -56.0475 254.617 -55.0844L254.375 -55.5219C252.627 -54.5551 250.887 -53.5757 249.157 -52.5842L249.406 -52.1504C247.672 -51.1572 245.948 -50.1517 244.233 -49.134L243.978 -49.564C242.261 -48.545 240.553 -47.5138 238.855 -46.4705L239.116 -46.0444C237.417 -45.0004 235.726 -43.9442 234.045 -42.8759L233.777 -43.2979C232.089 -42.2252 230.411 -41.1403 228.742 -40.0435L229.017 -39.6257C227.35 -38.5303 225.693 -37.423 224.046 -36.304L223.765 -36.7175C222.114 -35.5951 220.472 -34.4608 218.84 -33.3148L219.127 -32.9056C217.493 -31.7577 215.868 -30.598 214.254 -29.4267L213.961 -29.8314C212.344 -28.6585 210.738 -27.4741 209.143 -26.2781L209.443 -25.878C207.847 -24.6818 206.262 -23.4741 204.687 -22.255L204.381 -22.6503C202.8 -21.4261 201.229 -20.1906 199.669 -18.9436L199.982 -18.553C198.424 -17.3077 196.877 -16.0511 195.341 -14.7833L195.023 -15.1688C193.483 -13.8976 191.954 -12.6153 190.436 -11.3218L190.76 -10.9413C189.241 -9.64612 187.732 -8.33978 186.235 -7.02252L185.904 -7.39789C184.405 -6.07886 182.917 -4.74884 181.441 -3.4079L181.777 -3.03778C180.301 -1.69702 178.836 -0.345459 177.383 1.01691L177.041 0.652161C175.583 2.01953 174.136 3.39771 172.701 4.78656L173.049 5.14581C171.616 6.53284 170.195 7.93048 168.786 9.33862L168.433 8.98499C167.021 10.3965 165.62 11.8187 164.232 13.2512L164.591 13.5991C163.202 15.0327 161.826 16.4767 160.461 17.931L160.097 17.5889C158.73 19.0451 157.377 20.5117 156.036 21.9883L156.406 22.3245C155.065 23.8007 153.737 25.287 152.422 26.7833L152.046 26.4532C150.727 27.9542 149.42 29.4652 148.126 30.9861L148.507 31.3101C147.215 32.829 145.937 34.3578 144.671 35.8963L144.285 35.5787C143.016 37.1207 141.76 38.6724 140.518 40.2339L140.91 40.5452C139.667 42.1066 138.439 43.6777 137.223 45.2583L136.827 44.9535C135.61 46.5363 134.406 48.1287 133.216 49.7303L133.618 50.0285C132.428 51.6292 131.253 53.2391 130.091 54.8584L129.685 54.567C128.521 56.19 127.37 57.8223 126.234 59.4637L126.645 59.7484C125.51 61.3876 124.389 63.0359 123.282 64.6932L122.866 64.4155C121.757 66.0759 120.662 67.7452 119.582 69.4235L120.002 69.6941C118.923 71.3709 117.858 73.0565 116.807 74.7509L116.382 74.4873C115.33 76.184 114.292 77.8895 113.269 79.6035L113.699 79.8598C112.677 81.5717 111.67 83.2921 110.677 85.0209L110.244 84.772C109.25 86.5036 108.271 88.2436 107.307 89.9919L107.745 90.2333C106.782 91.9791 105.834 93.7332 104.902 95.4954L104.46 95.2615C103.526 97.0258 102.607 98.7981 101.704 100.578L102.15 100.805C101.248 102.582 100.362 104.368 99.4906 106.161L99.0408 105.942C98.1685 107.738 97.3115 109.542 96.4701 111.353L96.9236 111.564C96.0841 113.371 95.2602 115.186 94.452 117.009L93.9949 116.806C93.186 118.63 92.3927 120.462 91.6153 122.301L92.0759 122.495C91.2996 124.332 90.5392 126.176 89.7948 128.027L89.3309 127.84C88.5865 129.691 87.858 131.549 87.1457 133.414L87.6128 133.593C86.9022 135.454 86.2076 137.322 85.5292 139.197L85.059 139.026C84.3797 140.904 83.7166 142.789 83.0699 144.68L83.543 144.842C82.8987 146.726 82.2708 148.617 81.6592 150.515L81.1833 150.361C80.5716 152.259 79.9764 154.164 79.3977 156.075L79.8763 156.22C79.2985 158.129 78.7373 160.044 78.1928 161.965L77.7117 161.828C77.1681 163.746 76.6412 165.671 76.1311 167.601L76.6145 167.729C76.1059 169.653 75.614 171.584 75.1389 173.521L74.6533 173.402C74.1776 175.342 73.7188 177.287 73.277 179.239L73.7647 179.349C73.3254 181.29 72.903 183.236 72.4976 185.188L72.008 185.086C71.6028 187.038 71.2145 188.995 70.8435 190.957L71.3347 191.05C70.9642 193.01 70.6108 194.975 70.2747 196.945L69.7818 196.861C69.4469 198.825 69.129 200.794 68.8285 202.768L69.3228 202.843C69.0234 204.809 68.7412 206.781 68.4763 208.758L67.9807 208.691C67.7154 210.671 67.4674 212.656 67.237 214.645L67.7337 214.703C67.5048 216.678 67.2933 218.658 67.0992 220.643L66.6015 220.594C66.4077 222.576 66.2312 224.562 66.0722 226.553L66.5706 226.593C66.4118 228.581 66.2705 230.573 66.1467 232.57L65.6477 232.539C65.5245 234.527 65.4188 236.519 65.3305 238.515L65.83 238.537C65.7423 240.522 65.672 242.511 65.6191 244.504L65.1193 244.491C65.0664 246.487 65.031 248.487 65.0133 250.491L65.5133 250.496C65.5044 251.496 65.5 252.498 65.5 253.5C65.5 254.502 65.5044 255.503 65.5133 256.504L65.0133 256.508C65.031 258.512 65.0664 260.512 65.1193 262.508L65.6191 262.495C65.6719 264.488 65.7423 266.477 65.83 268.462L65.3305 268.484C65.4187 270.481 65.5245 272.473 65.6477 274.46L66.1467 274.429C66.2704 276.426 66.4118 278.419 66.5705 280.406L66.0721 280.446C66.2311 282.437 66.4076 284.423 66.6015 286.405L67.0991 286.356C67.2932 288.341 67.5048 290.321 67.7336 292.297L67.2369 292.354C67.4674 294.344 67.7153 296.328 67.9806 298.308L68.4762 298.242C68.7411 300.218 69.0233 302.19 69.3227 304.157L68.8284 304.232C69.1289 306.206 69.4468 308.175 69.7817 310.138L70.2746 310.054C70.6107 312.025 70.9641 313.99 71.3346 315.949L70.8433 316.042C71.2144 318.005 71.6027 319.962 72.0079 321.913L72.4975 321.811C72.9028 323.763 73.3253 325.71 73.7646 327.651L73.2769 327.761C73.7187 329.712 74.1775 331.658 74.6532 333.598L75.1388 333.478C75.6138 335.415 76.1057 337.346 76.6144 339.271L76.1309 339.398C76.6411 341.329 77.168 343.253 77.7116 345.171L78.1926 345.035C78.7371 346.956 79.2983 348.871 79.8761 350.779L79.3976 350.924C79.9762 352.835 80.5715 354.74 81.1832 356.638L81.6591 356.485C82.2706 358.383 82.8986 360.274 83.5429 362.158L83.0697 362.32C83.7164 364.211 84.3795 366.096 85.0589 367.973L85.5291 367.803C86.2074 369.678 86.902 371.546 87.6126 373.407L87.1455 373.585C87.8579 375.45 88.5863 377.309 89.3307 379.16L89.7946 378.973C90.539 380.824 91.2994 382.668 92.0757 384.504L91.6152 384.699C92.3925 386.538 93.1858 388.37 93.9947 390.194L94.4518 389.991C95.26 391.813 96.084 393.628 96.9234 395.436L96.47 395.646C97.3113 397.458 98.1683 399.261 99.0407 401.057L99.4904 400.839C100.362 402.632 101.248 404.417 102.15 406.195L101.704 406.421C102.607 408.202 103.526 409.974 104.46 411.738L104.902 411.504C105.834 413.267 106.782 415.021 107.745 416.766L107.307 417.008C108.271 418.756 109.25 420.496 110.244 422.228L110.677 421.979C111.67 423.708 112.677 425.428 113.698 427.14L113.269 427.396C114.292 429.11 115.33 430.816 116.382 432.512L116.807 432.249C117.858 433.943 118.923 435.629 120.002 437.306L119.582 437.576C120.662 439.255 121.757 440.924 122.866 442.584L123.282 442.307C124.389 443.964 125.51 445.612 126.644 447.251L126.233 447.536C127.37 449.177 128.521 450.81 129.685 452.433L130.091 452.141C131.253 453.761 132.428 455.371 133.617 456.971L133.216 457.269C134.406 458.871 135.61 460.464 136.827 462.046L137.223 461.742C138.438 463.322 139.667 464.893 140.909 466.455L140.518 466.766C141.76 468.327 143.016 469.879 144.284 471.421L144.671 471.104C145.936 472.642 147.215 474.171 148.507 475.69L148.126 476.014C149.42 477.535 150.727 479.046 152.046 480.547L152.421 480.217C153.737 481.713 155.065 483.199 156.406 484.675L156.035 485.012C157.377 486.488 158.73 487.955 160.097 489.411L160.461 489.069C161.826 490.523 163.202 491.967 164.591 493.401L164.232 493.749C165.62 495.181 167.021 496.603 168.433 498.015L168.786 497.661C170.195 499.069 171.616 500.467 173.049 501.854L172.701 502.213C174.136 503.602 175.583 504.98 177.041 506.348L177.383 505.983C178.836 507.345 180.301 508.697 181.777 510.038L181.441 510.408C182.917 511.749 184.405 513.079 185.904 514.398L186.235 514.023C187.732 515.34 189.241 516.646 190.76 517.941L190.436 518.322C191.954 519.615 193.483 520.898 195.023 522.169L195.341 521.783C196.877 523.051 198.424 524.308 199.982 525.553L199.669 525.944C201.229 527.191 202.8 528.426 204.381 529.65L204.687 529.255C206.262 530.474 207.847 531.682 209.443 532.878L209.143 533.278C210.739 534.474 212.344 535.659 213.961 536.831L214.254 536.427C215.868 537.598 217.493 538.758 219.127 539.906L218.84 540.315C220.472 541.461 222.114 542.595 223.766 543.718L224.047 543.304C225.694 544.423 227.35 545.53 229.017 546.626L228.742 547.044C230.411 548.14 232.089 549.225 233.777 550.298L234.046 549.876C235.726 550.944 237.417 552 239.117 553.045L238.855 553.471C240.553 554.514 242.261 555.545 243.978 556.564L244.234 556.134C245.949 557.152 247.673 558.157 249.406 559.151L249.157 559.584C250.888 560.576 252.627 561.555 254.376 562.522L254.618 562.084C256.359 563.048 258.11 563.999 259.869 564.937L259.634 565.378C261.395 566.318 263.166 567.245 264.945 568.16L265.173 567.715C266.945 568.626 268.725 569.524 270.514 570.41L270.292 570.858C272.078 571.742 273.871 572.614 275.673 573.473L275.888 573.021C277.688 573.879 279.496 574.724 281.312 575.556L281.104 576.011C282.918 576.842 284.74 577.661 286.57 578.466L286.771 578.009C288.592 578.81 290.42 579.599 292.256 580.375L292.062 580.835C293.9 581.612 295.746 582.376 297.6 583.127L297.787 582.663C299.635 583.412 301.491 584.147 303.354 584.87L303.173 585.336C305.029 586.056 306.893 586.763 308.763 587.456L308.937 586.987C310.806 587.68 312.681 588.36 314.564 589.026L314.397 589.498C316.28 590.164 318.17 590.817 320.067 591.457L320.227 590.984C322.11 591.619 324 592.241 325.897 592.85L325.744 593.326C327.643 593.936 329.549 594.532 331.461 595.115L331.607 594.636C333.517 595.218 335.433 595.787 337.356 596.342L337.218 596.823C339.128 597.374 341.046 597.913 342.969 598.437L343.1 597.955C345.021 598.479 346.948 598.99 348.882 599.487L348.757 599.971C350.692 600.469 352.634 600.953 354.582 601.424L354.699 600.938C356.631 601.404 358.569 601.858 360.513 602.297L360.403 602.785C362.346 603.224 364.295 603.65 366.25 604.062L366.353 603.573C368.305 603.985 370.263 604.383 372.226 604.767L372.13 605.258C374.085 605.64 376.046 606.009 378.012 606.364L378.101 605.872C380.057 606.226 382.02 606.566 383.987 606.892L383.905 607.385C385.875 607.711 387.849 608.024 389.829 608.322L389.904 607.828C391.874 608.125 393.849 608.409 395.829 608.678L395.762 609.174C397.733 609.442 399.708 609.696 401.689 609.937L401.749 609.441C403.727 609.681 405.71 609.908 407.697 610.12L407.644 610.617C409.631 610.83 411.623 611.028 413.619 611.213L413.665 610.715C415.641 610.898 417.621 611.066 419.606 611.221L419.567 611.72C421.554 611.875 423.546 612.016 425.541 612.144L425.573 611.645C427.566 611.772 429.563 611.885 431.565 611.984L431.54 612.483C433.525 612.581 435.515 612.666 437.508 612.736L437.526 612.236C439.513 612.306 441.504 612.363 443.499 612.405L443.488 612.905C445.485 612.947 447.486 612.975 449.491 612.989L449.494 612.489C450.495 612.496 451.497 612.5 452.5 612.5C453.503 612.5 454.505 612.496 455.506 612.489L455.51 612.989C457.514 612.975 459.515 612.947 461.512 612.905L461.502 612.405C463.497 612.363 465.488 612.306 467.475 612.236L467.492 612.736C469.486 612.666 471.475 612.581 473.461 612.483L473.436 611.984C475.437 611.885 477.434 611.772 479.428 611.645L479.459 612.144C481.455 612.016 483.446 611.875 485.433 611.72L485.394 611.221C487.379 611.066 489.359 610.898 491.336 610.715L491.382 611.213C493.378 611.028 495.37 610.83 497.357 610.617L497.304 610.12C499.291 609.908 501.274 609.681 503.252 609.441L503.312 609.937C505.292 609.696 507.268 609.442 509.239 609.174L509.171 608.678C511.152 608.409 513.127 608.125 515.097 607.828L515.172 608.322C517.151 608.024 519.126 607.711 521.096 607.385L521.014 606.891C522.981 606.565 524.943 606.226 526.9 605.872L526.989 606.364C528.955 606.009 530.915 605.64 532.87 605.258L532.774 604.767C534.738 604.383 536.695 603.985 538.648 603.573L538.751 604.062C540.706 603.65 542.655 603.224 544.598 602.785L544.487 602.297C546.431 601.857 548.369 601.404 550.302 600.937L550.419 601.423C552.366 600.953 554.308 600.469 556.244 599.971L556.119 599.487C558.052 598.99 559.979 598.479 561.9 597.955L562.032 598.437C563.955 597.912 565.872 597.374 567.783 596.823L567.644 596.342C569.567 595.787 571.484 595.218 573.394 594.636L573.539 595.114C575.452 594.532 577.357 593.935 579.256 593.326L579.103 592.85C581 592.241 582.89 591.619 584.773 590.983L584.933 591.457C586.83 590.817 588.72 590.164 590.603 589.497L590.436 589.026C592.319 588.36 594.195 587.68 596.063 586.987L596.237 587.456C598.108 586.762 599.971 586.056 601.827 585.336L601.647 584.87C603.51 584.147 605.365 583.412 607.213 582.663L607.401 583.127C609.254 582.376 611.1 581.612 612.939 580.835L612.744 580.375C614.58 579.599 616.409 578.81 618.229 578.009L618.431 578.466C620.261 577.661 622.083 576.842 623.897 576.011L623.688 575.556C625.504 574.724 627.312 573.879 629.112 573.021L629.327 573.472C631.129 572.614 632.923 571.742 634.708 570.858L634.486 570.41C636.275 569.524 638.055 568.626 639.827 567.715L640.056 568.159C641.835 567.245 643.605 566.318 645.366 565.378L645.131 564.937C646.89 563.998 648.641 563.048 650.383 562.084L650.625 562.522C652.373 561.555 654.112 560.576 655.843 559.584L655.594 559.15C657.328 558.157 659.052 557.152 660.767 556.134L661.022 556.564C662.739 555.545 664.447 554.514 666.145 553.47L665.884 553.044C667.583 552 669.274 550.944 670.955 549.876L671.223 550.298C672.911 549.225 674.589 548.14 676.258 547.044L675.983 546.626C677.65 545.53 679.307 544.423 680.953 543.304L681.234 543.718C682.886 542.595 684.528 541.461 686.16 540.315L685.873 539.906C687.507 538.758 689.132 537.598 690.746 536.427L691.039 536.831C692.656 535.659 694.262 534.474 695.857 533.278L695.557 532.878C697.153 531.682 698.738 530.474 700.313 529.255L700.619 529.65C702.2 528.426 703.771 527.191 705.331 525.944L705.018 525.553C706.576 524.308 708.123 523.051 709.659 521.783L709.977 522.169C711.517 520.898 713.046 519.615 714.564 518.322L714.24 517.941C715.76 516.646 717.268 515.34 718.765 514.022L719.096 514.398C720.595 513.079 722.083 511.749 723.559 510.408L723.223 510.038C724.699 508.697 726.164 507.345 727.617 505.983L727.959 506.348C729.417 504.98 730.864 503.602 732.299 502.213L731.951 501.854C733.384 500.467 734.805 499.07 736.214 497.661L736.567 498.015C737.979 496.603 739.38 495.181 740.768 493.749L740.409 493.401C741.798 491.967 743.174 490.523 744.539 489.069L744.903 489.411C746.27 487.955 747.623 486.488 748.964 485.012L748.594 484.676C749.935 483.199 751.263 481.713 752.578 480.217L752.954 480.547C754.273 479.046 755.58 477.535 756.874 476.014L756.493 475.69C757.785 474.171 759.063 472.642 760.329 471.104L760.715 471.421C761.984 469.879 763.24 468.328 764.482 466.766L764.09 466.455C765.333 464.893 766.561 463.322 767.777 461.742L768.173 462.046C769.39 460.464 770.594 458.871 771.784 457.27L771.382 456.971C772.572 455.371 773.747 453.761 774.909 452.142L775.315 452.433C776.479 450.81 777.63 449.178 778.766 447.536L778.355 447.252C779.49 445.612 780.611 443.964 781.718 442.307L782.134 442.585C783.243 440.924 784.338 439.255 785.418 437.577L784.998 437.306C786.077 435.629 787.142 433.943 788.193 432.249L788.618 432.513C789.67 430.816 790.708 429.11 791.731 427.396L791.301 427.14C792.323 425.428 793.33 423.708 794.323 421.979L794.756 422.228C795.75 420.496 796.729 418.756 797.693 417.008L797.255 416.767C798.218 415.021 799.166 413.267 800.098 411.505L800.54 411.739C801.474 409.974 802.393 408.202 803.296 406.421L802.85 406.195C803.752 404.418 804.638 402.632 805.509 400.839L805.959 401.058C806.832 399.262 807.688 397.458 808.53 395.647L808.076 395.436C808.916 393.629 809.74 391.814 810.548 389.991L811.005 390.194C811.814 388.37 812.607 386.538 813.385 384.699L812.924 384.505C813.7 382.668 814.461 380.824 815.205 378.973L815.669 379.16C816.414 377.309 817.142 375.451 817.854 373.586L817.387 373.407C818.098 371.546 818.792 369.678 819.471 367.803L819.941 367.974C820.62 366.096 821.283 364.211 821.93 362.32L821.457 362.158C822.101 360.274 822.729 358.383 823.341 356.485L823.817 356.639C824.428 354.741 825.024 352.836 825.602 350.925L825.124 350.78C825.702 348.871 826.263 346.956 826.807 345.035L827.288 345.172C827.832 343.254 828.359 341.329 828.869 339.399L828.385 339.271C828.894 337.347 829.386 335.416 829.861 333.479L830.347 333.598C830.822 331.658 831.281 329.713 831.723 327.761L831.235 327.651C831.675 325.71 832.097 323.764 832.502 321.812L832.992 321.914C833.397 319.962 833.785 318.005 834.157 316.043L833.665 315.95C834.036 313.99 834.389 312.025 834.725 310.055L835.218 310.139C835.553 308.175 835.871 306.206 836.172 304.232L835.677 304.157C835.977 302.191 836.259 300.219 836.524 298.242L837.019 298.309C837.285 296.329 837.533 294.344 837.763 292.355L837.266 292.297C837.495 290.322 837.707 288.342 837.901 286.357L838.398 286.406C838.592 284.424 838.769 282.438 838.928 280.447L838.429 280.407C838.588 278.419 838.729 276.427 838.853 274.43L839.352 274.461C839.475 272.473 839.581 270.481 839.669 268.485L839.17 268.463C839.258 266.478 839.328 264.489 839.381 262.496L839.881 262.509Z" fill="url(#paint0_linear_1705_2683)" fill-opacity="0.56" stroke="url(#paint1_linear_1705_2683)" stroke-dasharray="6 6"/>
</mask>
<g mask="url(#mask0_1705_2683)">
<line y1="-0.5" x2="684.418" y2="-0.5" transform="matrix(1.04332e-07 1 1 -1.64979e-07 821.043 -222.418)" stroke="black" stroke-dasharray="6 6"/>
<line y1="-0.5" x2="684.418" y2="-0.5" transform="matrix(1.04332e-07 1 1 -1.64979e-07 786.371 -222.418)" stroke="black" stroke-dasharray="6 6"/>
<line y1="-0.5" x2="684.418" y2="-0.5" transform="matrix(1.04332e-07 1 1 -1.64979e-07 751.703 -222.418)" stroke="black" stroke-dasharray="6 6"/>
<line y1="-0.5" x2="684.418" y2="-0.5" transform="matrix(1.04332e-07 1 1 -1.64979e-07 717.031 -222.418)" stroke="black" stroke-dasharray="6 6"/>
<line y1="-0.5" x2="684.418" y2="-0.5" transform="matrix(1.04332e-07 1 1 -1.64979e-07 682.359 -222.418)" stroke="black" stroke-dasharray="6 6"/>
<line y1="-0.5" x2="684.418" y2="-0.5" transform="matrix(1.04332e-07 1 1 -1.64979e-07 647.688 -222.418)" stroke="black" stroke-dasharray="6 6"/>
<line y1="-0.5" x2="684.418" y2="-0.5" transform="matrix(1.04332e-07 1 1 -1.64979e-07 613.016 -222.418)" stroke="black" stroke-dasharray="6 6"/>
<line y1="-0.5" x2="684.418" y2="-0.5" transform="matrix(1.04332e-07 1 1 -1.64979e-07 578.344 -222.418)" stroke="black" stroke-dasharray="6 6"/>
<line y1="-0.5" x2="684.418" y2="-0.5" transform="matrix(1.04332e-07 1 1 -1.64979e-07 543.668 -222.418)" stroke="black" stroke-dasharray="6 6"/>
<line y1="-0.5" x2="684.418" y2="-0.5" transform="matrix(1.04332e-07 1 1 -1.64979e-07 508.98 -222.429)" stroke="black" stroke-dasharray="6 6"/>
<line y1="-0.5" x2="684.418" y2="-0.5" transform="matrix(1.04332e-07 1 1 -1.64979e-07 474.309 -222.429)" stroke="black" stroke-dasharray="6 6"/>
<line y1="-0.5" x2="684.418" y2="-0.5" transform="matrix(1.04332e-07 1 1 -1.64979e-07 439.637 -222.429)" stroke="black" stroke-dasharray="6 6"/>
<line y1="-0.5" x2="684.418" y2="-0.5" transform="matrix(1.04332e-07 1 1 -1.64979e-07 404.965 -222.429)" stroke="black" stroke-dasharray="6 6"/>
<line y1="-0.5" x2="684.418" y2="-0.5" transform="matrix(1.04332e-07 1 1 -1.64979e-07 370.297 -222.429)" stroke="black" stroke-dasharray="6 6"/>
<line y1="-0.5" x2="684.418" y2="-0.5" transform="matrix(1.04332e-07 1 1 -1.64979e-07 335.625 -222.429)" stroke="black" stroke-dasharray="6 6"/>
<line y1="-0.5" x2="684.418" y2="-0.5" transform="matrix(1.04332e-07 1 1 -1.64979e-07 300.949 -222.429)" stroke="black" stroke-dasharray="6 6"/>
<line y1="-0.5" x2="684.418" y2="-0.5" transform="matrix(1.04332e-07 1 1 -1.64979e-07 266.277 -222.429)" stroke="black" stroke-dasharray="6 6"/>
<line y1="-0.5" x2="684.418" y2="-0.5" transform="matrix(1.04332e-07 1 1 -1.64979e-07 231.605 -222.429)" stroke="black" stroke-dasharray="6 6"/>
<line y1="-0.5" x2="684.418" y2="-0.5" transform="matrix(1.04332e-07 1 1 -1.64979e-07 196.941 -222.429)" stroke="black" stroke-dasharray="6 6"/>
<line y1="-0.5" x2="684.418" y2="-0.5" transform="matrix(1.04332e-07 1 1 -1.64979e-07 162.262 -222.429)" stroke="black" stroke-dasharray="6 6"/>
<line y1="-0.5" x2="684.418" y2="-0.5" transform="matrix(1.04332e-07 1 1 -1.64979e-07 127.59 -222.429)" stroke="black" stroke-dasharray="6 6"/>
<line y1="-0.5" x2="684.418" y2="-0.5" transform="matrix(1.04332e-07 1 1 -1.64979e-07 92.918 -222.429)" stroke="black" stroke-dasharray="6 6"/>
<line y1="-0.5" x2="1088" y2="-0.5" transform="matrix(1 -1.6736e-07 -2.0699e-07 -1 0 15.448)" stroke="black" stroke-dasharray="6 6"/>
<line y1="-0.5" x2="1088" y2="-0.5" transform="matrix(1 -1.6736e-07 -2.0699e-07 -1 0 57.183)" stroke="black" stroke-dasharray="6 6"/>
<line y1="-0.5" x2="1088" y2="-0.5" transform="matrix(1 -1.6736e-07 -2.0699e-07 -1 0 98.9162)" stroke="black" stroke-dasharray="6 6"/>
<line y1="-0.5" x2="1088" y2="-0.5" transform="matrix(1 -1.6736e-07 -2.0699e-07 -1 0 140.648)" stroke="black" stroke-dasharray="6 6"/>
<line y1="-0.5" x2="1088" y2="-0.5" transform="matrix(1 -1.6736e-07 -2.0699e-07 -1 0 182.381)" stroke="black" stroke-dasharray="6 6"/>
<line y1="-0.5" x2="1088" y2="-0.5" transform="matrix(1 -1.6736e-07 -2.0699e-07 -1 0 224.114)" stroke="black" stroke-dasharray="6 6"/>
<line y1="-0.5" x2="1088" y2="-0.5" transform="matrix(1 -1.6736e-07 -2.0699e-07 -1 0 265.845)" stroke="black" stroke-dasharray="6 6"/>
<line y1="-0.5" x2="1088" y2="-0.5" transform="matrix(1 -1.6736e-07 -2.0699e-07 -1 0 307.579)" stroke="black" stroke-dasharray="6 6"/>
<line y1="-0.5" x2="1088" y2="-0.5" transform="matrix(1 -1.6736e-07 -2.0699e-07 -1 0 349.312)" stroke="black" stroke-dasharray="6 6"/>
<line y1="-0.5" x2="1088" y2="-0.5" transform="matrix(1 -1.6736e-07 -2.0699e-07 -1 0 391.045)" stroke="black" stroke-dasharray="6 6"/>
<line y1="-0.5" x2="1088" y2="-0.5" transform="matrix(1 -1.6736e-07 -2.0699e-07 -1 0 432.776)" stroke="black" stroke-dasharray="6 6"/>
</g>
</g>
<defs>
<linearGradient id="paint0_linear_1705_2683" x1="452.5" y1="613" x2="452.5" y2="-106" gradientUnits="userSpaceOnUse">
<stop stop-color="#888888"/>
<stop offset="1" stop-color="#888888" stop-opacity="0"/>
</linearGradient>
<linearGradient id="paint1_linear_1705_2683" x1="452.5" y1="613" x2="452.5" y2="-106" gradientUnits="userSpaceOnUse">
<stop stop-color="#A3A3A3"/>
<stop offset="1" stop-color="#727272" stop-opacity="0"/>
</linearGradient>
</defs>
</svg>
