<svg width="79" height="38" viewBox="0 0 79 38" fill="none" xmlns="http://www.w3.org/2000/svg">
<path d="M72.4601 11V16.2996H78.0784V19.1702H72.4601V25.7211C72.4601 26.3836 72.4785 27.046 72.5522 27.6165C72.6996 28.5917 73.289 29.5486 74.0995 29.9166C75.1495 30.3951 75.8864 30.3031 78.0784 30.2294L77.5442 33.3945C77.3969 33.4681 76.8074 33.4497 76.2548 33.4497C74.9653 33.4497 70.1022 33.9097 69.1075 28.9046C68.9417 28.0397 68.9786 27.1564 68.9786 25.7947V19.207H66.4733L66.5102 16.2812H68.9786V11H72.4601ZM62.9366 16.2812V33.1185H59.4734V16.2812H62.9366ZM62.9366 11V13.9994H59.4366V11H62.9366ZM47.5368 29.8062H56.4156L53.0999 33.1185H44V11H47.5368V29.8062Z" fill="black"/>
<path d="M7.74512 22.1287L11.4064 10.843L27.8824 27.7716L22.3904 37.1764L15.0678 29.6525H11.4064" fill="#00E8FF"/>
<path d="M14.9739 29.8186V15.103L22.4608 7.74512V22.4608M0 29.8186L7.48693 37.1765L11.2304 29.8186L7.48693 22.4608H3.74346" fill="#283198"/>
<path d="M7.35784 22.3059V7.43529L14.7157 0V14.8706M22.0735 37.1765V22.3059L29.4314 14.8706V29.7412M0 29.7412V14.8706L7.35784 22.3059" fill="#324FFF"/>
<path d="M7.74512 37.1764V22.4607L14.7157 29.8185" fill="#00FFFF"/>
</svg>
