<svg width="196" height="40" viewBox="0 0 196 40" fill="none" xmlns="http://www.w3.org/2000/svg">
<path d="M52.2146 31.0297C50.542 31.0297 48.9322 30.805 47.3851 30.3555C45.838 29.906 44.5523 29.284 43.5278 28.4896L45.0958 25.0086C47.2283 26.493 49.6221 27.2352 52.2773 27.2352C53.6571 27.2352 54.7181 27.0104 55.4603 26.5609C56.2025 26.1114 56.5736 25.4895 56.5736 24.695C56.5736 23.9842 56.2339 23.4302 55.5544 23.0329C54.8749 22.6357 53.6676 22.2489 51.9323 21.8726C49.988 21.4754 48.4357 20.9945 47.2754 20.43C46.115 19.8656 45.2683 19.1704 44.7352 18.3446C44.2021 17.5188 43.9355 16.4996 43.9355 15.287C43.9355 13.949 44.3066 12.7573 45.0488 11.712C45.791 10.6666 46.8311 9.84605 48.1691 9.2502C49.5071 8.65436 51.0542 8.35645 52.8104 8.35645C54.3784 8.35645 55.8889 8.58642 57.3419 9.04636C58.7949 9.50631 59.95 10.1231 60.8072 10.8966L59.2392 14.3776C57.2112 12.8932 55.0788 12.151 52.8418 12.151C51.5664 12.151 50.5629 12.3967 49.8312 12.888C49.0995 13.3793 48.7336 14.0535 48.7336 14.9107C48.7336 15.4124 48.8747 15.8254 49.157 16.1494C49.4392 16.4735 49.9096 16.7609 50.5681 17.0118C51.2267 17.2627 52.1623 17.524 53.3749 17.7958C56.2182 18.423 58.2618 19.2279 59.5058 20.2105C60.7497 21.1931 61.3717 22.5521 61.3717 24.2873C61.3717 26.378 60.5668 28.0244 58.9569 29.2265C57.3471 30.4287 55.0997 31.0297 52.2146 31.0297ZM72.724 27.5174C73.2048 27.5174 73.7066 27.486 74.2293 27.4233L73.9784 30.8729C73.3721 30.9566 72.7658 30.9984 72.1595 30.9984C69.818 30.9984 68.1089 30.4862 67.0322 29.4617C65.9555 28.4373 65.4171 26.8798 65.4171 24.7891V18.8934H62.5006V15.3497H65.4171V10.8339H70.1525V15.3497H74.0098V18.8934H70.1525V24.7577C70.1525 26.5975 71.0096 27.5174 72.724 27.5174ZM83.7313 30.9984C82.1006 30.9984 80.6685 30.6691 79.435 30.0105C78.2015 29.352 77.2503 28.4216 76.5813 27.2195C75.9123 26.0173 75.5778 24.6009 75.5778 22.9702C75.5778 21.3395 75.9123 19.9231 76.5813 18.7209C77.2503 17.5188 78.2015 16.5937 79.435 15.9456C80.6685 15.2975 82.1006 14.9734 83.7313 14.9734C85.3621 14.9734 86.7942 15.2975 88.0277 15.9456C89.2612 16.5937 90.2124 17.5188 90.8814 18.7209C91.5504 19.9231 91.885 21.3395 91.885 22.9702C91.885 24.6009 91.5504 26.0173 90.8814 27.2195C90.2124 28.4216 89.2612 29.352 88.0277 30.0105C86.7942 30.6691 85.3621 30.9984 83.7313 30.9984ZM83.7313 27.392C86.0311 27.392 87.1809 25.9181 87.1809 22.9702C87.1809 21.4858 86.883 20.3778 86.2872 19.646C85.6913 18.9143 84.8394 18.5484 83.7313 18.5484C81.4316 18.5484 80.2817 20.0223 80.2817 22.9702C80.2817 25.9181 81.4316 27.392 83.7313 27.392ZM104.993 18.862L102.328 19.1443C101.011 19.2697 100.08 19.6408 99.5368 20.2576C98.9932 20.8743 98.7214 21.6949 98.7214 22.7193V30.7475H93.9861V15.3497H98.5333V17.9526C99.3068 16.1755 100.906 15.2034 103.331 15.0361L104.711 14.942L104.993 18.862ZM118.753 15.3811H123.394L114.111 36.3923H109.313L112.261 29.9008L105.926 15.3811H110.85L114.739 25.1654L118.753 15.3811ZM134.37 14.9734C135.708 14.9734 136.889 15.2975 137.914 15.9456C138.938 16.5937 139.738 17.5188 140.313 18.7209C140.888 19.9231 141.175 21.3186 141.175 22.9075C141.175 24.4964 140.888 25.9024 140.313 27.1254C139.738 28.3484 138.933 29.2997 137.898 29.9792C136.863 30.6586 135.687 30.9984 134.37 30.9984C133.304 30.9984 132.342 30.7736 131.485 30.3241C130.628 29.8746 129.969 29.2527 129.509 28.4582V30.7475H124.836V8.63869H129.572V17.4195C130.032 16.6459 130.685 16.0449 131.532 15.6163C132.379 15.1877 133.325 14.9734 134.37 14.9734ZM132.99 27.392C134.098 27.392 134.955 27 135.562 26.216C136.168 25.432 136.471 24.3291 136.471 22.9075C136.471 21.5067 136.168 20.4353 135.562 19.6931C134.955 18.9509 134.098 18.5798 132.99 18.5798C131.882 18.5798 131.025 18.9613 130.419 19.7244C129.812 20.4875 129.509 21.5695 129.509 22.9702C129.509 24.3919 129.812 25.4842 130.419 26.2473C131.025 27.0104 131.882 27.392 132.99 27.392ZM151.461 30.9984C149.83 30.9984 148.398 30.6691 147.165 30.0105C145.931 29.352 144.98 28.4216 144.311 27.2195C143.642 26.0173 143.308 24.6009 143.308 22.9702C143.308 21.3395 143.642 19.9231 144.311 18.7209C144.98 17.5188 145.931 16.5937 147.165 15.9456C148.398 15.2975 149.83 14.9734 151.461 14.9734C153.092 14.9734 154.524 15.2975 155.757 15.9456C156.991 16.5937 157.942 17.5188 158.611 18.7209C159.28 19.9231 159.615 21.3395 159.615 22.9702C159.615 24.6009 159.28 26.0173 158.611 27.2195C157.942 28.4216 156.991 29.352 155.757 30.0105C154.524 30.6691 153.092 30.9984 151.461 30.9984ZM151.461 27.392C153.761 27.392 154.911 25.9181 154.911 22.9702C154.911 21.4858 154.613 20.3778 154.017 19.646C153.421 18.9143 152.569 18.5484 151.461 18.5484C149.161 18.5484 148.012 20.0223 148.012 22.9702C148.012 25.9181 149.161 27.392 151.461 27.392ZM169.117 30.9984C167.486 30.9984 166.054 30.6691 164.82 30.0105C163.587 29.352 162.636 28.4216 161.967 27.2195C161.298 26.0173 160.963 24.6009 160.963 22.9702C160.963 21.3395 161.298 19.9231 161.967 18.7209C162.636 17.5188 163.587 16.5937 164.82 15.9456C166.054 15.2975 167.486 14.9734 169.117 14.9734C170.748 14.9734 172.18 15.2975 173.413 15.9456C174.647 16.5937 175.598 17.5188 176.267 18.7209C176.936 19.9231 177.27 21.3395 177.27 22.9702C177.27 24.6009 176.936 26.0173 176.267 27.2195C175.598 28.4216 174.647 29.352 173.413 30.0105C172.18 30.6691 170.748 30.9984 169.117 30.9984ZM169.117 27.392C171.417 27.392 172.566 25.9181 172.566 22.9702C172.566 21.4858 172.268 20.3778 171.673 19.646C171.077 18.9143 170.225 18.5484 169.117 18.5484C166.817 18.5484 165.667 20.0223 165.667 22.9702C165.667 25.9181 166.817 27.392 169.117 27.392ZM196 30.7475H190.199L184.303 23.8796V30.7475H179.568V8.63869H184.303V21.9353L189.979 15.3811H195.624L189.164 22.7193L196 30.7475Z" fill="#333333"/>
<path d="M1.21575 36.1215L0.00141139 3.76495C-0.0386934 2.69634 0.780679 1.7907 1.84796 1.724L29.3695 0.00390501C30.4558 -0.0639927 31.3916 0.761637 31.4594 1.848C31.462 1.88893 31.4633 1.92993 31.4633 1.97094V37.2291C31.4633 38.3176 30.5809 39.2 29.4924 39.2C29.4629 39.2 29.4334 39.1993 29.404 39.198L3.09681 38.0165C2.07224 37.9705 1.25421 37.1464 1.21575 36.1215Z" fill="#FF4785"/>
<mask id="mask0_1320_2560" style="mask-type:luminance" maskUnits="userSpaceOnUse" x="0" y="0" width="32" height="40">
<path d="M1.21575 36.1215L0.00141139 3.76495C-0.0386934 2.69634 0.780679 1.7907 1.84796 1.724L29.3695 0.00390501C30.4558 -0.0639927 31.3916 0.761637 31.4594 1.848C31.462 1.88893 31.4633 1.92993 31.4633 1.97094V37.2291C31.4633 38.3176 30.5809 39.2 29.4924 39.2C29.4629 39.2 29.4334 39.1993 29.404 39.198L3.09681 38.0165C2.07224 37.9705 1.25421 37.1464 1.21575 36.1215Z" fill="white"/>
</mask>
<g mask="url(#mask0_1320_2560)">
<path d="M23.2331 4.8183L23.4211 0.296963L27.2006 0L27.3635 4.6627C27.3691 4.82498 27.2422 4.96112 27.0799 4.96678C27.0104 4.96921 26.9423 4.94693 26.8877 4.90391L25.4302 3.75574L23.7046 5.06475C23.5752 5.16288 23.3908 5.13756 23.2926 5.0082C23.2513 4.95374 23.2303 4.8866 23.2331 4.8183ZM18.3995 14.775C18.3995 15.5418 23.5644 15.1743 24.2578 14.6357C24.2578 9.41406 21.456 6.67018 16.3254 6.67018C11.1948 6.67018 8.32027 9.45676 8.32027 13.6366C8.32027 20.9165 18.1448 21.0559 18.1448 25.0267C18.1448 26.1414 17.599 26.8032 16.3982 26.8032C14.8335 26.8032 14.215 26.0041 14.2877 23.2872C14.2877 22.6978 8.32027 22.514 8.13834 23.2872C7.67506 29.8712 11.777 31.7703 16.471 31.7703C21.0193 31.7703 24.5853 29.3459 24.5853 24.9571C24.5853 17.1547 14.6152 17.3637 14.6152 13.4973C14.6152 11.9298 15.7796 11.7208 16.471 11.7208C17.1987 11.7208 18.5086 11.8491 18.3995 14.775Z" fill="white"/>
</g>
</svg>
