<svg width="246" height="31" viewBox="0 0 246 31" fill="none" xmlns="http://www.w3.org/2000/svg">
<g clip-path="url(#clip0_1320_2525)">
<path d="M25.4163 0C18.6388 0 14.403 3.44439 12.7089 10.3337C15.2506 6.88878 18.216 5.59707 21.6048 6.45854C23.5382 6.94934 24.92 8.37583 26.4498 9.95372C28.9415 12.5244 31.8258 15.5 38.1252 15.5C44.9027 15.5 49.1385 12.0556 50.8331 5.16634C48.2915 8.61122 45.326 9.90293 41.9373 9.04146C40.0038 8.55066 38.622 7.12417 37.0922 5.54628C34.6 2.97557 31.7162 0 25.4163 0ZM12.7089 15.5C5.9314 15.5 1.69559 18.9444 0.000976562 25.8337C2.54266 22.3888 5.50763 21.0971 8.89638 21.9585C10.8303 22.4503 12.2116 23.8758 13.7414 25.4537C16.2331 28.0244 19.1179 31 25.4168 31C32.1948 31 36.4306 27.5556 38.1252 20.6663C35.5835 24.1112 32.6181 25.4029 29.2293 24.5415C27.2959 24.0507 25.9141 22.6242 24.3843 21.0468C21.8926 18.4756 19.0083 15.5 12.7089 15.5Z" fill="#38BDF8"/>
<path d="M76.2442 13.0622H71.809V21.7882C71.809 24.1152 73.3109 24.0786 76.2442 23.9331V27.46C70.3065 28.1872 67.9455 26.5145 67.9455 21.7882V13.0622H64.6543V9.28086H67.9455V4.39728L71.8085 3.23401V9.28086H76.2442V13.0622ZM93.1528 9.28086H97.0158V27.4605H93.1528V24.8429C91.7931 26.7695 89.6829 27.9332 86.8923 27.9332C82.028 27.9332 77.9859 23.7519 77.9859 18.3712C77.9859 12.9538 82.028 8.8091 86.8928 8.8091C89.6829 8.8091 91.7936 9.97237 93.1528 11.8628V9.28086ZM87.5006 24.1885C90.7197 24.1885 93.1528 21.7521 93.1528 18.3712C93.1528 14.9903 90.7202 12.5538 87.5006 12.5538C84.281 12.5538 81.8488 14.9898 81.8488 18.3712C81.8488 21.7525 84.2814 24.1885 87.5006 24.1885ZM103.455 6.55387C102.095 6.55387 100.986 5.39011 100.986 4.04468C100.988 3.37973 101.248 2.74238 101.711 2.27219C102.173 1.802 102.8 1.53728 103.455 1.53599C104.109 1.53728 104.736 1.802 105.198 2.27219C105.661 2.74238 105.921 3.37973 105.923 4.04468C105.923 5.39011 104.814 6.55387 103.455 6.55387ZM101.523 27.4595V9.28086H105.386V27.4605L101.523 27.4595ZM109.857 27.4595V0.918701H113.721V27.46L109.857 27.4595ZM138.796 9.28037H142.874L137.258 27.4605H133.466L129.746 15.2076L125.99 27.4605H122.199L116.582 9.28135H120.66L124.13 21.8248L127.886 9.28135H131.57L135.29 21.8248L138.796 9.28037ZM147.667 6.55387C146.308 6.55387 145.199 5.39011 145.199 4.04468C145.2 3.37973 145.461 2.74238 145.923 2.27219C146.386 1.802 147.013 1.53728 147.667 1.53599C148.321 1.53728 148.949 1.802 149.411 2.27219C149.874 2.74238 150.134 3.37973 150.135 4.04468C150.135 5.39011 149.027 6.55387 147.667 6.55387ZM145.736 27.4595V9.28086H149.599V27.4605L145.736 27.4595ZM163.478 8.80764C167.484 8.80764 170.346 11.5713 170.346 16.2976V27.4595H166.483V16.698C166.483 13.9349 164.908 12.4806 162.476 12.4806C159.937 12.4806 157.933 14.0077 157.933 17.7158V27.4605H154.07V9.28086H157.933V11.6079C159.114 9.71745 161.045 8.80813 163.478 8.80813L163.478 8.80764ZM188.661 2.0092H192.524V27.4605H188.661V24.8429C187.301 26.7695 185.191 27.9332 182.401 27.9332C177.536 27.9332 173.494 23.7519 173.494 18.3712C173.494 12.9538 177.536 8.8091 182.401 8.8091C185.191 8.8091 187.302 9.97237 188.661 11.8628V2.0092ZM183.009 24.1885C186.228 24.1885 188.66 21.7521 188.66 18.3712C188.66 14.9903 186.228 12.5538 183.009 12.5538C179.789 12.5538 177.357 14.9898 177.357 18.3712C177.357 21.7525 179.789 24.1885 183.009 24.1885ZM205.472 27.9332C200.071 27.9332 196.029 23.7519 196.029 18.3712C196.029 12.9538 200.071 8.8091 205.472 8.8091C208.978 8.8091 212.019 10.6629 213.45 13.4988L210.123 15.462C209.336 13.7537 207.583 12.6627 205.437 12.6627C202.289 12.6627 199.892 15.0987 199.892 18.3712C199.892 21.6436 202.289 24.0791 205.437 24.0791C207.583 24.0791 209.336 22.952 210.195 21.2798L213.521 23.2064C212.019 26.0789 208.978 27.9332 205.473 27.9332H205.472ZM219.888 14.2987C219.888 17.6074 229.51 15.6075 229.51 22.3342C229.51 25.97 226.398 27.9332 222.535 27.9332C218.958 27.9332 216.382 26.2972 215.238 23.6796L218.565 21.7159C219.137 23.3519 220.568 24.3335 222.535 24.3335C224.252 24.3335 225.576 23.7524 225.576 22.2976C225.576 19.0617 215.953 20.8799 215.953 14.3715C215.953 10.954 218.851 8.8091 222.499 8.8091C225.433 8.8091 227.865 10.1902 229.117 12.59L225.862 14.4443C225.218 13.0266 223.966 12.3717 222.499 12.3717C221.105 12.3717 219.888 12.9899 219.888 14.2987ZM236.379 14.2987C236.379 17.6074 246.001 15.6075 246.001 22.3342C246.001 25.97 242.889 27.9332 239.026 27.9332C235.448 27.9332 232.873 26.2972 231.728 23.6796L235.055 21.7159C235.627 23.3519 237.058 24.3335 239.026 24.3335C240.743 24.3335 242.066 23.7524 242.066 22.2976C242.066 19.0617 232.444 20.8799 232.444 14.3715C232.444 10.954 235.341 8.8091 238.99 8.8091C241.923 8.8091 244.355 10.1902 245.607 12.59L242.352 14.4443C241.708 13.0266 240.456 12.3717 238.99 12.3717C237.595 12.3717 236.379 12.9899 236.379 14.2987Z" fill="#0F172A"/>
</g>
<defs>
<clipPath id="clip0_1320_2525">
<rect width="246" height="31" fill="white"/>
</clipPath>
</defs>
</svg>
