<svg width="147" height="34" viewBox="0 0 147 34" fill="none" xmlns="http://www.w3.org/2000/svg">
<path d="M0 16.5454V33.0908H16.5455H33.0909V16.5454V-8.7738e-05H16.5455H0V16.5454Z" fill="#007ACC"/>
<path d="M7.31767 16.6552L7.30717 18.0104H9.4607H11.6142L11.6142 24.1296V30.2488H13.1375H14.6607V24.1296L14.6607 18.0104H16.8142H18.9678V16.6815C18.9678 15.9462 18.952 15.3316 18.931 15.3159C18.9152 15.2948 16.2942 15.2843 13.1165 15.2896L7.33343 15.3053L7.31767 16.6552Z" fill="white"/>
<path d="M26.7011 15.2668C27.5415 15.4769 28.1823 15.8498 28.7705 16.4591C29.0752 16.7847 29.5269 17.3783 29.5637 17.5201C29.5742 17.5621 28.135 18.5286 27.2631 19.0696C27.2316 19.0906 27.1055 18.954 26.9637 18.7439C26.5382 18.1241 26.0918 17.8563 25.4089 17.809C24.4057 17.7407 23.7596 18.266 23.7649 19.1431C23.7649 19.4005 23.8017 19.5528 23.9067 19.7629C24.1273 20.2199 24.537 20.493 25.8239 21.0498C28.1928 22.0688 29.2065 22.7411 29.8368 23.6971C30.5406 24.7633 30.6982 26.4651 30.2202 27.731C29.695 29.1072 28.3924 30.0421 26.5592 30.352C25.992 30.4518 24.6473 30.4361 24.038 30.3258C22.7091 30.0894 21.4485 29.4328 20.6712 28.5714C20.3665 28.2352 19.773 27.3581 19.8097 27.295C19.8255 27.274 19.9621 27.19 20.1144 27.1007C20.2615 27.0167 20.8182 26.6963 21.3435 26.3916L22.2942 25.8401L22.4938 26.1342C22.7722 26.5597 23.3815 27.1427 23.7491 27.3371C24.8049 27.8938 26.2546 27.815 26.9689 27.1742C27.2736 26.8959 27.3996 26.607 27.3996 26.1815C27.3996 25.7981 27.3524 25.63 27.1528 25.3411C26.8954 24.9734 26.3701 24.6635 24.8784 24.0175C23.1714 23.2821 22.436 22.8251 21.7637 22.1003C21.375 21.6801 21.0073 21.0078 20.855 20.4458C20.7289 19.9783 20.6974 18.807 20.7972 18.3342C21.1491 16.6849 22.394 15.5346 24.1903 15.1932C24.7734 15.0829 26.1285 15.1249 26.7011 15.2668Z" fill="white"/>
<path d="M55.0876 6.14333H49.64V23.0177H47.4144V6.14333H42V4.15029H55.0876V6.14333ZM65.3518 9.5315L59.1401 25.1769C58.044 27.9671 56.4828 29.3622 54.4897 29.3622C53.925 29.3622 53.46 29.2958 53.0946 29.1962V27.2696C53.5596 27.4356 53.9915 27.5021 54.3568 27.5021C55.453 27.5021 56.2502 26.8377 56.8149 25.5423L57.8779 22.9845L52.6295 9.5315H55.0212L58.6751 19.8953C58.7083 20.0282 58.808 20.3603 58.9408 20.925H59.0073C59.0405 20.7257 59.1401 20.3936 59.273 19.9285L63.093 9.5315H65.3518ZM68.8728 21.0579H68.8064V29.1962H66.6473V9.5315H68.8064V11.8899H68.8728C69.9358 10.0962 71.497 9.19932 73.5233 9.19932C75.2506 9.19932 76.6125 9.79724 77.5758 10.9931C78.5391 12.1889 79.0373 13.8165 79.0373 15.8428C79.0373 18.1016 78.4726 19.8953 77.3765 21.2572C76.2803 22.6191 74.7855 23.2835 72.8921 23.2835C71.198 23.3499 69.8361 22.5859 68.8728 21.0579ZM68.8396 15.6435V17.5369C68.8396 18.6663 69.205 19.5963 69.9358 20.3603C70.6666 21.1243 71.5634 21.523 72.6928 21.523C73.9883 21.523 75.018 21.0247 75.782 20.0282C76.5128 19.0317 76.8782 17.6365 76.8782 15.8428C76.8782 14.348 76.546 13.1522 75.8485 12.3218C75.1509 11.4581 74.2208 11.0595 73.025 11.0595C71.7627 11.0595 70.7662 11.4913 70.0022 12.355C69.205 13.2186 68.8396 14.3148 68.8396 15.6435ZM92.2578 16.8061H82.7577C82.7909 18.3009 83.1895 19.4635 83.9535 20.2939C84.7175 21.1243 85.7804 21.523 87.1424 21.523C88.6704 21.523 90.0655 21.0247 91.3277 20.0282V22.0544C90.1319 22.9181 88.5707 23.3499 86.6441 23.3499C84.7507 23.3499 83.2559 22.752 82.1598 21.523C81.0636 20.2939 80.5321 18.5666 80.5321 16.3743C80.5321 14.2816 81.13 12.5543 82.3258 11.2588C83.5217 9.9301 84.9832 9.26576 86.7438 9.26576C88.5043 9.26576 89.8662 9.83045 90.8295 10.9931C91.7928 12.1224 92.291 13.7169 92.291 15.7431L92.2578 16.8061ZM90.0323 14.9791C90.0323 13.7169 89.7333 12.7536 89.1354 12.056C88.5375 11.3585 87.7071 11.0263 86.6773 11.0263C85.6476 11.0263 84.7839 11.3917 84.0864 12.1224C83.3888 12.8532 82.9238 13.8165 82.7577 14.9791H90.0323ZM93.3208 22.3534V20.8586C94.6827 21.7223 96.0446 22.1541 97.4397 22.1541C98.9013 22.1541 100.031 21.8551 100.795 21.224C101.559 20.5929 101.924 19.7624 101.924 18.6663C101.924 17.703 101.658 16.939 101.16 16.3411C100.662 15.7764 99.5324 14.9791 97.8383 13.9826C95.9117 12.8532 94.7159 11.9231 94.2177 11.1924C93.7194 10.4284 93.4537 9.56471 93.4537 8.60141C93.4537 7.27272 93.9851 6.14333 95.0149 5.21324C96.0446 4.28316 97.4397 3.81812 99.167 3.81812C100.296 3.81812 101.426 4.01742 102.522 4.38281V5.74472C101.426 5.24646 100.23 4.98072 98.9677 4.98072C97.6723 4.98072 96.6757 5.3129 95.9117 5.94402C95.1477 6.60837 94.7823 7.40559 94.7823 8.40211C94.7823 9.36541 95.0481 10.1294 95.5463 10.6941C96.0446 11.2588 97.174 12.056 98.8681 13.0193C100.629 14.0158 101.791 14.9127 102.389 15.6767C102.987 16.4407 103.253 17.3376 103.253 18.3673C103.253 19.8289 102.755 20.9915 101.758 21.9216C100.761 22.8516 99.3331 23.2835 97.5062 23.2835C96.8418 23.2835 96.111 23.1838 95.2474 22.9845C94.3837 22.7852 93.7526 22.6191 93.3208 22.3534ZM114.48 22.4198C113.484 23.0177 112.288 23.3499 110.893 23.3499C109.066 23.3499 107.571 22.7188 106.442 21.4565C105.312 20.1943 104.748 18.5666 104.748 16.5071C104.748 14.3812 105.379 12.6207 106.641 11.2588C107.903 9.89689 109.531 9.19932 111.524 9.19932C112.554 9.19932 113.55 9.39863 114.513 9.83045V11.1924C113.55 10.5945 112.487 10.2955 111.358 10.2955C109.763 10.2955 108.501 10.8602 107.505 11.9896C106.508 13.119 106.043 14.6137 106.043 16.4075C106.043 18.168 106.508 19.5631 107.405 20.6261C108.302 21.689 109.498 22.2205 110.959 22.2205C112.321 22.2205 113.484 21.8551 114.48 21.1576V22.4198ZM122.519 10.7938C122.12 10.4948 121.655 10.3619 121.09 10.3619C120.028 10.3619 119.131 10.9266 118.433 12.0228C117.702 13.119 117.37 14.6802 117.37 16.7064V23.051H116.174V9.5315H117.37V12.5211H117.437C117.736 11.4913 118.234 10.6941 118.898 10.1294C119.562 9.56471 120.326 9.26576 121.223 9.26576C121.722 9.26576 122.187 9.33219 122.552 9.49828V10.7938H122.519ZM124.445 6.14333C124.18 6.14333 123.947 6.04368 123.748 5.84437C123.549 5.64507 123.449 5.41255 123.449 5.11359C123.449 4.81464 123.549 4.58211 123.748 4.41603C123.947 4.24994 124.18 4.15029 124.445 4.15029C124.711 4.15029 124.944 4.24994 125.176 4.41603C125.376 4.58211 125.475 4.81464 125.475 5.11359C125.475 5.37933 125.376 5.64507 125.176 5.84437C124.944 6.04368 124.711 6.14333 124.445 6.14333ZM123.848 23.0177V9.5315H125.043V23.0177H123.848ZM129.196 20.6261H129.129V29.2294H127.933V9.5315H129.129V12.3218H129.196C129.694 11.3252 130.358 10.5612 131.255 10.0298C132.152 9.49828 133.148 9.23254 134.211 9.23254C135.939 9.23254 137.267 9.83045 138.231 10.9931C139.194 12.1889 139.659 13.7833 139.659 15.8096C139.659 18.0684 139.094 19.8953 137.998 21.2904C136.902 22.6856 135.44 23.3831 133.647 23.3831C131.654 23.3499 130.159 22.453 129.196 20.6261ZM129.129 15.6103V17.3044C129.129 18.6663 129.561 19.8289 130.391 20.7922C131.255 21.7555 132.351 22.2537 133.746 22.2537C135.108 22.2537 136.238 21.6558 137.101 20.4932C137.965 19.2974 138.397 17.7694 138.397 15.8428C138.397 14.1487 137.998 12.82 137.201 11.8235C136.404 10.827 135.374 10.3287 134.045 10.3287C132.484 10.3287 131.255 10.8602 130.391 11.9231C129.528 12.9861 129.129 14.1819 129.129 15.6103ZM147 22.8184C146.369 23.1174 145.771 23.2503 145.239 23.2503C143.246 23.2503 142.25 22.0544 142.25 19.6628V10.6609H139.825V9.56471H142.25V6.04368L142.848 5.84437L143.446 5.64507V9.56471H147V10.6609H143.446V19.5631C143.446 20.4932 143.579 21.1576 143.878 21.5894C144.177 22.0212 144.675 22.2205 145.372 22.2205C145.871 22.2205 146.402 22.0544 147 21.7223V22.8184Z" fill="#007ACC"/>
</svg>
