<svg id="Layer_1" data-name="Layer 1" xmlns="http://www.w3.org/2000/svg" viewBox="0 0 150 150">
  <title>TypeScript logo - Brandlogos.net</title>
  <rect width="150" height="150" rx="14.65" ry="14.65" style="fill:#3178c6"/>
  <rect width="150" height="150" rx="14.65" ry="14.65" style="fill:#3178c6"/>
  <path d="M273.85,300.36V315a31.08,31.08,0,0,0,8.46,2.75,55.73,55.73,0,0,0,10.29.92,48.1,48.1,0,0,0,10-1,24.56,24.56,0,0,0,8.32-3.32,16.93,16.93,0,0,0,5.66-6,21.31,21.31,0,0,0,.89-16.22,16.34,16.34,0,0,0-3.44-5.34,25.18,25.18,0,0,0-5.39-4.19,57.71,57.71,0,0,0-7.08-3.51q-2.89-1.19-5.18-2.31a26.31,26.31,0,0,1-3.9-2.29A10,10,0,0,1,290,272a5.21,5.21,0,0,1-.87-3,4.94,4.94,0,0,1,.78-2.73,6.73,6.73,0,0,1,2.2-2.09,11.77,11.77,0,0,1,3.48-1.35,20.22,20.22,0,0,1,4.59-.48,29.09,29.09,0,0,1,3.87.27,30.66,30.66,0,0,1,4.1.85,28.57,28.57,0,0,1,4,1.44,22.11,22.11,0,0,1,3.6,2v-13.7a35.81,35.81,0,0,0-7.31-1.9,59.59,59.59,0,0,0-9.1-.62,42.31,42.31,0,0,0-9.9,1.12,25.19,25.19,0,0,0-8.23,3.51,17.52,17.52,0,0,0-5.62,6.07,17.8,17.8,0,0,0-2.06,8.82,17.11,17.11,0,0,0,3.78,11.18q3.78,4.63,11.49,7.84,3,1.24,5.64,2.43a31.39,31.39,0,0,1,4.52,2.47,11.84,11.84,0,0,1,3,2.8,5.69,5.69,0,0,1,1.1,3.44,5.26,5.26,0,0,1-.69,2.64,6.1,6.1,0,0,1-2.09,2.11,11.44,11.44,0,0,1-3.48,1.4,20.94,20.94,0,0,1-4.88.5,27.86,27.86,0,0,1-9.45-1.67,28.19,28.19,0,0,1-8.67-5ZM249.2,264.23H268v-12H215.57v12h18.72v53.59h14.9Z" transform="translate(-181 -181)" style="fill:#fff"/>
</svg>