<?xml version="1.0" encoding="UTF-8"?>
<svg id="Layer_1" xmlns="http://www.w3.org/2000/svg" xmlns:xlink="http://www.w3.org/1999/xlink" viewBox="0 0 792 612">
  <defs>
    <style>
      .cls-1 {
        fill: none;
      }

      .cls-2 {
        fill: #fff;
      }

      .cls-2, .cls-3, .cls-4 {
        fill-rule: evenodd;
      }

      .cls-3 {
        fill: #686868;
      }

      .cls-5 {
        clip-path: url(#clippath-36);
      }

      .cls-4 {
        fill: #1a126e;
      }
    </style>
    <clipPath id="clippath-4">
      <rect class="cls-1" y="57.15" width="792" height="497.71"/>
    </clipPath>
    <clipPath id="clippath-36">
      <rect class="cls-1" y="57.15" width="792" height="497.71"/>
    </clipPath>
  </defs>
  <g class="cls-5">
    <g id="Layer-6">
      <g>
        <g>
          <path class="cls-3" d="M438.34,206.51c-2.05.29-3.84,1.68-4.56,3.76-1.88,5.46-4.82,9.03-8.7,11.11-2,1.08-4.19,1.88-6.76,2.07-4.05.28-7.37-.53-10.22-2.16-3.65-2.08-6.48-5.61-8.49-11.03-1.02-2.72-3.91-4.26-6.68-3.55-10.73,2.61-20.84,6.84-29.96,12.55-2.44,1.54-3.31,4.67-2.07,7.27,2.4,5.06,2.87,9.43,1.82,13.44-.73,2.78-2.07,5.42-4.48,7.86-2.5,2.56-5.22,3.99-8.11,4.73-3.95,1.01-8.27.56-13.27-1.73-2.64-1.27-5.75-.31-7.22,2.2-5.66,9.3-9.76,19.42-12.17,30-.69,2.81.85,5.63,3.55,6.59,5.42,1.99,8.88,4.93,10.9,8.75,1.22,2.29,2.04,4.81,2.11,7.86.08,3.42-.73,6.26-2.07,8.79-1.99,3.73-5.38,6.64-10.69,8.7-2.66,1.01-4.18,3.87-3.51,6.63,2.52,10.44,6.78,20.44,12.59,29.74,1.52,2.43,4.5,3.31,7.1,2.15,5.67-2.53,10.48-2.73,14.83-.97,2.09.85,4.11,2,6,3.84,1.95,1.9,3.19,3.92,4.1,6.04,1.87,4.36,1.73,9.22-.76,14.96-1.14,2.57-.22,5.65,2.2,7.14,9.37,5.69,19.44,9.79,29.66,12.13.61.2,1.13.17,1.44.17,2.2,0,4.33-1.35,5.15-3.13.31-.52.5-.93.55-1.14,2.09-5.48,6.08-9.41,10.94-11.07.03,0,.06,0,.08,0,1.6-.54,3.28-.87,5.03-.89l.51-.04c1.74.02,3.37.34,4.94.8,5.15,1.52,9.32,5.26,11.53,10.77,1.49,3.58,4.63,5.17,8.41,4.18,9.47-2.39,18.64-6.2,27.34-11.36l1.23-.85c2.33-1.48,3.22-4.38,2.11-7.01-3.13-7.06-2.72-12.79.89-17.96,3.66-3.38,7.13-7,10.18-11.03l-21.55-16.35c-10.87,14.33-27.73,22.9-46.05,22.9-11.93,0-22.99-3.61-32.19-9.8-.03-.02-.06-.02-.08-.04-15.05-10.47-24.93-27.87-24.93-47.57,0-31.96,25.92-57.84,57.88-57.84,4.1,0,8.1.41,11.96,1.23,3.76.8,7.36,2.01,10.82,3.51.35.15.67.35,1.01.51,2.62,1.2,5.08,2.66,7.48,4.23,1,.66,2,1.3,2.96,2.03,1.38,1.03,2.65,2.19,3.93,3.34,4.58,4.16,8.57,8.99,11.66,14.53l23.62-13.18c-4.91-8.81-11.4-16.4-18.84-22.82-1.78-4.45-1.47-9.41,1.23-15.29,1.19-2.63.23-5.72-2.2-7.18-9.41-5.79-19.53-10-30.04-12.42-.71-.17-1.43-.18-2.11-.08Z"/>
          <path class="cls-3" d="M406.56,262.76c.89.13,1.67.73,1.98,1.63.82,2.37,2.1,3.92,3.78,4.83.87.47,1.82.82,2.94.9,1.76.12,3.2-.23,4.44-.94,1.58-.9,2.82-2.44,3.69-4.79.44-1.18,1.7-1.85,2.9-1.54,4.66,1.14,9.06,2.97,13.02,5.45,1.06.67,1.44,2.03.9,3.16-1.04,2.2-1.25,4.1-.79,5.84.32,1.21.9,2.35,1.95,3.42,1.09,1.11,2.27,1.73,3.53,2.06,1.72.44,3.6.24,5.77-.75,1.15-.55,2.5-.13,3.14.95,2.46,4.04,4.24,8.44,5.29,13.04.3,1.22-.37,2.45-1.54,2.86-2.35.87-3.86,2.14-4.74,3.8-.53.99-.89,2.09-.92,3.42-.03,1.49.32,2.72.9,3.82.86,1.62,2.34,2.89,4.65,3.78,1.15.44,1.82,1.68,1.52,2.88-1.09,4.54-2.95,8.88-5.47,12.93-.66,1.06-1.96,1.44-3.08.94-2.46-1.1-4.55-1.19-6.44-.42-.91.37-1.78.87-2.61,1.67-.85.83-1.39,1.71-1.78,2.63-.81,1.89-.75,4,.33,6.5.49,1.12.09,2.46-.95,3.1-4.07,2.47-8.45,4.26-12.89,5.27-.26.09-.49.07-.62.07-.96,0-1.88-.59-2.24-1.36-.13-.23-.22-.41-.24-.5-.91-2.38-2.64-4.09-4.76-4.81-.01,0-.02,0-.04,0-.69-.23-1.42-.38-2.19-.39l-.22-.02c-.76,0-1.46.15-2.15.35-2.24.66-4.05,2.29-5.01,4.68-.65,1.56-2.01,2.25-3.65,1.82-4.12-1.04-8.1-2.69-11.88-4.94l-.53-.37c-1.01-.64-1.4-1.9-.92-3.05,1.36-3.07,1.18-5.56-.39-7.8-1.59-1.47-3.1-3.04-4.43-4.79l9.36-7.11c4.72,6.23,12.05,9.95,20.01,9.95,5.18,0,9.99-1.57,13.99-4.26.01,0,.03-.01.04-.02,6.54-4.55,10.83-12.11,10.83-20.67,0-13.89-11.26-25.14-25.15-25.14-1.78,0-3.52.18-5.2.53-1.64.35-3.2.88-4.7,1.52-.15.07-.29.15-.44.22-1.14.52-2.21,1.16-3.25,1.84-.43.29-.87.57-1.28.88-.6.45-1.15.95-1.71,1.45-1.99,1.81-3.72,3.91-5.07,6.32l-10.26-5.73c2.14-3.83,4.96-7.13,8.19-9.91.78-1.94.64-4.09-.53-6.65-.52-1.14-.1-2.49.95-3.12,4.09-2.52,8.49-4.34,13.05-5.4.31-.07.62-.08.92-.04Z"/>
        </g>
        <g>
          <path class="cls-4" d="M40.49,331.6l119.33-59.66v19.01l-81.53,40.55,81.53,40.98v18.79l-119.33-59.66Z"/>
          <path class="cls-4" d="M190.59,391.27l-19.78-170.53h20.22l11.65,103.84,1.54,17.25h.55l2.2-17.25,17.91-103.84h20.22l20.44,108.01,2.09,16.48h.55l1.32-16.59,12.86-107.9h17.36l-20.66,170.53h-20.99l-21.98-115.59-2.31-17.36h-.55l-2.09,17.36-19.78,115.59h-20.77Z"/>
        </g>
        <g>
          <path class="cls-4" d="M513.07,396.38h-20.11l108.45-180.75h19.45l-107.79,180.75Z"/>
          <path class="cls-4" d="M751.51,331.55l-119.33,59.66v-19.01l81.64-40.54-81.64-40.99v-18.79l119.33,59.66Z"/>
        </g>
      </g>
      <g>
        <g>
          <path class="cls-3" d="M424.67,576.11c-1.83.26-3.43,1.51-4.07,3.38-2.55,7.4-7.07,11.25-13.82,11.76-8.25.58-13.56-3.15-16.76-11.79-.91-2.44-3.5-3.78-5.97-3.14-9.59,2.34-18.6,6.1-26.75,11.21-2.18,1.37-2.97,4.17-1.86,6.49,3.63,7.66,2.87,13.71-2.39,19.04-5.28,5.41-11.36,6.23-19.09,2.68-2.36-1.14-5.14-.26-6.46,1.98-5.06,8.32-8.73,17.35-10.88,26.8-.62,2.52.76,5.05,3.17,5.91,7.75,2.84,11.44,7.55,11.61,14.81.18,7.58-3.45,12.57-11.41,15.66-2.37.91-3.72,3.44-3.11,5.91,2.25,9.33,6.04,18.28,11.23,26.6,1.36,2.17,4.02,2.98,6.34,1.95,7.51-3.35,13.44-2.54,18.66,2.53,5.33,5.21,6.27,11.17,2.97,18.8-1.02,2.29-.18,5.04,1.98,6.37,8.38,5.09,17.38,8.74,26.51,10.83.54.18.98.18,1.25.18,1.97,0,3.89-1.21,4.63-2.8.28-.46.45-.86.49-1.05,2.5-6.53,7.99-10.62,14.35-10.68l.47-.03c6.63.08,12.12,3.92,14.7,10.36,1.33,3.2,4.16,4.61,7.54,3.73,8.47-2.13,16.64-5.54,24.42-10.16l1.11-.76c2.08-1.33,2.88-3.93,1.89-6.29-3.09-6.97-2.55-12.54,1.72-17.52,5.26-6.15,11.55-7.37,19.82-3.84,2.28.97,4.98.11,6.29-2.01,5.12-8.27,8.85-17.25,11.09-26.66.56-2.45-.77-4.98-3.11-5.88-7.67-2.94-11.31-7.65-11.47-14.84-.16-7.57,3.5-12.53,11.47-15.63,2.15-.82,3.46-3,3.2-5.24-.65-6.58-7.74-23.64-11.67-28.09-1.48-1.68-3.92-2.21-5.94-1.25-7.56,3.54-13.58,2.75-18.89-2.5-5.35-5.29-6.15-11.38-2.56-19.21,1.07-2.35.22-5.13-1.95-6.43-8.41-5.18-17.44-8.92-26.83-11.09-.64-.15-1.28-.17-1.89-.09Z"/>
          <path class="cls-2" d="M406.49,606.76c-31.52,0-57.07,25.55-57.07,57.07s25.55,57.07,57.07,57.07c18.08,0,34.76-8.5,45.47-22.62l-13.48-10.24c-7.55,9.96-19.26,15.94-31.99,15.94-22.17,0-40.15-17.98-40.15-40.15,0-22.17,17.98-40.15,40.15-40.15,14.72,0,28.04,7.99,35.09,20.62l14.77-8.27c-10.01-17.93-28.94-29.27-49.85-29.27Z"/>
        </g>
        <path class="cls-4" d="M191,749.6l-19.74-170.19h20.18l11.62,103.62,1.54,17.22h.55l2.19-17.22,17.87-103.62h20.18l20.4,107.79,2.08,16.45h.55l1.32-16.56,12.83-107.68h17.33l-20.62,170.19h-20.94l-21.93-115.36-2.3-17.33h-.55l-2.08,17.33-19.74,115.36h-20.73Z"/>
        <path class="cls-4" d="M512.84,754.69h-20.07l108.23-180.38h19.41l-107.57,180.38Z"/>
      </g>
    </g>
  </g>
</svg>