<?xml version="1.0" encoding="UTF-8"?>
<svg id="Layer_1" xmlns="http://www.w3.org/2000/svg" viewBox="0 0 720 216">
  <defs>
    <style>
      .cls-1 {
        fill: #686868;
      }

      .cls-1, .cls-2 {
        fill-rule: evenodd;
      }

      .cls-2 {
        fill: #1a126e;
      }
    </style>
  </defs>
  <path class="cls-2" d="M499.03,213.43L541.05,2.57h27.64l-42.29,210.87h-27.36Z"/>
  <path class="cls-2" d="M130.64,57.57v28.87l-87.03,30.74,87.03,30.84v28.77L8.74,130.42v-26.5l121.91-46.37h0Z"/>
  <path class="cls-2" d="M589.36,176.77v-28.87l87.03-30.74-87.03-30.84v-28.77l121.91,46.37v26.5l-121.91,46.37h0Z"/>
  <g>
    <path class="cls-1" d="M446.24,19.68c-1.82.26-3.41,1.48-4.05,3.33-1.68,4.85-4.28,8.02-7.72,9.87-1.78.95-3.72,1.67-6,1.84-3.6.25-6.54-.47-9.08-1.91-3.23-1.85-5.75-4.97-7.54-9.79-.91-2.42-3.47-3.78-5.93-3.15-9.53,2.32-18.5,6.07-26.59,11.14-2.16,1.36-2.94,4.15-1.84,6.45,2.13,4.49,2.55,8.37,1.61,11.93-.65,2.46-1.84,4.81-3.98,6.98-2.22,2.27-4.64,3.55-7.2,4.2-3.51.9-7.35.49-11.78-1.54-2.35-1.13-5.1-.27-6.41,1.95-5.03,8.26-8.67,17.24-10.8,26.63-.61,2.5.75,5,3.15,5.85,4.81,1.77,7.88,4.38,9.67,7.77,1.08,2.03,1.81,4.27,1.88,6.98.07,3.03-.65,5.56-1.84,7.8-1.76,3.32-4.77,5.9-9.49,7.72-2.35.9-3.71,3.44-3.11,5.89,2.24,9.27,6.02,18.15,11.18,26.4,1.35,2.15,3.99,2.94,6.3,1.91,5.04-2.25,9.31-2.43,13.16-.86,1.86.75,3.65,1.78,5.32,3.42,1.73,1.69,2.83,3.48,3.64,5.36,1.66,3.87,1.53,8.18-.68,13.27-1.01,2.28-.19,5.01,1.95,6.34,8.32,5.06,17.26,8.69,26.33,10.76.54.17,1,.15,1.27.15,1.96,0,3.84-1.2,4.57-2.78.27-.46.44-.82.49-1.02,1.86-4.86,5.4-8.35,9.71-9.83h.07c1.42-.48,2.91-.77,4.46-.79l.45-.04c1.54.02,3,.3,4.39.71,4.57,1.35,8.27,4.67,10.24,9.56,1.33,3.18,4.11,4.59,7.47,3.71,8.41-2.12,16.54-5.51,24.27-10.09l1.09-.75c2.06-1.31,2.86-3.89,1.88-6.23-2.78-6.27-2.41-11.36.79-15.94,3.24-3,6.32-6.22,9.03-9.79l-19.13-14.51c-9.66,12.71-24.62,20.33-40.88,20.33-10.59,0-20.41-3.21-28.58-8.7-.03-.02-.05-.02-.07-.04-13.36-9.29-22.13-24.73-22.13-42.23,0-28.37,23.01-51.34,51.38-51.34,3.64,0,7.19.37,10.62,1.09,3.34.71,6.54,1.79,9.6,3.11.3.14.6.31.9.45,2.33,1.06,4.51,2.36,6.64,3.75.89.59,1.78,1.15,2.63,1.8,1.23.92,2.35,1.95,3.49,2.96,4.06,3.69,7.6,7.98,10.35,12.9l20.96-11.7c-4.36-7.81-10.12-14.56-16.73-20.25-1.58-3.96-1.31-8.35,1.08-13.58,1.06-2.34.2-5.07-1.95-6.38-8.35-5.14-17.34-8.88-26.67-11.03-.63-.15-1.27-.16-1.88-.07h.05Z"/>
    <path class="cls-1" d="M418.01,69.61c.79.11,1.48.65,1.76,1.45.72,2.11,1.86,3.48,3.36,4.29.77.41,1.61.72,2.61.8,1.57.11,2.84-.2,3.95-.83,1.41-.81,2.5-2.16,3.28-4.25.39-1.05,1.51-1.64,2.57-1.36,4.14,1.01,8.04,2.64,11.56,4.84.94.6,1.27,1.8.8,2.8-.93,1.95-1.11,3.64-.71,5.18.28,1.07.8,2.09,1.73,3.03.96.99,2.02,1.54,3.13,1.82,1.52.39,3.19.22,5.12-.67,1.02-.49,2.22-.12,2.78.84,2.18,3.59,3.76,7.49,4.7,11.57.27,1.08-.33,2.17-1.37,2.55-2.09.77-3.43,1.91-4.2,3.37-.47.88-.79,1.86-.82,3.03-.03,1.32.28,2.42.8,3.39.77,1.44,2.07,2.56,4.12,3.36,1.03.39,1.61,1.49,1.36,2.56-.97,4.03-2.61,7.89-4.86,11.48-.59.93-1.74,1.27-2.74.83-2.19-.98-4.04-1.05-5.73-.38-.81.33-1.58.77-2.32,1.48-.75.73-1.23,1.51-1.58,2.33-.72,1.68-.67,3.55.29,5.77.44.99.08,2.18-.85,2.76-3.62,2.2-7.5,3.77-11.44,4.68-.23.07-.44.06-.55.06-.85,0-1.67-.52-1.99-1.21-.12-.2-.19-.36-.21-.44-.81-2.12-2.35-3.63-4.22-4.27h-.04c-.61-.21-1.26-.34-1.94-.34l-.19-.02c-.67,0-1.3.13-1.91.31-1.99.59-3.6,2.03-4.45,4.16-.58,1.38-1.79,2-3.24,1.61-3.66-.92-7.19-2.39-10.54-4.39l-.48-.33c-.9-.57-1.25-1.69-.82-2.7,1.21-2.72,1.04-4.94-.34-6.93-1.41-1.3-2.75-2.7-3.93-4.25l8.31-6.31c4.2,5.52,10.7,8.83,17.76,8.83,4.6,0,8.87-1.39,12.42-3.78,0,0,.02,0,.04-.02,5.81-4.04,9.62-10.75,9.62-18.35,0-12.33-10-22.32-22.33-22.32-1.58,0-3.12.16-4.62.48-1.46.31-2.84.78-4.17,1.36-.14.05-.26.14-.39.19-1.01.46-1.96,1.03-2.89,1.63-.38.26-.77.5-1.15.78-.53.39-1.02.84-1.51,1.29-1.77,1.6-3.31,3.47-4.5,5.61l-9.11-5.08c1.9-3.4,4.4-6.33,7.27-8.8.69-1.72.57-3.63-.48-5.9-.46-1.02-.09-2.21.84-2.77,3.63-2.24,7.53-3.86,11.59-4.79.27-.06.55-.07.82-.04h0Z"/>
  </g>
  <path class="cls-2" d="M304.65,40h28.88l-38.29,136.01h-27.12l-16.42-79.54-4.8-26.3-4.8,26.3-16.42,79.54h-26.39l-38.57-136.01h30.17l17.99,77.87,3.87,21.68,3.97-21.22,15.32-78.34h29.99l16.15,77.87,4.15,21.68,4.15-20.85,18.17-78.71h0Z"/>
</svg>