<svg xmlns="http://www.w3.org/2000/svg" viewBox="0 0 720 216">
  <defs>
    <style>
      .cls-1 {
        fill: #686868;
      }

      .cls-1, .cls-2 {
        fill-rule: evenodd;
      }

      .cls-2 {
        fill: #1a126e;
      }
    </style>
  </defs>
  <g>
    <path class="cls-1" d="M459.17,11.59c-1.99.28-3.72,1.62-4.42,3.64-1.83,5.29-4.67,8.75-8.43,10.77-1.94,1.04-4.06,1.82-6.55,2.01-3.93.27-7.14-.51-9.91-2.09-3.53-2.02-6.28-5.43-8.23-10.69-.99-2.64-3.79-4.13-6.47-3.44-10.4,2.53-20.2,6.63-29.03,12.16-2.36,1.49-3.21,4.53-2.01,7.04,2.32,4.9,2.78,9.14,1.76,13.02-.71,2.69-2.01,5.25-4.34,7.62-2.42,2.48-5.06,3.87-7.86,4.59-3.83.98-8.02.54-12.86-1.68-2.56-1.23-5.57-.3-7,2.13-5.49,9.02-9.46,18.82-11.79,29.07-.67,2.73.82,5.46,3.44,6.39,5.25,1.93,8.6,4.78,10.56,8.48,1.18,2.22,1.98,4.66,2.05,7.62.08,3.31-.71,6.07-2.01,8.52-1.92,3.62-5.21,6.44-10.36,8.43-2.57.98-4.05,3.75-3.4,6.43,2.44,10.12,6.57,19.81,12.2,28.82,1.47,2.35,4.36,3.21,6.88,2.09,5.5-2.46,10.16-2.65,14.37-.94,2.03.82,3.98,1.94,5.81,3.73,1.89,1.85,3.09,3.8,3.97,5.85,1.81,4.22,1.67,8.93-.74,14.49-1.1,2.49-.21,5.47,2.13,6.92,9.08,5.52,18.84,9.49,28.74,11.75.59.19,1.09.16,1.39.16,2.14,0,4.19-1.31,4.99-3.03.3-.5.48-.9.53-1.11,2.03-5.31,5.89-9.12,10.6-10.73.03,0,.05,0,.08,0,1.55-.52,3.18-.84,4.87-.86l.49-.04c1.68.02,3.27.33,4.79.78,4.99,1.47,9.03,5.1,11.18,10.44,1.45,3.47,4.49,5.01,8.15,4.05,9.18-2.31,18.06-6.01,26.49-11.01l1.19-.82c2.25-1.43,3.12-4.25,2.05-6.8-3.03-6.84-2.63-12.4.86-17.4,3.54-3.27,6.9-6.79,9.86-10.69l-20.88-15.84c-10.54,13.88-26.88,22.19-44.63,22.19-11.56,0-22.28-3.5-31.2-9.5-.03-.02-.06-.02-.08-.04-14.58-10.14-24.16-27-24.16-46.1,0-30.97,25.12-56.05,56.09-56.05,3.97,0,7.85.4,11.59,1.19,3.65.77,7.14,1.95,10.48,3.4.33.15.65.34.98.49,2.54,1.16,4.92,2.58,7.25,4.09.97.64,1.94,1.26,2.87,1.97,1.34,1,2.56,2.13,3.81,3.23,4.43,4.03,8.3,8.71,11.3,14.08l22.88-12.77c-4.76-8.53-11.05-15.89-18.26-22.11-1.73-4.32-1.43-9.12,1.18-14.82,1.16-2.55.22-5.54-2.13-6.96-9.12-5.61-18.93-9.69-29.11-12.04-.69-.16-1.39-.17-2.05-.08Z"/>
    <path class="cls-1" d="M428.36,66.1c.86.12,1.62.71,1.92,1.58.79,2.3,2.03,3.8,3.67,4.68.84.45,1.76.79,2.85.87,1.71.12,3.1-.22,4.31-.91,1.54-.88,2.73-2.36,3.58-4.64.43-1.15,1.65-1.79,2.81-1.49,4.52,1.1,8.78,2.88,12.62,5.28,1.03.65,1.39,1.97.87,3.06-1.01,2.13-1.21,3.97-.77,5.66.31,1.17.87,2.28,1.89,3.31,1.05,1.08,2.2,1.68,3.42,1.99,1.66.43,3.48.24,5.59-.73,1.11-.54,2.42-.13,3.04.92,2.38,3.92,4.11,8.18,5.13,12.63.29,1.18-.36,2.37-1.5,2.78-2.28.84-3.74,2.08-4.59,3.68-.51.96-.86,2.03-.89,3.31-.03,1.44.31,2.64.87,3.7.84,1.57,2.26,2.8,4.5,3.67,1.12.43,1.76,1.63,1.48,2.79-1.06,4.4-2.85,8.61-5.3,12.53-.64,1.02-1.9,1.39-2.99.91-2.39-1.07-4.41-1.15-6.25-.41-.88.36-1.73.84-2.53,1.62-.82.8-1.34,1.65-1.73,2.54-.79,1.83-.73,3.88.32,6.3.48,1.08.09,2.38-.93,3.01-3.95,2.4-8.19,4.12-12.49,5.11-.25.08-.48.07-.6.07-.93,0-1.82-.57-2.17-1.32-.13-.22-.21-.39-.23-.48-.88-2.31-2.56-3.96-4.61-4.66-.01,0-.02,0-.04,0-.67-.23-1.38-.37-2.12-.37l-.21-.02c-.73,0-1.42.14-2.08.34-2.17.64-3.93,2.22-4.86,4.54-.63,1.51-1.95,2.18-3.54,1.76-3.99-1-7.85-2.61-11.51-4.79l-.52-.36c-.98-.62-1.36-1.85-.89-2.95,1.32-2.97,1.14-5.39-.37-7.56-1.54-1.42-3-2.95-4.29-4.64l9.07-6.89c4.58,6.03,11.68,9.64,19.39,9.64,5.02,0,9.68-1.52,13.56-4.13.01,0,.02-.01.04-.02,6.34-4.41,10.5-11.74,10.5-20.03,0-13.46-10.92-24.36-24.38-24.36-1.73,0-3.41.17-5.04.52-1.59.34-3.1.85-4.55,1.48-.15.06-.28.15-.43.21-1.1.5-2.14,1.12-3.15,1.78-.42.28-.84.55-1.25.85-.58.43-1.11.92-1.65,1.41-1.93,1.75-3.61,3.79-4.91,6.12l-9.95-5.55c2.07-3.71,4.8-6.91,7.94-9.61.75-1.88.62-3.96-.52-6.44-.5-1.11-.1-2.41.92-3.02,3.96-2.44,8.22-4.21,12.65-5.23.3-.07.6-.08.89-.04Z"/>
  </g>
  <g>
    <path class="cls-2" d="M128.67,70.18v28.1l-84.71,29.92,84.71,30.02v28L10.01,141.09v-25.79l118.66-45.13Z"/>
    <path class="cls-2" d="M304.61,37.74h31.53l-41.8,148.47h-29.61l-17.93-86.83-5.24-28.71-5.24,28.71-17.93,86.83h-28.81l-42.1-148.47h32.94l19.64,85.01,4.23,23.67,4.33-23.17,16.72-85.52h32.74l17.63,85.01,4.53,23.67,4.53-22.76,19.84-85.92Z"/>
    <g>
      <path class="cls-2" d="M520.42,182.79l57.52-153h23.87l-57.71,153h-23.67Z"/>
      <path class="cls-2" d="M676.14,128.2l-84.81-29.92v-28.1l118.66,45.33v25.58l-118.66,45.13v-28l84.81-30.02Z"/>
    </g>
  </g>
</svg>