<svg width="600" height="196" viewBox="0 0 600 196" fill="none" xmlns="http://www.w3.org/2000/svg">
<path opacity="0.956" fill-rule="evenodd" clip-rule="evenodd" d="M347.5 27.5C347.998 30.3263 349.331 32.6597 351.5 34.5C351.5 35.1667 351.833 35.5 352.5 35.5C356.863 38.0901 361.196 38.0901 365.5 35.5C367.5 35.5 368.5 34.5 368.5 32.5C370.25 31.3406 371.25 29.674 371.5 27.5C372.5 27.1667 373.167 26.5 373.5 25.5C383.801 26.3226 392.967 29.9893 401 36.5C401.49 37.7932 401.657 39.1266 401.5 40.5C399.621 43.8561 399.121 47.5227 400 51.5C403.316 54.7478 406.65 58.0811 410 61.5C411.993 63.8175 413.159 66.4842 413.5 69.5C412.508 69.3284 411.842 69.6618 411.5 70.5C410.508 70.3284 409.842 70.6618 409.5 71.5C408.508 71.3284 407.842 71.6618 407.5 72.5C406.833 72.5 406.5 72.8333 406.5 73.5C405.508 73.3284 404.842 73.6618 404.5 74.5C403.508 74.3284 402.842 74.6618 402.5 75.5C401.508 75.3284 400.842 75.6618 400.5 76.5C399.508 76.3284 398.842 76.6618 398.5 77.5C397.833 77.5 397.5 77.8333 397.5 78.5C395.57 78.2294 394.236 77.2294 393.5 75.5C393.5 74.8333 393.167 74.5 392.5 74.5C392.573 72.9731 391.906 71.9731 390.5 71.5C390.5 70.8333 390.167 70.5 389.5 70.5C388.833 69.1667 387.833 68.1667 386.5 67.5C386.5 66.8333 386.167 66.5 385.5 66.5C384.101 65.1103 382.434 64.1103 380.5 63.5C380.5 62.8333 380.167 62.5 379.5 62.5C378.22 61.0687 376.553 60.4021 374.5 60.5C372.852 59.0735 370.852 58.2401 368.5 58C365.5 57.8333 362.5 57.6667 359.5 57.5C354.893 57.3164 350.56 57.983 346.5 59.5C344.447 59.4021 342.78 60.0687 341.5 61.5C340.508 61.3284 339.842 61.6618 339.5 62.5C338.508 62.3284 337.842 62.6618 337.5 63.5C336.833 63.5 336.5 63.8333 336.5 64.5C335.508 64.3284 334.842 64.6618 334.5 65.5C333.833 65.5 333.5 65.8333 333.5 66.5C332.833 66.5 332.5 66.8333 332.5 67.5C331.833 67.5 331.5 67.8333 331.5 68.5C329.5 68.5 328.5 69.5 328.5 71.5C327.833 71.5 327.5 71.8333 327.5 72.5C326.833 72.5 326.5 72.8333 326.5 73.5C325.833 73.5 325.5 73.8333 325.5 74.5C324.662 74.8417 324.328 75.5084 324.5 76.5C323.662 76.8417 323.328 77.5084 323.5 78.5C322.662 78.8417 322.328 79.5084 322.5 80.5C321.662 80.8417 321.328 81.5084 321.5 82.5C316.365 93.2701 316.198 104.27 321 115.5C322.306 118.621 324.14 121.287 326.5 123.5C326.427 125.027 327.094 126.027 328.5 126.5C328.5 127.167 328.833 127.5 329.5 127.5C329.5 128.167 329.833 128.5 330.5 128.5C330.5 129.167 330.833 129.5 331.5 129.5C331.973 130.906 332.973 131.573 334.5 131.5C341.552 137.239 349.719 139.906 359 139.5C369.596 139.804 378.763 136.471 386.5 129.5C387.167 129.5 387.5 129.167 387.5 128.5C388.167 128.5 388.5 128.167 388.5 127.5C389.167 127.5 389.5 127.167 389.5 126.5C390.906 126.027 391.573 125.027 391.5 123.5C393.284 123.893 394.95 124.559 396.5 125.5C396.5 126.167 396.833 126.5 397.5 126.5C400.842 129.268 404.342 131.934 408 134.5C408.579 135.928 408.412 137.262 407.5 138.5C406.833 138.5 406.5 138.833 406.5 139.5C405.833 139.5 405.5 139.833 405.5 140.5C404.167 141.167 403.167 142.167 402.5 143.5C401.662 143.842 401.328 144.508 401.5 145.5C400.102 146.777 399.436 148.443 399.5 150.5C400.38 153.802 401.046 157.135 401.5 160.5C400.662 160.842 400.328 161.508 400.5 162.5C399.508 162.328 398.842 162.662 398.5 163.5C397.833 163.5 397.5 163.833 397.5 164.5C396.508 164.328 395.842 164.662 395.5 165.5C394.508 165.328 393.842 165.662 393.5 166.5C392.508 166.328 391.842 166.662 391.5 167.5C390.508 167.328 389.842 167.662 389.5 168.5C388.209 168.263 387.209 168.596 386.5 169.5C385.508 169.328 384.842 169.662 384.5 170.5C383.209 170.263 382.209 170.596 381.5 171.5C379.901 171.232 378.568 171.566 377.5 172.5C374.3 171.956 371.967 170.29 370.5 167.5C370.573 165.973 369.906 164.973 368.5 164.5C364.961 160.835 360.628 159.668 355.5 161C354.584 161.278 353.918 161.778 353.5 162.5C351.5 162.5 350.5 163.5 350.5 165.5C349.833 165.5 349.5 165.833 349.5 166.5C348.662 166.842 348.328 167.508 348.5 168.5C347.662 168.842 347.328 169.508 347.5 170.5C346.833 170.5 346.5 170.833 346.5 171.5C345.508 171.328 344.842 171.662 344.5 172.5C336.439 170.806 328.772 167.973 321.5 164C319.773 162.611 318.439 160.944 317.5 159C319.548 155.164 319.881 151.331 318.5 147.5C318.737 146.209 318.404 145.209 317.5 144.5C316.415 142.413 314.749 141.08 312.5 140.5C311.003 139.694 309.336 139.028 307.5 138.5C305.664 139.028 303.997 139.694 302.5 140.5C300.473 140.662 298.473 140.495 296.5 140C295.303 137.985 293.97 136.151 292.5 134.5C292.672 133.508 292.338 132.842 291.5 132.5C291.672 131.508 291.338 130.842 290.5 130.5C290.672 129.508 290.338 128.842 289.5 128.5C289.737 127.209 289.404 126.209 288.5 125.5C288.672 124.508 288.338 123.842 287.5 123.5C287.149 120.762 286.482 118.096 285.5 115.5C286.128 113.742 287.128 112.242 288.5 111C290.91 110.4 292.91 109.234 294.5 107.5C300.237 97.9304 297.904 90.9304 287.5 86.5C286.447 85.5617 285.78 84.395 285.5 83C287.076 77.4407 288.743 71.9407 290.5 66.5C292.248 63.5695 294.248 60.7361 296.5 58C298.134 57.5065 299.801 57.3398 301.5 57.5C302.209 58.404 303.209 58.7373 304.5 58.5C306.167 59.8333 307.833 59.8333 309.5 58.5C318.711 55.8574 321.377 50.1907 317.5 41.5C316.959 38.3484 317.959 35.8484 320.5 34C327.357 29.8819 334.69 27.0485 342.5 25.5C344.514 25.4365 346.181 26.1032 347.5 27.5ZM371.5 27.5C372.5 27.1667 373.167 26.5 373.5 25.5C372.167 25.5 371.5 26.1667 371.5 27.5ZM365.5 35.5C367.5 35.5 368.5 34.5 368.5 32.5C367.167 33.1667 366.167 34.1667 365.5 35.5ZM348.5 66.5C347.22 67.9313 345.553 68.5979 343.5 68.5C344.78 67.0687 346.447 66.4021 348.5 66.5ZM331.5 68.5C330.833 69.8333 329.833 70.8333 328.5 71.5C328.5 69.5 329.5 68.5 331.5 68.5ZM354.5 68.5C356.479 70.1675 358.812 70.8342 361.5 70.5C359.712 71.6225 357.712 71.7891 355.5 71C354.748 70.3292 354.414 69.4959 354.5 68.5ZM390.5 71.5C391.906 71.9731 392.573 72.9731 392.5 74.5C391.833 74.1667 391.167 73.8333 390.5 73.5C390.5 72.8333 390.5 72.1667 390.5 71.5ZM326.5 123.5C327.167 123.833 327.833 124.167 328.5 124.5C328.5 125.167 328.5 125.833 328.5 126.5C327.094 126.027 326.427 125.027 326.5 123.5ZM391.5 123.5C391.573 125.027 390.906 126.027 389.5 126.5C389.5 125.833 389.5 125.167 389.5 124.5C390.167 124.167 390.833 123.833 391.5 123.5ZM331.5 129.5C332.167 129.5 332.833 129.5 333.5 129.5C333.833 130.167 334.167 130.833 334.5 131.5C332.973 131.573 331.973 130.906 331.5 129.5ZM312.5 140.5C309.167 140.5 305.833 140.5 302.5 140.5C303.997 139.694 305.664 139.028 307.5 138.5C309.336 139.028 311.003 139.694 312.5 140.5ZM353.5 162.5C352.833 163.833 351.833 164.833 350.5 165.5C350.5 163.5 351.5 162.5 353.5 162.5ZM370.5 167.5C370.573 165.973 369.906 164.973 368.5 164.5C368.427 166.027 369.094 167.027 370.5 167.5Z" fill="#686868"/>
<path opacity="0.01" fill-rule="evenodd" clip-rule="evenodd" d="M348.5 27.5C347.833 26.1667 347.833 26.1667 348.5 27.5Z" fill="#7F807F"/>
<path opacity="0.016" fill-rule="evenodd" clip-rule="evenodd" d="M348.5 27.5C349.525 27.8966 349.692 28.5632 349 29.5C348.536 28.9056 348.369 28.2389 348.5 27.5Z" fill="#535353"/>
<path opacity="0.01" fill-rule="evenodd" clip-rule="evenodd" d="M351.5 34.5C352.721 33.5354 354.054 33.702 355.5 35C354.552 35.4828 353.552 35.6495 352.5 35.5C351.833 35.5 351.5 35.1667 351.5 34.5Z" fill="#212121"/>
<path opacity="0.01" fill-rule="evenodd" clip-rule="evenodd" d="M465.5 37.5C471.319 36.3475 477.319 36.1808 483.5 37C477.509 37.4995 471.509 37.6662 465.5 37.5Z" fill="black"/>
<path opacity="0.012" fill-rule="evenodd" clip-rule="evenodd" d="M402.5 40.5C402.343 39.1266 402.51 37.7932 403 36.5C403.765 38.0657 403.598 39.3991 402.5 40.5Z" fill="#626262"/>
<path opacity="0.955" fill-rule="evenodd" clip-rule="evenodd" d="M483.5 42.5C482.662 42.8417 482.328 43.5084 482.5 44.5C481.596 45.209 481.263 46.209 481.5 47.5C480.069 48.7804 479.402 50.4471 479.5 52.5C478.596 53.209 478.263 54.209 478.5 55.5C477.069 56.7804 476.402 58.4471 476.5 60.5C475.596 61.209 475.263 62.209 475.5 63.5C474.662 63.8417 474.328 64.5084 474.5 65.5C473.661 66.6412 472.994 67.9745 472.5 69.5C473.632 76.7833 473.799 84.1166 473 91.5C472.826 86.3165 472.326 81.3165 471.5 76.5C471.167 72.5 470.833 72.5 470.5 76.5C469.596 77.209 469.263 78.209 469.5 79.5C468.662 79.8417 468.328 80.5084 468.5 81.5C467.596 82.209 467.263 83.209 467.5 84.5C466.069 85.7804 465.402 87.4471 465.5 89.5C464.596 90.209 464.263 91.209 464.5 92.5C463.069 93.7804 462.402 95.4471 462.5 97.5C461.596 98.209 461.263 99.209 461.5 100.5C460.662 100.842 460.328 101.508 460.5 102.5C459.596 103.209 459.263 104.209 459.5 105.5C458.596 106.209 458.263 107.209 458.5 108.5C457.662 108.842 457.328 109.508 457.5 110.5C456.596 111.209 456.263 112.209 456.5 113.5C455.069 114.78 454.402 116.447 454.5 118.5C453.596 119.209 453.263 120.209 453.5 121.5C452.069 122.78 451.402 124.447 451.5 126.5C450.596 127.209 450.263 128.209 450.5 129.5C449.069 130.78 448.402 132.447 448.5 134.5C447.596 135.209 447.263 136.209 447.5 137.5C446.662 137.842 446.328 138.508 446.5 139.5C445.596 140.209 445.263 141.209 445.5 142.5C444.596 143.209 444.263 144.209 444.5 145.5C443.662 145.842 443.328 146.508 443.5 147.5C442.596 148.209 442.263 149.209 442.5 150.5C441.596 151.209 441.263 152.209 441.5 153.5C440.662 153.842 440.328 154.508 440.5 155.5C434.167 155.5 427.833 155.5 421.5 155.5C421.5 154.5 421.5 153.5 421.5 152.5C424.874 144.718 427.874 136.718 430.5 128.5C432.02 126.11 433.02 123.443 433.5 120.5C435.02 118.11 436.02 115.443 436.5 112.5C441.541 100.386 446.208 88.0524 450.5 75.5C452.02 73.1098 453.02 70.4432 453.5 67.5C455.02 65.1098 456.02 62.4432 456.5 59.5C459.336 53.0127 462.002 46.3461 464.5 39.5C470.798 38.5037 477.132 38.1703 483.5 38.5C483.5 39.8333 483.5 41.1667 483.5 42.5Z" fill="#19116E"/>
<path opacity="0.012" fill-rule="evenodd" clip-rule="evenodd" d="M484.5 42.5C484.351 41.448 484.517 40.448 485 39.5C485.74 40.7494 485.573 41.7494 484.5 42.5Z" fill="#0E0140"/>
<path opacity="0.012" fill-rule="evenodd" clip-rule="evenodd" d="M401.5 40.5C401.833 40.5 402.167 40.5 402.5 40.5C402.167 44.5 401.833 44.5 401.5 40.5Z" fill="#404040"/>
<path opacity="0.01" fill-rule="evenodd" clip-rule="evenodd" d="M139.5 43.5C147.323 42.3439 155.323 42.1772 163.5 43C155.507 43.4997 147.507 43.6664 139.5 43.5Z" fill="black"/>
<path opacity="0.01" fill-rule="evenodd" clip-rule="evenodd" d="M198.5 43.5C206.323 42.3439 214.323 42.1772 222.5 43C214.507 43.4997 206.507 43.6664 198.5 43.5Z" fill="black"/>
<path opacity="0.01" fill-rule="evenodd" clip-rule="evenodd" d="M258.5 43.5C265.989 42.3443 273.655 42.1777 281.5 43C273.841 43.4997 266.174 43.6664 258.5 43.5Z" fill="black"/>
<path opacity="0.012" fill-rule="evenodd" clip-rule="evenodd" d="M317.5 41.5C317.649 42.552 317.483 43.552 317 44.5C316.26 43.2506 316.427 42.2506 317.5 41.5Z" fill="#3A3A3A"/>
<path opacity="0.012" fill-rule="evenodd" clip-rule="evenodd" d="M483.5 42.5C483.833 42.5 484.167 42.5 484.5 42.5C484.672 43.4916 484.338 44.1583 483.5 44.5C483.5 43.8333 483.5 43.1667 483.5 42.5Z" fill="#000080"/>
<path opacity="0.012" fill-rule="evenodd" clip-rule="evenodd" d="M482.5 44.5C482.833 44.5 483.167 44.5 483.5 44.5C483.737 45.791 483.404 46.791 482.5 47.5C482.5 46.5 482.5 45.5 482.5 44.5Z" fill="#12055E"/>
<path opacity="0.964" fill-rule="evenodd" clip-rule="evenodd" d="M165.5 46.5C165.74 51.1201 166.74 55.4535 168.5 59.5C168.74 64.1201 169.74 68.4535 171.5 72.5C171.74 77.1201 172.74 81.4535 174.5 85.5C174.42 88.7814 175.087 91.7814 176.5 94.5C176.232 96.099 176.566 97.4324 177.5 98.5C177.42 101.781 178.087 104.781 179.5 107.5C179.674 110.874 180.174 114.207 181 117.5C181.495 115.527 181.662 113.527 181.5 111.5C182.268 110.737 182.768 109.737 183 108.5C183.494 110.134 183.66 111.801 183.5 113.5C186.913 100.097 189.58 86.4305 191.5 72.5C193.862 63.3645 195.862 54.0311 197.5 44.5C206.167 44.5 214.833 44.5 223.5 44.5C224.137 49.0348 225.137 53.3681 226.5 57.5C227.565 65.743 229.232 73.743 231.5 81.5C233.343 93.0515 235.676 104.385 238.5 115.5C238.421 118.271 238.921 120.937 240 123.5C240.495 121.527 240.662 119.527 240.5 117.5C242.61 110.044 244.277 102.378 245.5 94.5C246.768 92.0948 247.435 89.4282 247.5 86.5C248.913 83.7814 249.58 80.7814 249.5 77.5C250.434 76.4324 250.768 75.099 250.5 73.5C251.913 70.7814 252.58 67.7814 252.5 64.5C253.434 63.4324 253.768 62.099 253.5 60.5C254.913 57.7814 255.58 54.7814 255.5 51.5C256.612 49.4006 257.279 47.0673 257.5 44.5C265.833 44.5 274.167 44.5 282.5 44.5C282.007 46.8056 281.674 49.139 281.5 51.5C280.566 52.5676 280.232 53.901 280.5 55.5C279.596 56.209 279.263 57.209 279.5 58.5C278.566 59.5676 278.232 60.901 278.5 62.5C277.596 63.209 277.263 64.209 277.5 65.5C276.566 66.5676 276.232 67.901 276.5 69.5C275.076 71.5145 274.41 73.8478 274.5 76.5C273.076 78.5145 272.41 80.8478 272.5 83.5C270.056 89.1808 268.389 95.1808 267.5 101.5C266.596 102.209 266.263 103.209 266.5 104.5C265.566 105.568 265.232 106.901 265.5 108.5C264.596 109.209 264.263 110.209 264.5 111.5C263.566 112.568 263.232 113.901 263.5 115.5C262.596 116.209 262.263 117.209 262.5 118.5C261.566 119.568 261.232 120.901 261.5 122.5C258.409 130.519 256.076 138.852 254.5 147.5C253.596 148.209 253.263 149.209 253.5 150.5C252.566 151.568 252.232 152.901 252.5 154.5C251.751 155.531 251.085 156.698 250.5 158C242.841 158.5 235.174 158.666 227.5 158.5C226.866 154.627 225.866 150.961 224.5 147.5C224.118 142.256 223.118 137.256 221.5 132.5C221.246 127.556 220.246 122.889 218.5 118.5C218.451 114.922 217.785 111.589 216.5 108.5C216.784 106.585 216.451 104.919 215.5 103.5C214.785 96.5893 213.451 89.9227 211.5 83.5C211.579 80.7294 211.079 78.0627 210 75.5C209.505 77.4727 209.338 79.4727 209.5 81.5C208.097 84.9085 207.43 88.5752 207.5 92.5C206.549 93.9187 206.216 95.5853 206.5 97.5C205.549 98.9187 205.216 100.585 205.5 102.5C204.087 105.219 203.42 108.219 203.5 111.5C202.549 112.919 202.216 114.585 202.5 116.5C201.549 117.919 201.216 119.585 201.5 121.5C200.549 122.919 200.216 124.585 200.5 126.5C199.549 127.919 199.216 129.585 199.5 131.5C198.087 134.219 197.42 137.219 197.5 140.5C196.549 141.919 196.216 143.585 196.5 145.5C195.549 146.919 195.216 148.585 195.5 150.5C194.549 151.919 194.216 153.585 194.5 155.5C193.596 156.209 193.263 157.209 193.5 158.5C185.804 158.831 178.138 158.497 170.5 157.5C170.006 155.974 169.339 154.641 168.5 153.5C168.768 151.901 168.434 150.568 167.5 149.5C167.279 146.933 166.612 144.599 165.5 142.5C164.739 137.563 163.405 132.897 161.5 128.5C161.737 127.209 161.404 126.209 160.5 125.5C160.59 122.848 159.924 120.515 158.5 118.5C158.258 114.521 157.258 110.854 155.5 107.5C152.101 93.2222 148.101 79.2222 143.5 65.5C143.59 62.8478 142.924 60.5145 141.5 58.5C141.59 55.8478 140.924 53.5145 139.5 51.5C139.768 49.901 139.434 48.5676 138.5 47.5C138.5 46.5 138.5 45.5 138.5 44.5C147.765 43.9054 156.765 44.5721 165.5 46.5ZM253.5 60.5C254.913 57.7814 255.58 54.7814 255.5 51.5C254.087 54.2186 253.42 57.2186 253.5 60.5ZM250.5 73.5C251.913 70.7814 252.58 67.7814 252.5 64.5C251.087 67.2186 250.42 70.2186 250.5 73.5ZM211.5 83.5C210.833 82.8333 210.167 82.1667 209.5 81.5C209.338 79.4727 209.505 77.4727 210 75.5C211.079 78.0627 211.579 80.7294 211.5 83.5ZM247.5 86.5C248.913 83.7814 249.58 80.7814 249.5 77.5C248.087 80.2186 247.42 83.2186 247.5 86.5ZM209.5 81.5C209.5 83.5 209.5 85.5 209.5 87.5C208.833 89.1667 208.167 90.8333 207.5 92.5C207.43 88.5752 208.097 84.9085 209.5 81.5ZM174.5 85.5C175.913 88.2186 176.58 91.2186 176.5 94.5C175.087 91.7814 174.42 88.7814 174.5 85.5ZM177.5 98.5C178.913 101.219 179.58 104.219 179.5 107.5C178.087 104.781 177.42 101.781 177.5 98.5ZM205.5 102.5C205.58 105.781 204.913 108.781 203.5 111.5C203.42 108.219 204.087 105.219 205.5 102.5ZM179.5 107.5C180.167 108.833 180.833 110.167 181.5 111.5C181.662 113.527 181.495 115.527 181 117.5C180.174 114.207 179.674 110.874 179.5 107.5ZM183.5 113.5C183.543 116.91 183.043 120.243 182 123.5C181.552 119.929 182.052 116.596 183.5 113.5ZM238.5 115.5C239.167 116.167 239.833 116.833 240.5 117.5C240.662 119.527 240.495 121.527 240 123.5C238.921 120.937 238.421 118.271 238.5 115.5Z" fill="#19116E"/>
<path opacity="0.01" fill-rule="evenodd" clip-rule="evenodd" d="M166.5 46.5C165.833 45.1667 165.833 45.1667 166.5 46.5Z" fill="#000080"/>
<path opacity="0.01" fill-rule="evenodd" clip-rule="evenodd" d="M137.5 47.5C136.475 47.1034 136.308 46.4368 137 45.5C137.464 46.0944 137.631 46.7611 137.5 47.5Z" fill="#FF01C2"/>
<path opacity="0.01" fill-rule="evenodd" clip-rule="evenodd" d="M283.5 48.5C283.351 47.448 283.517 46.448 284 45.5C284.74 46.7494 284.573 47.7494 283.5 48.5Z" fill="#100554"/>
<path opacity="0.012" fill-rule="evenodd" clip-rule="evenodd" d="M481.5 47.5C481.833 47.5 482.167 47.5 482.5 47.5C482.167 50.1667 481.833 50.1667 481.5 47.5Z" fill="#000055"/>
<path opacity="0.012" fill-rule="evenodd" clip-rule="evenodd" d="M137.5 47.5C137.833 47.5 138.167 47.5 138.5 47.5C138.5 48.8333 138.5 50.1667 138.5 51.5C137.566 50.4324 137.232 49.099 137.5 47.5Z" fill="#15084C"/>
<path opacity="0.016" fill-rule="evenodd" clip-rule="evenodd" d="M166.5 46.5C167.598 47.6009 167.765 48.9343 167 50.5C166.51 49.2068 166.343 47.8734 166.5 46.5Z" fill="#0D0481"/>
<path opacity="0.012" fill-rule="evenodd" clip-rule="evenodd" d="M283.5 48.5C283.737 49.791 283.404 50.791 282.5 51.5C282.263 50.209 282.596 49.209 283.5 48.5Z" fill="#0E044A"/>
<path opacity="0.012" fill-rule="evenodd" clip-rule="evenodd" d="M480.5 52.5C480.369 51.7611 480.536 51.0944 481 50.5C481.692 51.4368 481.525 52.1034 480.5 52.5Z" fill="#000080"/>
<path opacity="0.01" fill-rule="evenodd" clip-rule="evenodd" d="M281.5 51.5C281.833 51.5 282.167 51.5 282.5 51.5C282.768 53.099 282.434 54.4324 281.5 55.5C281.5 54.1667 281.5 52.8333 281.5 51.5Z" fill="#100565"/>
<path opacity="0.016" fill-rule="evenodd" clip-rule="evenodd" d="M138.5 51.5C138.833 51.5 139.167 51.5 139.5 51.5C139.167 55.5 138.833 55.5 138.5 51.5Z" fill="#000092"/>
<path opacity="0.01" fill-rule="evenodd" clip-rule="evenodd" d="M227.5 57.5C227.167 57.5 226.833 57.5 226.5 57.5C226.833 50.8333 227.167 50.8333 227.5 57.5Z" fill="#110575"/>
<path opacity="0.012" fill-rule="evenodd" clip-rule="evenodd" d="M479.5 52.5C479.833 52.5 480.167 52.5 480.5 52.5C480.737 53.791 480.404 54.791 479.5 55.5C479.5 54.5 479.5 53.5 479.5 52.5Z" fill="#0E044A"/>
<path opacity="0.012" fill-rule="evenodd" clip-rule="evenodd" d="M280.5 55.5C280.833 55.5 281.167 55.5 281.5 55.5C281.737 56.791 281.404 57.791 280.5 58.5C280.5 57.5 280.5 56.5 280.5 55.5Z" fill="#0E0140"/>
<path opacity="0.012" fill-rule="evenodd" clip-rule="evenodd" d="M478.5 55.5C478.833 55.5 479.167 55.5 479.5 55.5C479.167 58.1667 478.833 58.1667 478.5 55.5Z" fill="#000055"/>
<path opacity="0.012" fill-rule="evenodd" clip-rule="evenodd" d="M140.5 58.5C139.427 57.7494 139.26 56.7494 140 55.5C140.483 56.448 140.649 57.448 140.5 58.5Z" fill="#0E044A"/>
<path opacity="0.012" fill-rule="evenodd" clip-rule="evenodd" d="M169.5 59.5C169.167 59.5 168.833 59.5 168.5 59.5C168.833 54.1667 169.167 54.1667 169.5 59.5Z" fill="#0F045C"/>
<path opacity="0.012" fill-rule="evenodd" clip-rule="evenodd" d="M301.5 57.5C304.244 56.5094 306.911 56.8427 309.5 58.5C307.833 58.5 306.167 58.5 304.5 58.5C303.791 57.596 302.791 57.2627 301.5 57.5Z" fill="#414141"/>
<path opacity="0.012" fill-rule="evenodd" clip-rule="evenodd" d="M456.5 59.5C456.167 59.5 455.833 59.5 455.5 59.5C455.833 55.5 456.167 55.5 456.5 59.5Z" fill="#0E0140"/>
<path opacity="0.013" fill-rule="evenodd" clip-rule="evenodd" d="M227.5 57.5C228.598 58.6009 228.765 59.9343 228 61.5C227.51 60.2068 227.343 58.8734 227.5 57.5Z" fill="#100565"/>
<path opacity="0.01" fill-rule="evenodd" clip-rule="evenodd" d="M351.5 59.5C356.65 58.3493 361.984 58.1826 367.5 59C362.177 59.4994 356.844 59.666 351.5 59.5Z" fill="#3A3A3A"/>
<path opacity="0.012" fill-rule="evenodd" clip-rule="evenodd" d="M477.5 60.5C477.369 59.7611 477.536 59.0944 478 58.5C478.692 59.4368 478.525 60.1034 477.5 60.5Z" fill="#000080"/>
<path opacity="0.016" fill-rule="evenodd" clip-rule="evenodd" d="M140.5 58.5C140.833 58.5 141.167 58.5 141.5 58.5C141.167 62.5 140.833 62.5 140.5 58.5Z" fill="#000092"/>
<path opacity="0.012" fill-rule="evenodd" clip-rule="evenodd" d="M279.5 58.5C279.833 58.5 280.167 58.5 280.5 58.5C280.768 60.099 280.434 61.4324 279.5 62.5C279.5 61.1667 279.5 59.8333 279.5 58.5Z" fill="#14067C"/>
<path opacity="0.016" fill-rule="evenodd" clip-rule="evenodd" d="M346.5 60.5C346.5 60.1667 346.5 59.8333 346.5 59.5C351.833 59.8333 351.833 60.1667 346.5 60.5Z" fill="#2C2C2C"/>
<path opacity="0.012" fill-rule="evenodd" clip-rule="evenodd" d="M368.5 60.5C369.251 59.4265 370.251 59.2599 371.5 60C370.552 60.4828 369.552 60.6495 368.5 60.5Z" fill="#404040"/>
<path opacity="0.01" fill-rule="evenodd" clip-rule="evenodd" d="M346.5 60.5C346.103 61.525 345.437 61.6917 344.5 61C345.094 60.5357 345.761 60.369 346.5 60.5Z" fill="#696969"/>
<path opacity="0.012" fill-rule="evenodd" clip-rule="evenodd" d="M374.5 60.5C374.5 60.8333 374.5 61.1667 374.5 61.5C371.833 61.1667 371.833 60.8333 374.5 60.5Z" fill="#626262"/>
<path opacity="0.016" fill-rule="evenodd" clip-rule="evenodd" d="M455.5 59.5C455.631 60.2389 455.464 60.9056 455 61.5C454.308 60.5632 454.475 59.8966 455.5 59.5Z" fill="#0000A8"/>
<path opacity="0.012" fill-rule="evenodd" clip-rule="evenodd" d="M341.5 62.5C341.5 62.1667 341.5 61.8333 341.5 61.5C344.167 61.8333 344.167 62.1667 341.5 62.5Z" fill="#545554"/>
<path opacity="0.012" fill-rule="evenodd" clip-rule="evenodd" d="M374.5 61.5C375.239 61.369 375.906 61.5357 376.5 62C375.563 62.6917 374.897 62.525 374.5 61.5Z" fill="#393939"/>
<path opacity="0.012" fill-rule="evenodd" clip-rule="evenodd" d="M476.5 60.5C476.833 60.5 477.167 60.5 477.5 60.5C477.737 61.791 477.404 62.791 476.5 63.5C476.5 62.5 476.5 61.5 476.5 60.5Z" fill="#0E044A"/>
<path opacity="0.016" fill-rule="evenodd" clip-rule="evenodd" d="M169.5 59.5C170.598 60.6009 170.765 61.9343 170 63.5C169.51 62.2068 169.343 60.8734 169.5 59.5Z" fill="#0D0481"/>
<path opacity="0.012" fill-rule="evenodd" clip-rule="evenodd" d="M278.5 62.5C278.833 62.5 279.167 62.5 279.5 62.5C279.737 63.791 279.404 64.791 278.5 65.5C278.5 64.5 278.5 63.5 278.5 62.5Z" fill="#FF017C"/>
<path opacity="0.01" fill-rule="evenodd" clip-rule="evenodd" d="M339.5 63.5C339.5 63.1667 339.5 62.8333 339.5 62.5C340.167 62.5 340.833 62.5 341.5 62.5C341.158 63.3382 340.492 63.6716 339.5 63.5Z" fill="#717171"/>
<path opacity="0.01" fill-rule="evenodd" clip-rule="evenodd" d="M379.5 62.5C380.167 62.5 380.5 62.8333 380.5 63.5C379.503 64.7125 378.503 64.5458 377.5 63C378.094 62.5357 378.761 62.369 379.5 62.5Z" fill="#242424"/>
<path opacity="0.012" fill-rule="evenodd" clip-rule="evenodd" d="M142.5 65.5C141.427 64.7494 141.26 63.7494 142 62.5C142.483 63.448 142.649 64.448 142.5 65.5Z" fill="#0E044A"/>
<path opacity="0.012" fill-rule="evenodd" clip-rule="evenodd" d="M228.5 62.5C229.598 63.6009 229.765 64.9343 229 66.5C228.51 65.2068 228.343 63.8734 228.5 62.5Z" fill="#0F045C"/>
<path opacity="0.01" fill-rule="evenodd" clip-rule="evenodd" d="M337.5 64.5C337.5 64.1667 337.5 63.8333 337.5 63.5C338.167 63.5 338.833 63.5 339.5 63.5C339.158 64.3382 338.492 64.6716 337.5 64.5Z" fill="#7F807F"/>
<path opacity="0.012" fill-rule="evenodd" clip-rule="evenodd" d="M336.5 64.5C336.833 64.5 337.167 64.5 337.5 64.5C337.315 65.1701 336.981 65.1701 336.5 64.5Z" fill="#545554"/>
<path opacity="0.01" fill-rule="evenodd" clip-rule="evenodd" d="M475.5 63.5C475.833 63.5 476.167 63.5 476.5 63.5C476.672 64.4916 476.338 65.1583 475.5 65.5C475.5 64.8333 475.5 64.1667 475.5 63.5Z" fill="#000071"/>
<path opacity="0.016" fill-rule="evenodd" clip-rule="evenodd" d="M290.5 66.5C290.167 66.5 289.833 66.5 289.5 66.5C289.833 63.8333 290.167 63.8333 290.5 66.5Z" fill="#2C2C2C"/>
<path opacity="0.01" fill-rule="evenodd" clip-rule="evenodd" d="M334.5 66.5C334.5 66.1667 334.5 65.8333 334.5 65.5C335.167 65.5 335.833 65.5 336.5 65.5C336.158 66.3382 335.492 66.6716 334.5 66.5Z" fill="#C2C2C2"/>
<path opacity="0.012" fill-rule="evenodd" clip-rule="evenodd" d="M453.5 67.5C453.167 67.5 452.833 67.5 452.5 67.5C452.833 63.5 453.167 63.5 453.5 67.5Z" fill="#0E044A"/>
<path opacity="0.016" fill-rule="evenodd" clip-rule="evenodd" d="M142.5 65.5C142.833 65.5 143.167 65.5 143.5 65.5C143.167 69.5 142.833 69.5 142.5 65.5Z" fill="#000092"/>
<path opacity="0.012" fill-rule="evenodd" clip-rule="evenodd" d="M277.5 65.5C277.833 65.5 278.167 65.5 278.5 65.5C278.768 67.099 278.434 68.4324 277.5 69.5C277.5 68.1667 277.5 66.8333 277.5 65.5Z" fill="#15084C"/>
<path opacity="0.016" fill-rule="evenodd" clip-rule="evenodd" d="M333.5 66.5C333.833 66.5 334.167 66.5 334.5 66.5C334.315 67.1701 333.981 67.1701 333.5 66.5Z" fill="#7F807F"/>
<path opacity="0.889" fill-rule="evenodd" clip-rule="evenodd" d="M348.5 66.5C350.886 66.2587 352.886 66.9254 354.5 68.5C354.414 69.4959 354.748 70.3292 355.5 71C357.712 71.7891 359.712 71.6225 361.5 70.5C362.756 68.6561 364.423 67.3228 366.5 66.5C371.177 67.1639 374.843 69.3305 377.5 73C376.591 74.7892 376.424 76.6226 377 78.5C379.964 79.0008 383.131 79.8342 386.5 81C388.858 84.5478 390.525 88.3811 391.5 92.5C390.5 92.8333 389.833 93.5 389.5 94.5C388.508 94.3284 387.842 94.6618 387.5 95.5C386.662 95.8417 386.328 96.5084 386.5 97.5C385.167 98.5 385.167 99.5 386.5 100.5C388.041 102.502 389.708 104.502 391.5 106.5C390.596 107.209 390.263 108.209 390.5 109.5C389.596 110.209 389.263 111.209 389.5 112.5C388.662 112.842 388.328 113.508 388.5 114.5C387.833 114.5 387.5 114.833 387.5 115.5C386.662 115.842 386.328 116.508 386.5 117.5C384.801 117.38 383.135 117.046 381.5 116.5C379.829 116.668 378.496 117.335 377.5 118.5C376.189 120.56 376.189 122.726 377.5 125C376.619 125.708 375.953 126.542 375.5 127.5C374.833 127.5 374.5 127.833 374.5 128.5C373.508 128.328 372.842 128.662 372.5 129.5C371.209 129.263 370.209 129.596 369.5 130.5C368.209 130.263 367.209 130.596 366.5 131.5C364.859 130.853 363.526 129.853 362.5 128.5C360.428 125.266 358.095 124.933 355.5 127.5C354.833 127.5 354.5 127.833 354.5 128.5C353.662 128.842 353.328 129.508 353.5 130.5C349.089 130.797 345.089 129.631 341.5 127C340.872 124.061 340.205 121.228 339.5 118.5C338.71 117.206 337.71 116.039 336.5 115C338.928 113.039 341.428 111.206 344 109.5C346.468 111.803 349.301 113.47 352.5 114.5C358.489 117.241 364.156 116.574 369.5 112.5C370.167 112.5 370.5 112.167 370.5 111.5C375.413 106.926 377.246 101.259 376 94.5C375.626 92.5087 374.793 90.842 373.5 89.5C373.573 87.9731 372.906 86.9731 371.5 86.5C371.027 85.0937 370.027 84.427 368.5 84.5C365.88 82.1054 362.713 81.1054 359 81.5C355.85 81.3603 353.017 82.027 350.5 83.5C349.508 83.3284 348.842 83.6618 348.5 84.5C347.833 84.5 347.5 84.8333 347.5 85.5C346.833 85.5 346.5 85.8333 346.5 86.5C345.833 86.5 345.5 86.8333 345.5 87.5C344.833 87.5 344.5 87.8333 344.5 88.5C343.662 88.8417 343.328 89.5084 343.5 90.5C340.393 89.1113 337.393 87.4446 334.5 85.5C335.851 82.8037 337.684 80.4704 340 78.5C339.962 74.6 341.129 71.2667 343.5 68.5C345.553 68.5979 347.22 67.9313 348.5 66.5ZM354.5 68.5C356.479 70.1675 358.812 70.8342 361.5 70.5C359.712 71.6225 357.712 71.7891 355.5 71C354.748 70.3292 354.414 69.4959 354.5 68.5ZM368.5 84.5C370.027 84.427 371.027 85.0937 371.5 86.5C370.833 86.5 370.167 86.5 369.5 86.5C369.167 85.8333 368.833 85.1667 368.5 84.5ZM371.5 86.5C372.906 86.9731 373.573 87.9731 373.5 89.5C372.833 89.1667 372.167 88.8333 371.5 88.5C371.5 87.8333 371.5 87.1667 371.5 86.5Z" fill="#686868"/>
<path opacity="0.01" fill-rule="evenodd" clip-rule="evenodd" d="M385.5 66.5C386.167 66.5 386.5 66.8333 386.5 67.5C385.503 68.7125 384.503 68.5458 383.5 67C384.094 66.5357 384.761 66.369 385.5 66.5Z" fill="#2B2B2B"/>
<path opacity="0.01" fill-rule="evenodd" clip-rule="evenodd" d="M414.5 69.5C414.351 68.448 414.517 67.448 415 66.5C415.74 67.7494 415.573 68.7494 414.5 69.5Z" fill="#5E5E5E"/>
<path opacity="0.01" fill-rule="evenodd" clip-rule="evenodd" d="M474.5 65.5C474.833 65.5 475.167 65.5 475.5 65.5C476.087 66.7666 476.087 67.7666 475.5 68.5C474.614 67.675 474.281 66.675 474.5 65.5Z" fill="#100565"/>
<path opacity="0.012" fill-rule="evenodd" clip-rule="evenodd" d="M289.5 66.5C289.631 67.2389 289.464 67.9056 289 68.5C288.308 67.5632 288.475 66.8966 289.5 66.5Z" fill="#393939"/>
<path opacity="0.012" fill-rule="evenodd" clip-rule="evenodd" d="M332.5 67.5C332.833 67.5 333.167 67.5 333.5 67.5C333.315 68.1701 332.981 68.1701 332.5 67.5Z" fill="#545554"/>
<path opacity="0.01" fill-rule="evenodd" clip-rule="evenodd" d="M126.5 69.5C125.833 68.1667 125.833 68.1667 126.5 69.5Z" fill="black"/>
<path opacity="0.016" fill-rule="evenodd" clip-rule="evenodd" d="M452.5 67.5C452.631 68.2389 452.464 68.9056 452 69.5C451.308 68.5632 451.475 67.8966 452.5 67.5Z" fill="#0000A8"/>
<path opacity="0.012" fill-rule="evenodd" clip-rule="evenodd" d="M172.5 72.5C172.167 72.5 171.833 72.5 171.5 72.5C171.833 67.1667 172.167 67.1667 172.5 72.5Z" fill="#0F045C"/>
<path opacity="0.01" fill-rule="evenodd" clip-rule="evenodd" d="M413.5 69.5C413.833 69.5 414.167 69.5 414.5 69.5C414.315 70.1701 413.981 70.1701 413.5 69.5Z" fill="black"/>
<path opacity="0.961" fill-rule="evenodd" clip-rule="evenodd" d="M508.5 81.5C508.842 82.3382 509.508 82.6716 510.5 82.5C521.872 87.4045 533.538 91.7378 545.5 95.5C551.21 98.3463 557.21 100.68 563.5 102.5C565.41 109.556 566.076 116.889 565.5 124.5C561.873 125.321 558.54 126.654 555.5 128.5C554.508 128.328 553.842 128.662 553.5 129.5C552.209 129.263 551.209 129.596 550.5 130.5C549.209 130.263 548.209 130.596 547.5 131.5C546.508 131.328 545.842 131.662 545.5 132.5C541.463 133.065 537.797 134.399 534.5 136.5C533.209 136.263 532.209 136.596 531.5 137.5C530.508 137.328 529.842 137.662 529.5 138.5C528.209 138.263 527.209 138.596 526.5 139.5C525.209 139.263 524.209 139.596 523.5 140.5C522.508 140.328 521.842 140.662 521.5 141.5C517.463 142.065 513.797 143.399 510.5 145.5C509.508 145.328 508.842 145.662 508.5 146.5C507.209 146.263 506.209 146.596 505.5 147.5C504.209 147.263 503.209 147.596 502.5 148.5C501.508 148.328 500.842 148.662 500.5 149.5C496.463 150.065 492.797 151.399 489.5 153.5C488.508 153.328 487.842 153.662 487.5 154.5C486.209 154.263 485.209 154.596 484.5 155.5C483.209 155.263 482.209 155.596 481.5 156.5C480.508 156.328 479.842 156.662 479.5 157.5C478.209 157.263 477.209 157.596 476.5 158.5C474.535 151.24 473.868 143.573 474.5 135.5C494.864 129.269 514.864 122.269 534.5 114.5C538.5 114.167 538.5 113.833 534.5 113.5C534.158 112.662 533.492 112.328 532.5 112.5C529.785 110.928 526.785 109.928 523.5 109.5C518.047 107.125 512.381 105.125 506.5 103.5C501.047 101.125 495.381 99.1255 489.5 97.5C484.784 95.2613 479.784 93.5946 474.5 92.5C474.169 84.8045 474.503 77.1378 475.5 69.5C486.382 73.9044 497.382 77.9044 508.5 81.5Z" fill="#19116E"/>
<path opacity="0.012" fill-rule="evenodd" clip-rule="evenodd" d="M126.5 69.5C127.655 76.6549 127.822 83.9882 127 91.5C126.5 84.1742 126.334 76.8409 126.5 69.5Z" fill="#030051"/>
<path opacity="0.012" fill-rule="evenodd" clip-rule="evenodd" d="M143.5 69.5C144.573 70.2506 144.74 71.2506 144 72.5C143.517 71.552 143.351 70.552 143.5 69.5Z" fill="#0E044A"/>
<path opacity="0.016" fill-rule="evenodd" clip-rule="evenodd" d="M191.5 72.5C191.167 72.5 190.833 72.5 190.5 72.5C190.833 65.8333 191.167 65.8333 191.5 72.5Z" fill="#0A0379"/>
<path opacity="0.016" fill-rule="evenodd" clip-rule="evenodd" d="M276.5 69.5C276.833 69.5 277.167 69.5 277.5 69.5C277.167 73.5 276.833 73.5 276.5 69.5Z" fill="#000092"/>
<path opacity="0.01" fill-rule="evenodd" clip-rule="evenodd" d="M411.5 71.5C411.5 71.1667 411.5 70.8333 411.5 70.5C412.167 70.5 412.833 70.5 413.5 70.5C413.158 71.3382 412.492 71.6716 411.5 71.5Z" fill="#1F1F1F"/>
<path opacity="0.961" fill-rule="evenodd" clip-rule="evenodd" d="M125.5 69.5C125.5 77.1667 125.5 84.8333 125.5 92.5C124.209 92.2627 123.209 92.596 122.5 93.5C121.209 93.2627 120.209 93.596 119.5 94.5C118.209 94.2627 117.209 94.596 116.5 95.5C115.209 95.2627 114.209 95.596 113.5 96.5C111.447 96.4021 109.78 97.0687 108.5 98.5C107.209 98.2627 106.209 98.596 105.5 99.5C104.209 99.2627 103.209 99.596 102.5 100.5C101.209 100.263 100.209 100.596 99.5 101.5C98.209 101.263 97.209 101.596 96.5 102.5C94.4471 102.402 92.7804 103.069 91.5 104.5C90.209 104.263 89.209 104.596 88.5 105.5C87.209 105.263 86.209 105.596 85.5 106.5C84.209 106.263 83.209 106.596 82.5 107.5C81.209 107.263 80.209 107.596 79.5 108.5C77.4471 108.402 75.7804 109.069 74.5 110.5C72.901 110.232 71.5676 110.566 70.5 111.5C69.5084 111.328 68.8417 111.662 68.5 112.5C66.4357 112.687 64.4357 113.187 62.5 114C73.165 117.611 83.8316 121.111 94.5 124.5C99.8012 127.269 105.468 129.269 111.5 130.5C114.797 132.601 118.463 133.935 122.5 134.5C123.209 135.404 124.209 135.737 125.5 135.5C125.5 143.167 125.5 150.833 125.5 158.5C95.4459 147.37 65.4459 136.037 35.5 124.5C34.1667 117.5 34.1667 110.5 35.5 103.5C60.5207 93.6092 85.5207 83.9425 110.5 74.5C111.492 74.6716 112.158 74.3382 112.5 73.5C116.822 72.1708 121.155 70.8375 125.5 69.5Z" fill="#19116E"/>
<path opacity="0.01" fill-rule="evenodd" clip-rule="evenodd" d="M378.5 71.5C379.573 72.2506 379.74 73.2506 379 74.5C378.517 73.552 378.351 72.552 378.5 71.5Z" fill="#5E5E5E"/>
<path opacity="0.01" fill-rule="evenodd" clip-rule="evenodd" d="M389.5 70.5C390.167 70.5 390.5 70.8333 390.5 71.5C390.5 72.1667 390.5 72.8333 390.5 73.5C388.618 72.779 388.285 71.779 389.5 70.5Z" fill="#202020"/>
<path opacity="0.01" fill-rule="evenodd" clip-rule="evenodd" d="M409.5 72.5C409.5 72.1667 409.5 71.8333 409.5 71.5C410.167 71.5 410.833 71.5 411.5 71.5C411.158 72.3382 410.492 72.6716 409.5 72.5Z" fill="#7F807F"/>
<path opacity="0.012" fill-rule="evenodd" clip-rule="evenodd" d="M112.5 73.5C111.508 73.3284 110.842 73.6618 110.5 74.5C108.653 74.7658 107.986 74.4325 108.5 73.5C109.995 72.2947 111.328 72.2947 112.5 73.5Z" fill="#0F0553"/>
<path opacity="0.016" fill-rule="evenodd" clip-rule="evenodd" d="M327.5 72.5C328.833 73.1667 328.833 73.1667 327.5 72.5Z" fill="#7F807F"/>
<path opacity="0.01" fill-rule="evenodd" clip-rule="evenodd" d="M407.5 73.5C407.5 73.1667 407.5 72.8333 407.5 72.5C408.167 72.5 408.833 72.5 409.5 72.5C409.158 73.3382 408.492 73.6716 407.5 73.5Z" fill="#535353"/>
<path opacity="0.01" fill-rule="evenodd" clip-rule="evenodd" d="M172.5 72.5C173.598 73.6009 173.765 74.9343 173 76.5C172.51 75.2068 172.343 73.8734 172.5 72.5Z" fill="#0D0658"/>
<path opacity="0.012" fill-rule="evenodd" clip-rule="evenodd" d="M406.5 73.5C406.833 73.5 407.167 73.5 407.5 73.5C407.315 74.1701 406.981 74.1701 406.5 73.5Z" fill="#545554"/>
<path opacity="0.012" fill-rule="evenodd" clip-rule="evenodd" d="M450.5 75.5C450.167 75.5 449.833 75.5 449.5 75.5C449.833 71.5 450.167 71.5 450.5 75.5Z" fill="#0E044A"/>
<path opacity="0.012" fill-rule="evenodd" clip-rule="evenodd" d="M190.5 72.5C190.784 74.4147 190.451 76.0813 189.5 77.5C189.216 75.5853 189.549 73.9187 190.5 72.5Z" fill="#110653"/>
<path opacity="0.012" fill-rule="evenodd" clip-rule="evenodd" d="M275.5 76.5C275.351 75.448 275.517 74.448 276 73.5C276.74 74.7494 276.573 75.7494 275.5 76.5Z" fill="#0E044A"/>
<path opacity="0.01" fill-rule="evenodd" clip-rule="evenodd" d="M326.5 73.5C326.833 73.5 327.167 73.5 327.5 73.5C327.573 75.0269 326.906 76.0269 325.5 76.5C325.5 75.8333 325.5 75.1667 325.5 74.5C326.167 74.5 326.5 74.1667 326.5 73.5Z" fill="#2B2B2B"/>
<path opacity="0.01" fill-rule="evenodd" clip-rule="evenodd" d="M404.5 75.5C404.5 75.1667 404.5 74.8333 404.5 74.5C405.167 74.5 405.833 74.5 406.5 74.5C406.158 75.3382 405.492 75.6716 404.5 75.5Z" fill="#1F1F1F"/>
<path opacity="0.01" fill-rule="evenodd" clip-rule="evenodd" d="M402.5 76.5C402.5 76.1667 402.5 75.8333 402.5 75.5C403.167 75.5 403.833 75.5 404.5 75.5C404.158 76.3382 403.492 76.6716 402.5 76.5Z" fill="#C2C2C2"/>
<path opacity="0.012" fill-rule="evenodd" clip-rule="evenodd" d="M449.5 75.5C449.631 76.2389 449.464 76.9056 449 77.5C448.308 76.5632 448.475 75.8966 449.5 75.5Z" fill="#000080"/>
<path opacity="0.01" fill-rule="evenodd" clip-rule="evenodd" d="M274.5 76.5C274.833 76.5 275.167 76.5 275.5 76.5C275.167 80.5 274.833 80.5 274.5 76.5Z" fill="#000080"/>
<path opacity="0.01" fill-rule="evenodd" clip-rule="evenodd" d="M393.5 75.5C393.631 76.2389 393.464 76.9056 393 77.5C392.308 76.5632 392.475 75.8966 393.5 75.5Z" fill="#717171"/>
<path opacity="0.01" fill-rule="evenodd" clip-rule="evenodd" d="M400.5 77.5C400.5 77.1667 400.5 76.8333 400.5 76.5C401.167 76.5 401.833 76.5 402.5 76.5C402.158 77.3382 401.492 77.6716 400.5 77.5Z" fill="#7F807F"/>
<path opacity="0.012" fill-rule="evenodd" clip-rule="evenodd" d="M470.5 76.5C470.833 76.5 471.167 76.5 471.5 76.5C471.737 77.791 471.404 78.791 470.5 79.5C470.5 78.5 470.5 77.5 470.5 76.5Z" fill="#0E0140"/>
<path opacity="0.01" fill-rule="evenodd" clip-rule="evenodd" d="M324.5 76.5C324.833 76.5 325.167 76.5 325.5 76.5C325.672 77.4916 325.338 78.1583 324.5 78.5C324.5 77.8333 324.5 77.1667 324.5 76.5Z" fill="#2B2B2B"/>
<path opacity="0.012" fill-rule="evenodd" clip-rule="evenodd" d="M398.5 78.5C398.5 78.1667 398.5 77.8333 398.5 77.5C399.167 77.5 399.833 77.5 400.5 77.5C400.158 78.3382 399.492 78.6716 398.5 78.5Z" fill="#393939"/>
<path opacity="0.012" fill-rule="evenodd" clip-rule="evenodd" d="M397.5 78.5C397.833 78.5 398.167 78.5 398.5 78.5C398.315 79.1701 397.981 79.1701 397.5 78.5Z" fill="#545554"/>
<path opacity="0.012" fill-rule="evenodd" clip-rule="evenodd" d="M189.5 77.5C189.784 79.4147 189.451 81.0813 188.5 82.5C188.216 80.5853 188.549 78.9187 189.5 77.5Z" fill="#110653"/>
<path opacity="0.016" fill-rule="evenodd" clip-rule="evenodd" d="M232.5 81.5C232.167 81.5 231.833 81.5 231.5 81.5C231.833 74.8333 232.167 74.8333 232.5 81.5Z" fill="#0E0497"/>
<path opacity="0.01" fill-rule="evenodd" clip-rule="evenodd" d="M323.5 78.5C323.833 78.5 324.167 78.5 324.5 78.5C324.672 79.4916 324.338 80.1583 323.5 80.5C323.5 79.8333 323.5 79.1667 323.5 78.5Z" fill="#191919"/>
<path opacity="0.01" fill-rule="evenodd" clip-rule="evenodd" d="M397.5 79.5C397.103 80.525 396.437 80.6917 395.5 80C396.094 79.5357 396.761 79.369 397.5 79.5Z" fill="#2B2B2B"/>
<path opacity="0.012" fill-rule="evenodd" clip-rule="evenodd" d="M469.5 79.5C469.833 79.5 470.167 79.5 470.5 79.5C470.672 80.4916 470.338 81.1583 469.5 81.5C469.5 80.8333 469.5 80.1667 469.5 79.5Z" fill="#000080"/>
<path opacity="0.01" fill-rule="evenodd" clip-rule="evenodd" d="M508.5 81.5C510.089 80.3789 511.756 80.5456 513.5 82C512.552 82.4828 511.552 82.6495 510.5 82.5C510.158 81.6618 509.492 81.3284 508.5 81.5Z" fill="#190B4E"/>
<path opacity="0.012" fill-rule="evenodd" clip-rule="evenodd" d="M209.5 81.5C210.167 82.1667 210.833 82.8333 211.5 83.5C211.5 85.5 211.5 87.5 211.5 89.5C210.833 88.8333 210.167 88.1667 209.5 87.5C209.5 85.5 209.5 83.5 209.5 81.5Z" fill="#150763"/>
<path opacity="0.012" fill-rule="evenodd" clip-rule="evenodd" d="M273.5 83.5C273.351 82.448 273.517 81.448 274 80.5C274.74 81.7494 274.573 82.7494 273.5 83.5Z" fill="#0E044A"/>
<path opacity="0.01" fill-rule="evenodd" clip-rule="evenodd" d="M322.5 80.5C322.833 80.5 323.167 80.5 323.5 80.5C323.672 81.4916 323.338 82.1583 322.5 82.5C322.5 81.8333 322.5 81.1667 322.5 80.5Z" fill="#191919"/>
<path opacity="0.013" fill-rule="evenodd" clip-rule="evenodd" d="M232.5 81.5C233.598 82.6009 233.765 83.9343 233 85.5C232.51 84.2068 232.343 82.8734 232.5 81.5Z" fill="#100565"/>
<path opacity="0.016" fill-rule="evenodd" clip-rule="evenodd" d="M468.5 81.5C468.833 81.5 469.167 81.5 469.5 81.5C469.737 82.791 469.404 83.791 468.5 84.5C468.5 83.5 468.5 82.5 468.5 81.5Z" fill="#18087B"/>
<path opacity="0.01" fill-rule="evenodd" clip-rule="evenodd" d="M272.5 83.5C272.833 83.5 273.167 83.5 273.5 83.5C273.167 87.5 272.833 87.5 272.5 83.5Z" fill="#000080"/>
<path opacity="0.01" fill-rule="evenodd" clip-rule="evenodd" d="M321.5 82.5C321.833 82.5 322.167 82.5 322.5 82.5C322.167 85.1667 321.833 85.1667 321.5 82.5Z" fill="#696969"/>
<path opacity="0.01" fill-rule="evenodd" clip-rule="evenodd" d="M350.5 84.5C350.5 84.1667 350.5 83.8333 350.5 83.5C353.167 83.8333 353.167 84.1667 350.5 84.5Z" fill="#717171"/>
<path opacity="0.012" fill-rule="evenodd" clip-rule="evenodd" d="M188.5 82.5C188.66 84.1992 188.494 85.8659 188 87.5C187.22 85.6131 187.387 83.9464 188.5 82.5Z" fill="#110653"/>
<path opacity="0.01" fill-rule="evenodd" clip-rule="evenodd" d="M332.5 84.5C333.833 85.1667 333.833 85.1667 332.5 84.5Z" fill="black"/>
<path opacity="0.01" fill-rule="evenodd" clip-rule="evenodd" d="M348.5 84.5C349.167 84.5 349.833 84.5 350.5 84.5C350.027 85.9063 349.027 86.573 347.5 86.5C347.5 86.1667 347.5 85.8333 347.5 85.5C348.167 85.5 348.5 85.1667 348.5 84.5Z" fill="#2B2B2B"/>
<path opacity="0.012" fill-rule="evenodd" clip-rule="evenodd" d="M467.5 84.5C467.833 84.5 468.167 84.5 468.5 84.5C468.167 87.1667 467.833 87.1667 467.5 84.5Z" fill="#000055"/>
<path opacity="0.016" fill-rule="evenodd" clip-rule="evenodd" d="M346.5 86.5C346.833 86.5 347.167 86.5 347.5 86.5C347.315 87.1701 346.981 87.1701 346.5 86.5Z" fill="#7F807F"/>
<path opacity="0.01" fill-rule="evenodd" clip-rule="evenodd" d="M369.5 86.5C370.167 86.5 370.833 86.5 371.5 86.5C371.5 87.1667 371.5 87.8333 371.5 88.5C370.5 88.1667 369.833 87.5 369.5 86.5Z" fill="#BDBDBD"/>
<path opacity="0.012" fill-rule="evenodd" clip-rule="evenodd" d="M233.5 86.5C234.598 87.6009 234.765 88.9343 234 90.5C233.51 89.2068 233.343 87.8734 233.5 86.5Z" fill="#0F045C"/>
<path opacity="0.016" fill-rule="evenodd" clip-rule="evenodd" d="M345.5 87.5C345.833 87.5 346.167 87.5 346.5 87.5C346.315 88.1701 345.981 88.1701 345.5 87.5Z" fill="#7F807F"/>
<path opacity="0.012" fill-rule="evenodd" clip-rule="evenodd" d="M466.5 89.5C466.369 88.7611 466.536 88.0944 467 87.5C467.692 88.4368 467.525 89.1034 466.5 89.5Z" fill="#000080"/>
<path opacity="0.012" fill-rule="evenodd" clip-rule="evenodd" d="M271.5 87.5C272.573 88.2506 272.74 89.2506 272 90.5C271.517 89.552 271.351 88.552 271.5 87.5Z" fill="#0E044A"/>
<path opacity="0.01" fill-rule="evenodd" clip-rule="evenodd" d="M344.5 88.5C344.833 88.5 345.167 88.5 345.5 88.5C345.672 89.4916 345.338 90.1583 344.5 90.5C344.5 89.8333 344.5 89.1667 344.5 88.5Z" fill="#4E4E4E"/>
<path opacity="0.01" fill-rule="evenodd" clip-rule="evenodd" d="M343.5 90.5C343.833 90.5 344.167 90.5 344.5 90.5C344.315 91.1701 343.981 91.1701 343.5 90.5Z" fill="black"/>
<path opacity="0.01" fill-rule="evenodd" clip-rule="evenodd" d="M392.5 92.5C392.369 91.7611 392.536 91.0944 393 90.5C393.692 91.4368 393.525 92.1034 392.5 92.5Z" fill="black"/>
<path opacity="0.012" fill-rule="evenodd" clip-rule="evenodd" d="M465.5 89.5C465.833 89.5 466.167 89.5 466.5 89.5C466.737 90.791 466.404 91.791 465.5 92.5C465.5 91.5 465.5 90.5 465.5 89.5Z" fill="#0E044A"/>
<path opacity="0.012" fill-rule="evenodd" clip-rule="evenodd" d="M245.5 94.5C245.167 94.5 244.833 94.5 244.5 94.5C244.833 89.1667 245.167 89.1667 245.5 94.5Z" fill="#0F045C"/>
<path opacity="0.01" fill-rule="evenodd" clip-rule="evenodd" d="M343.5 91.5C343.103 92.525 342.437 92.6917 341.5 92C342.094 91.5357 342.761 91.369 343.5 91.5Z" fill="black"/>
<path opacity="0.01" fill-rule="evenodd" clip-rule="evenodd" d="M211.5 89.5C212.451 90.9187 212.784 92.5853 212.5 94.5C211.549 93.0813 211.216 91.4147 211.5 89.5Z" fill="#14032A"/>
<path opacity="0.01" fill-rule="evenodd" clip-rule="evenodd" d="M391.5 92.5C391.833 92.5 392.167 92.5 392.5 92.5C392.315 93.1701 391.981 93.1701 391.5 92.5Z" fill="#7F807F"/>
<path opacity="0.01" fill-rule="evenodd" clip-rule="evenodd" d="M122.5 94.5C122.5 94.1667 122.5 93.8333 122.5 93.5C125.167 93.8333 125.167 94.1667 122.5 94.5Z" fill="#000080"/>
<path opacity="0.01" fill-rule="evenodd" clip-rule="evenodd" d="M464.5 92.5C464.833 92.5 465.167 92.5 465.5 92.5C465.167 95.1667 464.833 95.1667 464.5 92.5Z" fill="#000071"/>
<path opacity="0.01" fill-rule="evenodd" clip-rule="evenodd" d="M119.5 95.5C119.5 95.1667 119.5 94.8333 119.5 94.5C120.5 94.5 121.5 94.5 122.5 94.5C121.791 95.404 120.791 95.7373 119.5 95.5Z" fill="#12055E"/>
<path opacity="0.01" fill-rule="evenodd" clip-rule="evenodd" d="M389.5 94.5C390.833 95.1667 390.833 95.1667 389.5 94.5Z" fill="#FEFFFE"/>
<path opacity="0.01" fill-rule="evenodd" clip-rule="evenodd" d="M545.5 95.5C545.897 94.475 546.563 94.3083 547.5 95C546.906 95.4643 546.239 95.631 545.5 95.5Z" fill="#000080"/>
<path opacity="0.01" fill-rule="evenodd" clip-rule="evenodd" d="M116.5 96.5C116.5 96.1667 116.5 95.8333 116.5 95.5C117.5 95.5 118.5 95.5 119.5 95.5C118.791 96.404 117.791 96.7373 116.5 96.5Z" fill="#12055E"/>
<path opacity="0.012" fill-rule="evenodd" clip-rule="evenodd" d="M212.5 94.5C213.598 95.6009 213.765 96.9343 213 98.5C212.51 97.2068 212.343 95.8734 212.5 94.5Z" fill="#0F045C"/>
<path opacity="0.01" fill-rule="evenodd" clip-rule="evenodd" d="M387.5 95.5C388.167 95.5 388.833 95.5 389.5 95.5C389.167 96.5 388.5 97.1667 387.5 97.5C387.5 96.8333 387.5 96.1667 387.5 95.5Z" fill="#747474"/>
<path opacity="0.01" fill-rule="evenodd" clip-rule="evenodd" d="M548.5 96.5C548.897 95.475 549.563 95.3083 550.5 96C549.906 96.4643 549.239 96.631 548.5 96.5Z" fill="#0000D2"/>
<path opacity="0.01" fill-rule="evenodd" clip-rule="evenodd" d="M113.5 97.5C113.5 97.1667 113.5 96.8333 113.5 96.5C114.5 96.5 115.5 96.5 116.5 96.5C115.791 97.404 114.791 97.7373 113.5 97.5Z" fill="#0000BD"/>
<path opacity="0.01" fill-rule="evenodd" clip-rule="evenodd" d="M463.5 97.5C463.369 96.7611 463.536 96.0944 464 95.5C464.692 96.4368 464.525 97.1034 463.5 97.5Z" fill="#0000D2"/>
<path opacity="0.01" fill-rule="evenodd" clip-rule="evenodd" d="M113.5 97.5C113.103 98.525 112.437 98.6917 111.5 98C112.094 97.5357 112.761 97.369 113.5 97.5Z" fill="#000080"/>
<path opacity="0.012" fill-rule="evenodd" clip-rule="evenodd" d="M206.5 97.5C207.613 98.9464 207.78 100.613 207 102.5C206.506 100.866 206.34 99.1992 206.5 97.5Z" fill="#110575"/>
<path opacity="0.016" fill-rule="evenodd" clip-rule="evenodd" d="M244.5 94.5C244.657 95.8734 244.49 97.2068 244 98.5C243.235 96.9343 243.402 95.6009 244.5 94.5Z" fill="#0D0481"/>
<path opacity="0.01" fill-rule="evenodd" clip-rule="evenodd" d="M386.5 97.5C386.833 97.5 387.167 97.5 387.5 97.5C387.5 98.5 387.5 99.5 387.5 100.5C387.167 100.5 386.833 100.5 386.5 100.5C386.5 99.5 386.5 98.5 386.5 97.5Z" fill="#5E5E5E"/>
<path opacity="0.01" fill-rule="evenodd" clip-rule="evenodd" d="M489.5 97.5C489.5 97.8333 489.5 98.1667 489.5 98.5C485.5 98.1667 485.5 97.8333 489.5 97.5Z" fill="#18087B"/>
<path opacity="0.01" fill-rule="evenodd" clip-rule="evenodd" d="M108.5 99.5C108.5 99.1667 108.5 98.8333 108.5 98.5C111.167 98.8333 111.167 99.1667 108.5 99.5Z" fill="#000080"/>
<path opacity="0.012" fill-rule="evenodd" clip-rule="evenodd" d="M462.5 97.5C462.833 97.5 463.167 97.5 463.5 97.5C463.737 98.791 463.404 99.791 462.5 100.5C462.5 99.5 462.5 98.5 462.5 97.5Z" fill="#0E044A"/>
<path opacity="0.01" fill-rule="evenodd" clip-rule="evenodd" d="M489.5 98.5C490.239 98.369 490.906 98.5357 491.5 99C490.563 99.6917 489.897 99.525 489.5 98.5Z" fill="#000080"/>
<path opacity="0.01" fill-rule="evenodd" clip-rule="evenodd" d="M105.5 100.5C105.5 100.167 105.5 99.8333 105.5 99.5C106.5 99.5 107.5 99.5 108.5 99.5C107.791 100.404 106.791 100.737 105.5 100.5Z" fill="#12055E"/>
<path opacity="0.013" fill-rule="evenodd" clip-rule="evenodd" d="M214.5 103.5C213.402 102.399 213.235 101.066 214 99.5C214.49 100.793 214.657 102.127 214.5 103.5Z" fill="#100565"/>
<path opacity="0.01" fill-rule="evenodd" clip-rule="evenodd" d="M102.5 101.5C102.5 101.167 102.5 100.833 102.5 100.5C103.5 100.5 104.5 100.5 105.5 100.5C104.791 101.404 103.791 101.737 102.5 101.5Z" fill="#12055E"/>
<path opacity="0.012" fill-rule="evenodd" clip-rule="evenodd" d="M387.5 100.5C388.167 100.5 388.5 100.833 388.5 101.5C388.167 101.167 387.833 100.833 387.5 100.5Z" fill="#545554"/>
<path opacity="0.01" fill-rule="evenodd" clip-rule="evenodd" d="M99.5 102.5C99.5 102.167 99.5 101.833 99.5 101.5C100.5 101.5 101.5 101.5 102.5 101.5C101.791 102.404 100.791 102.737 99.5 102.5Z" fill="#12055E"/>
<path opacity="0.012" fill-rule="evenodd" clip-rule="evenodd" d="M267.5 101.5C268.833 102.5 268.833 103.5 267.5 104.5C267.5 103.5 267.5 102.5 267.5 101.5Z" fill="#0E0140"/>
<path opacity="0.012" fill-rule="evenodd" clip-rule="evenodd" d="M388.5 101.5C389.833 102.167 389.833 102.167 388.5 101.5Z" fill="#545554"/>
<path opacity="0.01" fill-rule="evenodd" clip-rule="evenodd" d="M461.5 100.5C461.833 100.5 462.167 100.5 462.5 100.5C462.672 101.492 462.338 102.158 461.5 102.5C461.5 101.833 461.5 101.167 461.5 100.5Z" fill="#000071"/>
<path opacity="0.01" fill-rule="evenodd" clip-rule="evenodd" d="M563.5 102.5C563.897 101.475 564.563 101.308 565.5 102C564.906 102.464 564.239 102.631 563.5 102.5Z" fill="#000080"/>
<path opacity="0.01" fill-rule="evenodd" clip-rule="evenodd" d="M96.5 103.5C96.5 103.167 96.5 102.833 96.5 102.5C97.5 102.5 98.5 102.5 99.5 102.5C98.791 103.404 97.791 103.737 96.5 103.5Z" fill="#0000BD"/>
<path opacity="0.01" fill-rule="evenodd" clip-rule="evenodd" d="M96.5 103.5C96.1034 104.525 95.4368 104.692 94.5 104C95.0944 103.536 95.7611 103.369 96.5 103.5Z" fill="#000080"/>
<path opacity="0.016" fill-rule="evenodd" clip-rule="evenodd" d="M460.5 102.5C460.833 102.5 461.167 102.5 461.5 102.5C461.737 103.791 461.404 104.791 460.5 105.5C460.5 104.5 460.5 103.5 460.5 102.5Z" fill="#18087B"/>
<path opacity="0.01" fill-rule="evenodd" clip-rule="evenodd" d="M506.5 103.5C506.5 103.833 506.5 104.167 506.5 104.5C502.5 104.167 502.5 103.833 506.5 103.5Z" fill="#0000BD"/>
<path opacity="0.01" fill-rule="evenodd" clip-rule="evenodd" d="M91.5 105.5C91.5 105.167 91.5 104.833 91.5 104.5C94.1667 104.833 94.1667 105.167 91.5 105.5Z" fill="#000080"/>
<path opacity="0.013" fill-rule="evenodd" clip-rule="evenodd" d="M214.5 103.5C214.833 103.5 215.167 103.5 215.5 103.5C215.5 105.167 215.5 106.833 215.5 108.5C214.549 107.081 214.216 105.415 214.5 103.5Z" fill="#140754"/>
<path opacity="0.01" fill-rule="evenodd" clip-rule="evenodd" d="M506.5 104.5C507.239 104.369 507.906 104.536 508.5 105C507.563 105.692 506.897 105.525 506.5 104.5Z" fill="#000080"/>
<path opacity="0.01" fill-rule="evenodd" clip-rule="evenodd" d="M566.5 124.5C566.334 117.492 566.5 110.492 567 103.5C567.821 110.679 567.655 117.679 566.5 124.5Z" fill="#1606E5"/>
<path opacity="0.012" fill-rule="evenodd" clip-rule="evenodd" d="M32.4998 103.5C33.6544 110.321 33.8211 117.321 32.9998 124.5C32.5002 117.508 32.3335 110.508 32.4998 103.5Z" fill="#0000A8"/>
<path opacity="0.01" fill-rule="evenodd" clip-rule="evenodd" d="M88.5 106.5C88.5 106.167 88.5 105.833 88.5 105.5C89.5 105.5 90.5 105.5 91.5 105.5C90.791 106.404 89.791 106.737 88.5 106.5Z" fill="#12055E"/>
<path opacity="0.012" fill-rule="evenodd" clip-rule="evenodd" d="M266.5 104.5C266.833 104.5 267.167 104.5 267.5 104.5C267.768 106.099 267.434 107.432 266.5 108.5C266.5 107.167 266.5 105.833 266.5 104.5Z" fill="#14067C"/>
<path opacity="0.01" fill-rule="evenodd" clip-rule="evenodd" d="M294.5 107.5C291.999 107.489 291.832 106.822 294 105.5C294.464 106.094 294.631 106.761 294.5 107.5Z" fill="#7F807F"/>
<path opacity="0.01" fill-rule="evenodd" clip-rule="evenodd" d="M392.5 105.5C393.833 106.167 393.833 106.167 392.5 105.5Z" fill="black"/>
<path opacity="0.012" fill-rule="evenodd" clip-rule="evenodd" d="M459.5 105.5C459.833 105.5 460.167 105.5 460.5 105.5C460.737 106.791 460.404 107.791 459.5 108.5C459.5 107.5 459.5 106.5 459.5 105.5Z" fill="#0E0140"/>
<path opacity="0.01" fill-rule="evenodd" clip-rule="evenodd" d="M85.5 107.5C85.5 107.167 85.5 106.833 85.5 106.5C86.5 106.5 87.5 106.5 88.5 106.5C87.791 107.404 86.791 107.737 85.5 107.5Z" fill="#12055E"/>
<path opacity="0.01" fill-rule="evenodd" clip-rule="evenodd" d="M391.5 106.5C391.833 106.5 392.167 106.5 392.5 106.5C392.737 107.791 392.404 108.791 391.5 109.5C391.5 108.5 391.5 107.5 391.5 106.5Z" fill="#7F807F"/>
<path opacity="0.01" fill-rule="evenodd" clip-rule="evenodd" d="M82.5 108.5C82.5 108.167 82.5 107.833 82.5 107.5C83.5 107.5 84.5 107.5 85.5 107.5C84.791 108.404 83.791 108.737 82.5 108.5Z" fill="#12055E"/>
<path opacity="0.01" fill-rule="evenodd" clip-rule="evenodd" d="M155.5 107.5C155.649 108.552 155.483 109.552 155 110.5C154.26 109.251 154.427 108.251 155.5 107.5Z" fill="#000080"/>
<path opacity="0.01" fill-rule="evenodd" clip-rule="evenodd" d="M79.5 109.5C79.5 109.167 79.5 108.833 79.5 108.5C80.5 108.5 81.5 108.5 82.5 108.5C81.791 109.404 80.791 109.737 79.5 109.5Z" fill="#0000BD"/>
<path opacity="0.012" fill-rule="evenodd" clip-rule="evenodd" d="M265.5 108.5C265.833 108.5 266.167 108.5 266.5 108.5C266.737 109.791 266.404 110.791 265.5 111.5C265.5 110.5 265.5 109.5 265.5 108.5Z" fill="#0E0140"/>
<path opacity="0.01" fill-rule="evenodd" clip-rule="evenodd" d="M79.5 109.5C79.1034 110.525 78.4368 110.692 77.5 110C78.0944 109.536 78.7611 109.369 79.5 109.5Z" fill="#000080"/>
<path opacity="0.016" fill-rule="evenodd" clip-rule="evenodd" d="M215.5 108.5C215.833 108.5 216.167 108.5 216.5 108.5C216.167 115.167 215.833 115.167 215.5 108.5Z" fill="#140689"/>
<path opacity="0.01" fill-rule="evenodd" clip-rule="evenodd" d="M458.5 108.5C458.833 108.5 459.167 108.5 459.5 108.5C459.672 109.492 459.338 110.158 458.5 110.5C458.5 109.833 458.5 109.167 458.5 108.5Z" fill="#00008D"/>
<path opacity="0.01" fill-rule="evenodd" clip-rule="evenodd" d="M523.5 109.5C523.5 109.833 523.5 110.167 523.5 110.5C519.5 110.167 519.5 109.833 523.5 109.5Z" fill="#0000BD"/>
<path opacity="0.01" fill-rule="evenodd" clip-rule="evenodd" d="M74.5 111.5C74.5 111.167 74.5 110.833 74.5 110.5C77.1667 110.833 77.1667 111.167 74.5 111.5Z" fill="#000080"/>
<path opacity="0.012" fill-rule="evenodd" clip-rule="evenodd" d="M390.5 109.5C390.833 109.5 391.167 109.5 391.5 109.5C391.737 110.791 391.404 111.791 390.5 112.5C390.5 111.5 390.5 110.5 390.5 109.5Z" fill="#4A4A4A"/>
<path opacity="0.012" fill-rule="evenodd" clip-rule="evenodd" d="M436.5 112.5C436.167 112.5 435.833 112.5 435.5 112.5C435.833 108.5 436.167 108.5 436.5 112.5Z" fill="#0E044A"/>
<path opacity="0.01" fill-rule="evenodd" clip-rule="evenodd" d="M523.5 110.5C524.239 110.369 524.906 110.536 525.5 111C524.563 111.692 523.897 111.525 523.5 110.5Z" fill="#000080"/>
<path opacity="0.012" fill-rule="evenodd" clip-rule="evenodd" d="M70.5 112.5C70.5 112.167 70.5 111.833 70.5 111.5C71.8333 111.5 73.1667 111.5 74.5 111.5C73.4324 112.434 72.099 112.768 70.5 112.5Z" fill="#12043C"/>
<path opacity="0.013" fill-rule="evenodd" clip-rule="evenodd" d="M240.5 117.5C239.833 116.833 239.167 116.167 238.5 115.5C238.34 113.801 238.506 112.134 239 110.5C240.202 112.677 240.702 115.011 240.5 117.5Z" fill="#11056F"/>
<path opacity="0.01" fill-rule="evenodd" clip-rule="evenodd" d="M370.5 111.5C369.833 111.5 369.5 111.833 369.5 112.5C367.025 112.253 367.025 111.587 369.5 110.5C370.107 110.624 370.44 110.957 370.5 111.5Z" fill="#707070"/>
<path opacity="0.012" fill-rule="evenodd" clip-rule="evenodd" d="M457.5 110.5C457.833 110.5 458.167 110.5 458.5 110.5C458.737 111.791 458.404 112.791 457.5 113.5C457.5 112.5 457.5 111.5 457.5 110.5Z" fill="#0E044A"/>
<path opacity="0.01" fill-rule="evenodd" clip-rule="evenodd" d="M68.5 112.5C69.1667 112.5 69.8333 112.5 70.5 112.5C69.8333 113.833 69.1667 113.833 68.5 112.5Z" fill="#000071"/>
<path opacity="0.012" fill-rule="evenodd" clip-rule="evenodd" d="M155.5 111.5C156.573 112.251 156.74 113.251 156 114.5C155.517 113.552 155.351 112.552 155.5 111.5Z" fill="#0E044A"/>
<path opacity="0.012" fill-rule="evenodd" clip-rule="evenodd" d="M264.5 111.5C264.833 111.5 265.167 111.5 265.5 111.5C265.768 113.099 265.434 114.432 264.5 115.5C264.5 114.167 264.5 112.833 264.5 111.5Z" fill="#14067C"/>
<path opacity="0.012" fill-rule="evenodd" clip-rule="evenodd" d="M435.5 112.5C435.631 113.239 435.464 113.906 435 114.5C434.308 113.563 434.475 112.897 435.5 112.5Z" fill="#000080"/>
<path opacity="0.01" fill-rule="evenodd" clip-rule="evenodd" d="M352.5 114.5C354.167 113.167 355.833 113.167 357.5 114.5C355.833 114.5 354.167 114.5 352.5 114.5Z" fill="#292929"/>
<path opacity="0.01" fill-rule="evenodd" clip-rule="evenodd" d="M389.5 112.5C389.833 112.5 390.167 112.5 390.5 112.5C390.672 113.492 390.338 114.158 389.5 114.5C389.5 113.833 389.5 113.167 389.5 112.5Z" fill="#1F1F1F"/>
<path opacity="0.012" fill-rule="evenodd" clip-rule="evenodd" d="M456.5 113.5C456.833 113.5 457.167 113.5 457.5 113.5C457.167 116.167 456.833 116.167 456.5 113.5Z" fill="#000055"/>
<path opacity="0.01" fill-rule="evenodd" clip-rule="evenodd" d="M532.5 112.5C532.842 113.338 533.508 113.672 534.5 113.5C534.5 113.833 534.5 114.167 534.5 114.5C532.692 114.509 531.025 114.009 529.5 113C530.448 112.517 531.448 112.351 532.5 112.5Z" fill="#100471"/>
<path opacity="0.01" fill-rule="evenodd" clip-rule="evenodd" d="M357.5 114.5C358.239 114.369 358.906 114.536 359.5 115C358.563 115.692 357.897 115.525 357.5 114.5Z" fill="black"/>
<path opacity="0.012" fill-rule="evenodd" clip-rule="evenodd" d="M388.5 114.5C388.833 114.5 389.167 114.5 389.5 114.5C389.315 115.17 388.981 115.17 388.5 114.5Z" fill="#545554"/>
<path opacity="0.012" fill-rule="evenodd" clip-rule="evenodd" d="M263.5 115.5C263.833 115.5 264.167 115.5 264.5 115.5C264.737 116.791 264.404 117.791 263.5 118.5C263.5 117.5 263.5 116.5 263.5 115.5Z" fill="#FF017C"/>
<path opacity="0.01" fill-rule="evenodd" clip-rule="evenodd" d="M387.5 115.5C387.833 115.5 388.167 115.5 388.5 115.5C388.672 116.492 388.338 117.158 387.5 117.5C387.5 116.833 387.5 116.167 387.5 115.5Z" fill="#4E4E4E"/>
<path opacity="0.012" fill-rule="evenodd" clip-rule="evenodd" d="M455.5 118.5C455.369 117.761 455.536 117.094 456 116.5C456.692 117.437 456.525 118.103 455.5 118.5Z" fill="#000080"/>
<path opacity="0.01" fill-rule="evenodd" clip-rule="evenodd" d="M386.5 117.5C386.833 117.5 387.167 117.5 387.5 117.5C387.315 118.17 386.981 118.17 386.5 117.5Z" fill="black"/>
<path opacity="0.01" fill-rule="evenodd" clip-rule="evenodd" d="M386.5 118.5C385.749 119.573 384.749 119.74 383.5 119C384.448 118.517 385.448 118.351 386.5 118.5Z" fill="#7B7B7B"/>
<path opacity="0.012" fill-rule="evenodd" clip-rule="evenodd" d="M433.5 120.5C433.167 120.5 432.833 120.5 432.5 120.5C432.833 116.5 433.167 116.5 433.5 120.5Z" fill="#0E044A"/>
<path opacity="0.012" fill-rule="evenodd" clip-rule="evenodd" d="M517.5 119.5C517.897 118.475 518.563 118.308 519.5 119C518.906 119.464 518.239 119.631 517.5 119.5Z" fill="#000062"/>
<path opacity="0.012" fill-rule="evenodd" clip-rule="evenodd" d="M158.5 118.5C158.649 119.552 158.483 120.552 158 121.5C157.26 120.251 157.427 119.251 158.5 118.5Z" fill="#0E044A"/>
<path opacity="0.01" fill-rule="evenodd" clip-rule="evenodd" d="M202.5 116.5C203.833 118.167 203.833 119.833 202.5 121.5C202.5 119.833 202.5 118.167 202.5 116.5Z" fill="#10056B"/>
<path opacity="0.012" fill-rule="evenodd" clip-rule="evenodd" d="M262.5 118.5C262.833 118.5 263.167 118.5 263.5 118.5C263.768 120.099 263.434 121.432 262.5 122.5C262.5 121.167 262.5 119.833 262.5 118.5Z" fill="#15084C"/>
<path opacity="0.012" fill-rule="evenodd" clip-rule="evenodd" d="M377.5 118.5C378.239 118.369 378.906 118.536 379.5 119C378.119 125.02 377.453 124.853 377.5 118.5Z" fill="#838383"/>
<path opacity="0.012" fill-rule="evenodd" clip-rule="evenodd" d="M454.5 118.5C454.833 118.5 455.167 118.5 455.5 118.5C455.737 119.791 455.404 120.791 454.5 121.5C454.5 120.5 454.5 119.5 454.5 118.5Z" fill="#0E044A"/>
<path opacity="0.01" fill-rule="evenodd" clip-rule="evenodd" d="M339.5 118.5C339.664 121.187 339.497 123.854 339 126.5C338.199 123.633 338.366 120.966 339.5 118.5Z" fill="#494949"/>
<path opacity="0.012" fill-rule="evenodd" clip-rule="evenodd" d="M432.5 120.5C432.631 121.239 432.464 121.906 432 122.5C431.308 121.563 431.475 120.897 432.5 120.5Z" fill="#000080"/>
<path opacity="0.012" fill-rule="evenodd" clip-rule="evenodd" d="M201.5 121.5C201.833 121.5 202.167 121.5 202.5 121.5C202.784 123.415 202.451 125.081 201.5 126.5C201.5 124.833 201.5 123.167 201.5 121.5Z" fill="#110575"/>
<path opacity="0.01" fill-rule="evenodd" clip-rule="evenodd" d="M218.5 118.5C218.5 120.167 218.5 121.833 218.5 123.5C217.167 121.833 217.167 120.167 218.5 118.5Z" fill="#14052D"/>
<path opacity="0.01" fill-rule="evenodd" clip-rule="evenodd" d="M453.5 121.5C453.833 121.5 454.167 121.5 454.5 121.5C454.167 124.167 453.833 124.167 453.5 121.5Z" fill="#000071"/>
<path opacity="0.01" fill-rule="evenodd" clip-rule="evenodd" d="M94.5 124.5C94.8966 123.475 95.5632 123.308 96.5 124C95.9056 124.464 95.2389 124.631 94.5 124.5Z" fill="#000071"/>
<path opacity="0.016" fill-rule="evenodd" clip-rule="evenodd" d="M261.5 122.5C261.833 122.5 262.167 122.5 262.5 122.5C262.167 126.5 261.833 126.5 261.5 122.5Z" fill="#000092"/>
<path opacity="0.012" fill-rule="evenodd" clip-rule="evenodd" d="M503.5 124.5C503.897 123.475 504.563 123.308 505.5 124C504.906 124.464 504.239 124.631 503.5 124.5Z" fill="#000062"/>
<path opacity="0.01" fill-rule="evenodd" clip-rule="evenodd" d="M97.5 125.5C97.8966 124.475 98.5632 124.308 99.5 125C98.9056 125.464 98.2389 125.631 97.5 125.5Z" fill="#000071"/>
<path opacity="0.012" fill-rule="evenodd" clip-rule="evenodd" d="M218.5 123.5C219.598 124.601 219.765 125.934 219 127.5C218.51 126.207 218.343 124.873 218.5 123.5Z" fill="#0F045C"/>
<path opacity="0.01" fill-rule="evenodd" clip-rule="evenodd" d="M287.5 123.5C287.5 124.167 287.5 124.833 287.5 125.5C286.167 124.833 286.167 124.167 287.5 123.5Z" fill="#717171"/>
<path opacity="0.01" fill-rule="evenodd" clip-rule="evenodd" d="M328.5 124.5C330.5 125.833 332.167 127.5 333.5 129.5C332.833 129.5 332.167 129.5 331.5 129.5C330.833 129.5 330.5 129.167 330.5 128.5C329.833 128.5 329.5 128.167 329.5 127.5C328.833 127.5 328.5 127.167 328.5 126.5C328.5 125.833 328.5 125.167 328.5 124.5Z" fill="#5E5E5E"/>
<path opacity="0.01" fill-rule="evenodd" clip-rule="evenodd" d="M396.5 125.5C397.497 124.287 398.497 124.454 399.5 126C398.906 126.464 398.239 126.631 397.5 126.5C396.833 126.5 396.5 126.167 396.5 125.5Z" fill="#2B2B2B"/>
<path opacity="0.01" fill-rule="evenodd" clip-rule="evenodd" d="M565.5 124.5C565.833 124.5 566.167 124.5 566.5 124.5C566.315 125.17 565.981 125.17 565.5 124.5Z" fill="black"/>
<path opacity="0.01" fill-rule="evenodd" clip-rule="evenodd" d="M452.5 126.5C452.369 125.761 452.536 125.094 453 124.5C453.692 125.437 453.525 126.103 452.5 126.5Z" fill="#0000D2"/>
<path opacity="0.012" fill-rule="evenodd" clip-rule="evenodd" d="M160.5 125.5C160.5 126.5 160.5 127.5 160.5 128.5C159.167 127.5 159.167 126.5 160.5 125.5Z" fill="#0F0553"/>
<path opacity="0.012" fill-rule="evenodd" clip-rule="evenodd" d="M200.5 126.5C200.833 126.5 201.167 126.5 201.5 126.5C201.784 128.415 201.451 130.081 200.5 131.5C200.5 129.833 200.5 128.167 200.5 126.5Z" fill="#110575"/>
<path opacity="0.016" fill-rule="evenodd" clip-rule="evenodd" d="M287.5 125.5C287.833 125.5 288.167 125.5 288.5 125.5C288.5 126.5 288.5 127.5 288.5 128.5C287.596 127.791 287.263 126.791 287.5 125.5Z" fill="#222222"/>
<path opacity="0.012" fill-rule="evenodd" clip-rule="evenodd" d="M389.5 124.5C389.5 125.167 389.5 125.833 389.5 126.5C388.833 126.5 388.5 126.833 388.5 127.5C387.833 127.5 387.5 127.833 387.5 128.5C386.833 128.5 386.5 128.833 386.5 129.5C385.761 129.631 385.094 129.464 384.5 129C386.037 127.293 387.704 125.793 389.5 124.5Z" fill="#3D3D3D"/>
<path opacity="0.012" fill-rule="evenodd" clip-rule="evenodd" d="M430.5 128.5C430.167 128.5 429.833 128.5 429.5 128.5C429.833 124.5 430.167 124.5 430.5 128.5Z" fill="#0E044A"/>
<path opacity="0.012" fill-rule="evenodd" clip-rule="evenodd" d="M260.5 126.5C261.573 127.251 261.74 128.251 261 129.5C260.517 128.552 260.351 127.552 260.5 126.5Z" fill="#0E044A"/>
<path opacity="0.01" fill-rule="evenodd" clip-rule="evenodd" d="M355.5 128.5C355.5 128.167 355.5 127.833 355.5 127.5C358.167 127.833 358.167 128.167 355.5 128.5Z" fill="#242424"/>
<path opacity="0.01" fill-rule="evenodd" clip-rule="evenodd" d="M375.5 127.5C376.833 128.167 376.833 128.167 375.5 127.5Z" fill="black"/>
<path opacity="0.012" fill-rule="evenodd" clip-rule="evenodd" d="M451.5 126.5C451.833 126.5 452.167 126.5 452.5 126.5C452.737 127.791 452.404 128.791 451.5 129.5C451.5 128.5 451.5 127.5 451.5 126.5Z" fill="#0E044A"/>
<path opacity="0.013" fill-rule="evenodd" clip-rule="evenodd" d="M220.5 132.5C219.402 131.399 219.235 130.066 220 128.5C220.49 129.793 220.657 131.127 220.5 132.5Z" fill="#100565"/>
<path opacity="0.01" fill-rule="evenodd" clip-rule="evenodd" d="M354.5 128.5C354.833 128.5 355.167 128.5 355.5 128.5C355.672 129.492 355.338 130.158 354.5 130.5C354.5 129.833 354.5 129.167 354.5 128.5Z" fill="#7F807F"/>
<path opacity="0.01" fill-rule="evenodd" clip-rule="evenodd" d="M374.5 128.5C374.833 128.5 375.167 128.5 375.5 128.5C375.315 129.17 374.981 129.17 374.5 128.5Z" fill="#7F807F"/>
<path opacity="0.012" fill-rule="evenodd" clip-rule="evenodd" d="M429.5 128.5C429.631 129.239 429.464 129.906 429 130.5C428.308 129.563 428.475 128.897 429.5 128.5Z" fill="#000080"/>
<path opacity="0.01" fill-rule="evenodd" clip-rule="evenodd" d="M555.5 129.5C555.5 129.167 555.5 128.833 555.5 128.5C559.5 128.833 559.5 129.167 555.5 129.5Z" fill="#12055E"/>
<path opacity="0.01" fill-rule="evenodd" clip-rule="evenodd" d="M111.5 130.5C111.897 129.475 112.563 129.308 113.5 130C112.906 130.464 112.239 130.631 111.5 130.5Z" fill="#000071"/>
<path opacity="0.012" fill-rule="evenodd" clip-rule="evenodd" d="M160.5 128.5C160.833 128.5 161.167 128.5 161.5 128.5C161.167 133.833 160.833 133.833 160.5 128.5Z" fill="#14067C"/>
<path opacity="0.01" fill-rule="evenodd" clip-rule="evenodd" d="M288.5 128.5C288.833 128.5 289.167 128.5 289.5 128.5C289.5 129.167 289.5 129.833 289.5 130.5C288.662 130.158 288.328 129.492 288.5 128.5Z" fill="#717171"/>
<path opacity="0.01" fill-rule="evenodd" clip-rule="evenodd" d="M362.5 128.5C362.631 129.239 362.464 129.906 362 130.5C361.308 129.563 361.475 128.897 362.5 128.5Z" fill="#D2D2D2"/>
<path opacity="0.01" fill-rule="evenodd" clip-rule="evenodd" d="M372.5 130.5C372.5 130.167 372.5 129.833 372.5 129.5C373.167 129.5 373.833 129.5 374.5 129.5C374.158 130.338 373.492 130.672 372.5 130.5Z" fill="#1F1F1F"/>
<path opacity="0.012" fill-rule="evenodd" clip-rule="evenodd" d="M486.5 130.5C486.897 129.475 487.563 129.308 488.5 130C487.906 130.464 487.239 130.631 486.5 130.5Z" fill="#000062"/>
<path opacity="0.01" fill-rule="evenodd" clip-rule="evenodd" d="M553.5 130.5C553.5 130.167 553.5 129.833 553.5 129.5C554.167 129.5 554.833 129.5 555.5 129.5C555.158 130.338 554.492 130.672 553.5 130.5Z" fill="#FF01C2"/>
<path opacity="0.01" fill-rule="evenodd" clip-rule="evenodd" d="M114.5 131.5C114.897 130.475 115.563 130.308 116.5 131C115.906 131.464 115.239 131.631 114.5 131.5Z" fill="#000071"/>
<path opacity="0.01" fill-rule="evenodd" clip-rule="evenodd" d="M353.5 130.5C353.833 130.5 354.167 130.5 354.5 130.5C354.315 131.17 353.981 131.17 353.5 130.5Z" fill="black"/>
<path opacity="0.01" fill-rule="evenodd" clip-rule="evenodd" d="M369.5 131.5C369.5 131.167 369.5 130.833 369.5 130.5C370.5 130.5 371.5 130.5 372.5 130.5C371.791 131.404 370.791 131.737 369.5 131.5Z" fill="#5E5E5E"/>
<path opacity="0.01" fill-rule="evenodd" clip-rule="evenodd" d="M450.5 129.5C450.833 129.5 451.167 129.5 451.5 129.5C451.167 132.167 450.833 132.167 450.5 129.5Z" fill="#000071"/>
<path opacity="0.01" fill-rule="evenodd" clip-rule="evenodd" d="M550.5 131.5C550.5 131.167 550.5 130.833 550.5 130.5C551.5 130.5 552.5 130.5 553.5 130.5C552.791 131.404 551.791 131.737 550.5 131.5Z" fill="#12055E"/>
<path opacity="0.01" fill-rule="evenodd" clip-rule="evenodd" d="M289.5 130.5C289.833 130.5 290.167 130.5 290.5 130.5C290.5 131.167 290.5 131.833 290.5 132.5C289.662 132.158 289.328 131.492 289.5 130.5Z" fill="#717171"/>
<path opacity="0.01" fill-rule="evenodd" clip-rule="evenodd" d="M353.5 131.5C351.712 132.622 349.712 132.789 347.5 132C349.473 131.505 351.473 131.338 353.5 131.5Z" fill="#6A6A6A"/>
<path opacity="0.01" fill-rule="evenodd" clip-rule="evenodd" d="M366.5 132.5C366.5 132.167 366.5 131.833 366.5 131.5C367.5 131.5 368.5 131.5 369.5 131.5C368.791 132.404 367.791 132.737 366.5 132.5Z" fill="#9E9E9E"/>
<path opacity="0.01" fill-rule="evenodd" clip-rule="evenodd" d="M547.5 132.5C547.5 132.167 547.5 131.833 547.5 131.5C548.5 131.5 549.5 131.5 550.5 131.5C549.791 132.404 548.791 132.737 547.5 132.5Z" fill="#18087B"/>
<path opacity="0.012" fill-rule="evenodd" clip-rule="evenodd" d="M199.5 131.5C199.833 131.5 200.167 131.5 200.5 131.5C200.167 136.833 199.833 136.833 199.5 131.5Z" fill="#0F045C"/>
<path opacity="0.01" fill-rule="evenodd" clip-rule="evenodd" d="M366.5 132.5C365.833 133.167 365.833 133.167 366.5 132.5Z" fill="black"/>
<path opacity="0.01" fill-rule="evenodd" clip-rule="evenodd" d="M545.5 132.5C546.167 132.5 546.833 132.5 547.5 132.5C546.833 133.833 546.167 133.833 545.5 132.5Z" fill="#000071"/>
<path opacity="0.012" fill-rule="evenodd" clip-rule="evenodd" d="M122.5 134.5C122.897 133.475 123.563 133.308 124.5 134C123.906 134.464 123.239 134.631 122.5 134.5Z" fill="#000062"/>
<path opacity="0.016" fill-rule="evenodd" clip-rule="evenodd" d="M220.5 132.5C220.833 132.5 221.167 132.5 221.5 132.5C221.167 139.167 220.833 139.167 220.5 132.5Z" fill="#12064D"/>
<path opacity="0.01" fill-rule="evenodd" clip-rule="evenodd" d="M290.5 132.5C290.833 132.5 291.167 132.5 291.5 132.5C291.5 133.167 291.5 133.833 291.5 134.5C290.662 134.158 290.328 133.492 290.5 132.5Z" fill="#717171"/>
<path opacity="0.01" fill-rule="evenodd" clip-rule="evenodd" d="M449.5 134.5C449.369 133.761 449.536 133.094 450 132.5C450.692 133.437 450.525 134.103 449.5 134.5Z" fill="#0000D2"/>
<path opacity="0.012" fill-rule="evenodd" clip-rule="evenodd" d="M448.5 134.5C448.833 134.5 449.167 134.5 449.5 134.5C449.737 135.791 449.404 136.791 448.5 137.5C448.5 136.5 448.5 135.5 448.5 134.5Z" fill="#0E0140"/>
<path opacity="0.01" fill-rule="evenodd" clip-rule="evenodd" d="M291.5 134.5C291.833 134.5 292.167 134.5 292.5 134.5C292.167 137.167 291.833 137.167 291.5 134.5Z" fill="#191919"/>
<path opacity="0.012" fill-rule="evenodd" clip-rule="evenodd" d="M126.5 158.5C126.334 151.159 126.5 143.826 127 136.5C127.822 144.012 127.655 151.345 126.5 158.5Z" fill="#030051"/>
<path opacity="0.013" fill-rule="evenodd" clip-rule="evenodd" d="M198.5 140.5C198.343 139.127 198.51 137.793 199 136.5C199.765 138.066 199.598 139.399 198.5 140.5Z" fill="#100565"/>
<path opacity="0.01" fill-rule="evenodd" clip-rule="evenodd" d="M472.5 136.5C473.655 143.321 473.821 150.321 473 157.5C472.5 150.508 472.334 143.508 472.5 136.5Z" fill="#000080"/>
<path opacity="0.01" fill-rule="evenodd" clip-rule="evenodd" d="M534.5 137.5C534.5 137.167 534.5 136.833 534.5 136.5C538.5 136.833 538.5 137.167 534.5 137.5Z" fill="#100554"/>
<path opacity="0.012" fill-rule="evenodd" clip-rule="evenodd" d="M447.5 137.5C447.833 137.5 448.167 137.5 448.5 137.5C448.672 138.492 448.338 139.158 447.5 139.5C447.5 138.833 447.5 138.167 447.5 137.5Z" fill="#000080"/>
<path opacity="0.012" fill-rule="evenodd" clip-rule="evenodd" d="M531.5 138.5C531.5 138.167 531.5 137.833 531.5 137.5C532.5 137.5 533.5 137.5 534.5 137.5C533.791 138.404 532.791 138.737 531.5 138.5Z" fill="#130766"/>
<path opacity="0.01" fill-rule="evenodd" clip-rule="evenodd" d="M529.5 139.5C529.5 139.167 529.5 138.833 529.5 138.5C530.167 138.5 530.833 138.5 531.5 138.5C531.158 139.338 530.492 139.672 529.5 139.5Z" fill="#000071"/>
<path opacity="0.01" fill-rule="evenodd" clip-rule="evenodd" d="M526.5 140.5C526.5 140.167 526.5 139.833 526.5 139.5C527.5 139.5 528.5 139.5 529.5 139.5C528.791 140.404 527.791 140.737 526.5 140.5Z" fill="#12055E"/>
<path opacity="0.01" fill-rule="evenodd" clip-rule="evenodd" d="M407.5 138.5C408.559 140.07 408.059 141.403 406 142.5C405.536 141.906 405.369 141.239 405.5 140.5C406.167 140.5 406.5 140.167 406.5 139.5C407.167 139.5 407.5 139.167 407.5 138.5Z" fill="#393939"/>
<path opacity="0.016" fill-rule="evenodd" clip-rule="evenodd" d="M446.5 139.5C446.833 139.5 447.167 139.5 447.5 139.5C447.737 140.791 447.404 141.791 446.5 142.5C446.5 141.5 446.5 140.5 446.5 139.5Z" fill="#18087B"/>
<path opacity="0.012" fill-rule="evenodd" clip-rule="evenodd" d="M523.5 141.5C523.5 141.167 523.5 140.833 523.5 140.5C524.5 140.5 525.5 140.5 526.5 140.5C525.791 141.404 524.791 141.737 523.5 141.5Z" fill="#12002C"/>
<path opacity="0.013" fill-rule="evenodd" clip-rule="evenodd" d="M197.5 140.5C197.833 140.5 198.167 140.5 198.5 140.5C198.784 142.415 198.451 144.081 197.5 145.5C197.5 143.833 197.5 142.167 197.5 140.5Z" fill="#140754"/>
<path opacity="0.012" fill-rule="evenodd" clip-rule="evenodd" d="M296.5 142.5C298.288 141.378 300.288 141.211 302.5 142C300.527 142.495 298.527 142.662 296.5 142.5Z" fill="#3D3D3D"/>
<path opacity="0.01" fill-rule="evenodd" clip-rule="evenodd" d="M521.5 141.5C522.167 141.5 522.833 141.5 523.5 141.5C522.833 142.833 522.167 142.833 521.5 141.5Z" fill="#000071"/>
<path opacity="0.012" fill-rule="evenodd" clip-rule="evenodd" d="M445.5 142.5C445.833 142.5 446.167 142.5 446.5 142.5C446.737 143.791 446.404 144.791 445.5 145.5C445.5 144.5 445.5 143.5 445.5 142.5Z" fill="#0E0140"/>
<path opacity="0.012" fill-rule="evenodd" clip-rule="evenodd" d="M165.5 142.5C165.657 143.873 165.49 145.207 165 146.5C164.235 144.934 164.402 143.601 165.5 142.5Z" fill="#14067C"/>
<path opacity="0.01" fill-rule="evenodd" clip-rule="evenodd" d="M402.5 143.5C404.933 143.786 404.933 144.452 402.5 145.5C402.5 144.833 402.5 144.167 402.5 143.5Z" fill="#7B7B7B"/>
<path opacity="0.012" fill-rule="evenodd" clip-rule="evenodd" d="M317.5 144.5C317.631 145.239 317.464 145.906 317 146.5C316.308 145.563 316.475 144.897 317.5 144.5Z" fill="#626262"/>
<path opacity="0.012" fill-rule="evenodd" clip-rule="evenodd" d="M444.5 145.5C444.833 145.5 445.167 145.5 445.5 145.5C445.672 146.492 445.338 147.158 444.5 147.5C444.5 146.833 444.5 146.167 444.5 145.5Z" fill="#000080"/>
<path opacity="0.012" fill-rule="evenodd" clip-rule="evenodd" d="M510.5 146.5C510.5 146.167 510.5 145.833 510.5 145.5C514.5 145.833 514.5 146.167 510.5 146.5Z" fill="#0E044A"/>
<path opacity="0.01" fill-rule="evenodd" clip-rule="evenodd" d="M401.5 145.5C401.833 145.5 402.167 145.5 402.5 145.5C402.167 148.167 401.833 148.167 401.5 145.5Z" fill="#2B2B2B"/>
<path opacity="0.01" fill-rule="evenodd" clip-rule="evenodd" d="M508.5 147.5C508.5 147.167 508.5 146.833 508.5 146.5C509.167 146.5 509.833 146.5 510.5 146.5C510.158 147.338 509.492 147.672 508.5 147.5Z" fill="#FF01C2"/>
<path opacity="0.012" fill-rule="evenodd" clip-rule="evenodd" d="M254.5 147.5C255.833 148.5 255.833 149.5 254.5 150.5C254.5 149.5 254.5 148.5 254.5 147.5Z" fill="#0E0140"/>
<path opacity="0.012" fill-rule="evenodd" clip-rule="evenodd" d="M443.5 147.5C443.833 147.5 444.167 147.5 444.5 147.5C444.737 148.791 444.404 149.791 443.5 150.5C443.5 149.5 443.5 148.5 443.5 147.5Z" fill="#12055E"/>
<path opacity="0.01" fill-rule="evenodd" clip-rule="evenodd" d="M505.5 148.5C505.5 148.167 505.5 147.833 505.5 147.5C506.5 147.5 507.5 147.5 508.5 147.5C507.791 148.404 506.791 148.737 505.5 148.5Z" fill="#100554"/>
<path opacity="0.01" fill-rule="evenodd" clip-rule="evenodd" d="M196.5 145.5C196.833 145.5 197.167 145.5 197.5 145.5C197.784 147.415 197.451 149.081 196.5 150.5C196.5 148.833 196.5 147.167 196.5 145.5Z" fill="#10056B"/>
<path opacity="0.012" fill-rule="evenodd" clip-rule="evenodd" d="M502.5 149.5C502.5 149.167 502.5 148.833 502.5 148.5C503.5 148.5 504.5 148.5 505.5 148.5C504.791 149.404 503.791 149.737 502.5 149.5Z" fill="#12002C"/>
<path opacity="0.01" fill-rule="evenodd" clip-rule="evenodd" d="M318.5 147.5C318.663 149.857 318.497 152.19 318 154.5C317.204 151.961 317.371 149.628 318.5 147.5Z" fill="#6B6B6B"/>
<path opacity="0.01" fill-rule="evenodd" clip-rule="evenodd" d="M500.5 149.5C501.167 149.5 501.833 149.5 502.5 149.5C501.833 150.833 501.167 150.833 500.5 149.5Z" fill="#000071"/>
<path opacity="0.012" fill-rule="evenodd" clip-rule="evenodd" d="M167.5 149.5C167.5 150.833 167.5 152.167 167.5 153.5C166.167 152.167 166.167 150.833 167.5 149.5Z" fill="#15084C"/>
<path opacity="0.012" fill-rule="evenodd" clip-rule="evenodd" d="M195.5 150.5C195.833 150.5 196.167 150.5 196.5 150.5C196.784 152.415 196.451 154.081 195.5 155.5C195.5 153.833 195.5 152.167 195.5 150.5Z" fill="#110575"/>
<path opacity="0.01" fill-rule="evenodd" clip-rule="evenodd" d="M224.5 147.5C224.5 149.167 224.5 150.833 224.5 152.5C223.167 150.833 223.167 149.167 224.5 147.5Z" fill="#14032A"/>
<path opacity="0.012" fill-rule="evenodd" clip-rule="evenodd" d="M421.5 152.5C421.167 152.5 420.833 152.5 420.5 152.5C420.833 148.5 421.167 148.5 421.5 152.5Z" fill="#12055E"/>
<path opacity="0.012" fill-rule="evenodd" clip-rule="evenodd" d="M442.5 150.5C442.833 150.5 443.167 150.5 443.5 150.5C443.737 151.791 443.404 152.791 442.5 153.5C442.5 152.5 442.5 151.5 442.5 150.5Z" fill="#0E0140"/>
<path opacity="0.012" fill-rule="evenodd" clip-rule="evenodd" d="M253.5 150.5C253.833 150.5 254.167 150.5 254.5 150.5C254.768 152.099 254.434 153.432 253.5 154.5C253.5 153.167 253.5 151.833 253.5 150.5Z" fill="#14067C"/>
<path opacity="0.012" fill-rule="evenodd" clip-rule="evenodd" d="M420.5 152.5C420.631 153.239 420.464 153.906 420 154.5C419.308 153.563 419.475 152.897 420.5 152.5Z" fill="#000080"/>
<path opacity="0.012" fill-rule="evenodd" clip-rule="evenodd" d="M224.5 152.5C225.598 153.601 225.765 154.934 225 156.5C224.51 155.207 224.343 153.873 224.5 152.5Z" fill="#0F045C"/>
<path opacity="0.012" fill-rule="evenodd" clip-rule="evenodd" d="M489.5 154.5C489.5 154.167 489.5 153.833 489.5 153.5C493.5 153.833 493.5 154.167 489.5 154.5Z" fill="#0E044A"/>
<path opacity="0.016" fill-rule="evenodd" clip-rule="evenodd" d="M167.5 153.5C167.833 153.5 168.167 153.5 168.5 153.5C168.167 157.5 167.833 157.5 167.5 153.5Z" fill="#000092"/>
<path opacity="0.012" fill-rule="evenodd" clip-rule="evenodd" d="M252.5 154.5C252.833 154.5 253.167 154.5 253.5 154.5C253.167 158.5 252.833 158.5 252.5 154.5Z" fill="#FF017C"/>
<path opacity="0.01" fill-rule="evenodd" clip-rule="evenodd" d="M441.5 153.5C441.833 153.5 442.167 153.5 442.5 153.5C442.672 154.492 442.338 155.158 441.5 155.5C441.5 154.833 441.5 154.167 441.5 153.5Z" fill="#0000D2"/>
<path opacity="0.01" fill-rule="evenodd" clip-rule="evenodd" d="M487.5 155.5C487.5 155.167 487.5 154.833 487.5 154.5C488.167 154.5 488.833 154.5 489.5 154.5C489.158 155.338 488.492 155.672 487.5 155.5Z" fill="#FF01C2"/>
<path opacity="0.012" fill-rule="evenodd" clip-rule="evenodd" d="M194.5 155.5C194.833 155.5 195.167 155.5 195.5 155.5C195.737 156.791 195.404 157.791 194.5 158.5C194.5 157.5 194.5 156.5 194.5 155.5Z" fill="#12055E"/>
<path opacity="0.01" fill-rule="evenodd" clip-rule="evenodd" d="M440.5 155.5C440.833 155.5 441.167 155.5 441.5 155.5C441.315 156.17 440.981 156.17 440.5 155.5Z" fill="black"/>
<path opacity="0.01" fill-rule="evenodd" clip-rule="evenodd" d="M484.5 156.5C484.5 156.167 484.5 155.833 484.5 155.5C485.5 155.5 486.5 155.5 487.5 155.5C486.791 156.404 485.791 156.737 484.5 156.5Z" fill="#100554"/>
<path opacity="0.01" fill-rule="evenodd" clip-rule="evenodd" d="M440.5 156.5C434.347 157.653 428.014 157.82 421.5 157C427.825 156.5 434.158 156.334 440.5 156.5Z" fill="#06017F"/>
<path opacity="0.012" fill-rule="evenodd" clip-rule="evenodd" d="M481.5 157.5C481.5 157.167 481.5 156.833 481.5 156.5C482.5 156.5 483.5 156.5 484.5 156.5C483.791 157.404 482.791 157.737 481.5 157.5Z" fill="#130766"/>
<path opacity="0.01" fill-rule="evenodd" clip-rule="evenodd" d="M226.5 158.5C225.833 157.167 225.833 157.167 226.5 158.5Z" fill="black"/>
<path opacity="0.01" fill-rule="evenodd" clip-rule="evenodd" d="M402.5 160.5C402.343 159.127 402.51 157.793 403 156.5C403.765 158.066 403.598 159.399 402.5 160.5Z" fill="#5C5C5C"/>
<path opacity="0.01" fill-rule="evenodd" clip-rule="evenodd" d="M479.5 158.5C479.5 158.167 479.5 157.833 479.5 157.5C480.167 157.5 480.833 157.5 481.5 157.5C481.158 158.338 480.492 158.672 479.5 158.5Z" fill="#000071"/>
<path opacity="0.01" fill-rule="evenodd" clip-rule="evenodd" d="M125.5 158.5C125.833 158.5 126.167 158.5 126.5 158.5C126.315 159.17 125.981 159.17 125.5 158.5Z" fill="black"/>
<path opacity="0.01" fill-rule="evenodd" clip-rule="evenodd" d="M193.5 158.5C193.833 158.5 194.167 158.5 194.5 158.5C194.315 159.17 193.981 159.17 193.5 158.5Z" fill="black"/>
<path opacity="0.01" fill-rule="evenodd" clip-rule="evenodd" d="M226.5 158.5C226.833 158.5 227.167 158.5 227.5 158.5C227.5 158.833 227.5 159.167 227.5 159.5C227.167 159.167 226.833 158.833 226.5 158.5Z" fill="black"/>
<path opacity="0.01" fill-rule="evenodd" clip-rule="evenodd" d="M476.5 159.5C476.5 159.167 476.5 158.833 476.5 158.5C477.5 158.5 478.5 158.5 479.5 158.5C478.791 159.404 477.791 159.737 476.5 159.5Z" fill="#12055E"/>
<path opacity="0.01" fill-rule="evenodd" clip-rule="evenodd" d="M125.5 159.5C125.103 160.525 124.437 160.692 123.5 160C124.094 159.536 124.761 159.369 125.5 159.5Z" fill="#1F0F4F"/>
<path opacity="0.01" fill-rule="evenodd" clip-rule="evenodd" d="M193.5 159.5C186.011 160.656 178.345 160.822 170.5 160C178.159 159.5 185.826 159.334 193.5 159.5Z" fill="#05017F"/>
<path opacity="0.01" fill-rule="evenodd" clip-rule="evenodd" d="M227.5 159.5C235.174 159.334 242.841 159.5 250.5 160C242.655 160.822 234.989 160.656 227.5 159.5Z" fill="#000084"/>
<path opacity="0.01" fill-rule="evenodd" clip-rule="evenodd" d="M476.5 159.5C475.833 160.167 475.833 160.167 476.5 159.5Z" fill="#0000FF"/>
<path opacity="0.01" fill-rule="evenodd" clip-rule="evenodd" d="M401.5 160.5C401.833 160.5 402.167 160.5 402.5 160.5C402.672 161.492 402.338 162.158 401.5 162.5C401.5 161.833 401.5 161.167 401.5 160.5Z" fill="#2B2B2B"/>
<path opacity="0.01" fill-rule="evenodd" clip-rule="evenodd" d="M400.5 162.5C400.833 162.5 401.167 162.5 401.5 162.5C401.315 163.17 400.981 163.17 400.5 162.5Z" fill="#FEFFFE"/>
<path opacity="0.01" fill-rule="evenodd" clip-rule="evenodd" d="M398.5 164.5C398.5 164.167 398.5 163.833 398.5 163.5C399.167 163.5 399.833 163.5 400.5 163.5C400.158 164.338 399.492 164.672 398.5 164.5Z" fill="#2B2B2B"/>
<path opacity="0.012" fill-rule="evenodd" clip-rule="evenodd" d="M397.5 164.5C397.833 164.5 398.167 164.5 398.5 164.5C398.315 165.17 397.981 165.17 397.5 164.5Z" fill="#545554"/>
<path opacity="0.01" fill-rule="evenodd" clip-rule="evenodd" d="M395.5 166.5C395.5 166.167 395.5 165.833 395.5 165.5C396.167 165.5 396.833 165.5 397.5 165.5C397.158 166.338 396.492 166.672 395.5 166.5Z" fill="#1F1F1F"/>
<path opacity="0.01" fill-rule="evenodd" clip-rule="evenodd" d="M393.5 167.5C393.5 167.167 393.5 166.833 393.5 166.5C394.167 166.5 394.833 166.5 395.5 166.5C395.158 167.338 394.492 167.672 393.5 167.5Z" fill="#C2C2C2"/>
<path opacity="0.012" fill-rule="evenodd" clip-rule="evenodd" d="M349.5 166.5C350.833 167.167 350.833 167.833 349.5 168.5C349.5 167.833 349.5 167.167 349.5 166.5Z" fill="#4D4D4D"/>
<path opacity="0.01" fill-rule="evenodd" clip-rule="evenodd" d="M391.5 168.5C391.5 168.167 391.5 167.833 391.5 167.5C392.167 167.5 392.833 167.5 393.5 167.5C393.158 168.338 392.492 168.672 391.5 168.5Z" fill="#717171"/>
<path opacity="0.01" fill-rule="evenodd" clip-rule="evenodd" d="M348.5 168.5C348.833 168.5 349.167 168.5 349.5 168.5C349.672 169.492 349.338 170.158 348.5 170.5C348.5 169.833 348.5 169.167 348.5 168.5Z" fill="#7F807F"/>
<path opacity="0.01" fill-rule="evenodd" clip-rule="evenodd" d="M389.5 169.5C389.5 169.167 389.5 168.833 389.5 168.5C390.167 168.5 390.833 168.5 391.5 168.5C391.158 169.338 390.492 169.672 389.5 169.5Z" fill="#C2C2C2"/>
<path opacity="0.012" fill-rule="evenodd" clip-rule="evenodd" d="M386.5 170.5C386.5 170.167 386.5 169.833 386.5 169.5C387.5 169.5 388.5 169.5 389.5 169.5C388.791 170.404 387.791 170.737 386.5 170.5Z" fill="#656565"/>
<path opacity="0.01" fill-rule="evenodd" clip-rule="evenodd" d="M347.5 170.5C347.833 170.5 348.167 170.5 348.5 170.5C348.315 171.17 347.981 171.17 347.5 170.5Z" fill="#7F807F"/>
<path opacity="0.01" fill-rule="evenodd" clip-rule="evenodd" d="M384.5 171.5C384.5 171.167 384.5 170.833 384.5 170.5C385.167 170.5 385.833 170.5 386.5 170.5C386.158 171.338 385.492 171.672 384.5 171.5Z" fill="#717171"/>
<path opacity="0.01" fill-rule="evenodd" clip-rule="evenodd" d="M346.5 171.5C346.833 171.5 347.167 171.5 347.5 171.5C347.315 172.17 346.981 172.17 346.5 171.5Z" fill="#7F807F"/>
<path opacity="0.01" fill-rule="evenodd" clip-rule="evenodd" d="M381.5 172.5C381.5 172.167 381.5 171.833 381.5 171.5C382.5 171.5 383.5 171.5 384.5 171.5C383.791 172.404 382.791 172.737 381.5 172.5Z" fill="#4E4E4E"/>
<path opacity="0.01" fill-rule="evenodd" clip-rule="evenodd" d="M344.5 173.5C344.5 173.167 344.5 172.833 344.5 172.5C345.167 172.5 345.833 172.5 346.5 172.5C346.158 173.338 345.492 173.672 344.5 173.5Z" fill="#7F807F"/>
<path opacity="0.016" fill-rule="evenodd" clip-rule="evenodd" d="M377.5 173.5C377.5 173.167 377.5 172.833 377.5 172.5C378.833 172.5 380.167 172.5 381.5 172.5C380.432 173.434 379.099 173.768 377.5 173.5Z" fill="#4B4B4B"/>
<path opacity="0.01" fill-rule="evenodd" clip-rule="evenodd" d="M344.5 173.5C343.749 174.573 342.749 174.74 341.5 174C342.448 173.517 343.448 173.351 344.5 173.5Z" fill="black"/>
<path opacity="0.01" fill-rule="evenodd" clip-rule="evenodd" d="M377.5 173.5C377.103 174.525 376.437 174.692 375.5 174C376.094 173.536 376.761 173.369 377.5 173.5Z" fill="black"/>
</svg>
